<svg version="1.1" viewBox="0.0 0.0 719.8661417322835 334.3490813648294" fill="none" stroke="none" stroke-linecap="square" stroke-miterlimit="10" xmlns:xlink="http://www.w3.org/1999/xlink" xmlns="http://www.w3.org/2000/svg"><clipPath id="p.0"><path d="m0 0l719.86615 0l0 334.3491l-719.86615 0l0 -334.3491z" clip-rule="nonzero"/></clipPath><g clip-path="url(#p.0)"><path fill="#000000" fill-opacity="0.0" d="m0 0l719.86615 0l0 334.3491l-719.86615 0z" fill-rule="evenodd"/><path fill="#000000" fill-opacity="0.0" d="m10.461943 114.72441l0 0c0 -59.646755 48.35325 -108.0 108.0 -108.0l0 0c28.643372 0 56.1136 11.37854 76.36752 31.632467c20.253937 20.25393 31.632477 47.724155 31.632477 76.36754l0 0c0 59.64676 -48.353256 108.0 -108.0 108.0l0 0c-59.646755 0 -108.0 -48.35324 -108.0 -108.0z" fill-rule="evenodd"/><path stroke="#000000" stroke-width="1.0" stroke-linejoin="round" stroke-linecap="butt" stroke-dasharray="4.0,3.0" d="m10.461943 114.72441l0 0c0 -59.646755 48.35325 -108.0 108.0 -108.0l0 0c28.643372 0 56.1136 11.37854 76.36752 31.632467c20.253937 20.25393 31.632477 47.724155 31.632477 76.36754l0 0c0 59.64676 -48.353256 108.0 -108.0 108.0l0 0c-59.646755 0 -108.0 -48.35324 -108.0 -108.0z" fill-rule="evenodd"/><path fill="#000000" fill-opacity="0.0" d="m10.461943 114.72441l216.0 0" fill-rule="evenodd"/><path stroke="#000000" stroke-width="1.0" stroke-linejoin="round" stroke-linecap="butt" d="m10.461943 114.72441l216.0 0" fill-rule="evenodd"/><path fill="#000000" fill-opacity="0.0" d="m118.461945 6.7244096l0 216.0" fill-rule="evenodd"/><path stroke="#000000" stroke-width="1.0" stroke-linejoin="round" stroke-linecap="butt" d="m118.461945 6.7244096l0 216.0" fill-rule="evenodd"/><path fill="#000000" fill-opacity="0.0" d="m10.462814 114.71065l55.227905 -93.54291l105.54419 0.030778885l55.227905 93.57512l-55.227905 93.54291l-105.54419 -0.030776978z" fill-rule="evenodd"/><path stroke="#e06666" stroke-width="1.0" stroke-linejoin="round" stroke-linecap="butt" d="m10.462814 114.71065l55.227905 -93.54291l105.54419 0.030778885l55.227905 93.57512l-55.227905 93.54291l-105.54419 -0.030776978z" fill-rule="evenodd"/><path fill="#000000" fill-opacity="0.0" d="m59.225723 91.81365l32.125984 0l0 30.803146l-32.125984 0z" fill-rule="evenodd"/><path fill="#000000" d="m70.3976 111.05365l-1.46875 0l0 -5.53125l1.359375 0l0 0.796875q0.34375 -0.5625 0.625 -0.734375q0.28125 -0.1875 0.625 -0.1875q0.5 0 0.96875 0.28125l-0.453125 1.28125q-0.375 -0.25 -0.6875 -0.25q-0.3125 0 -0.53125 0.171875q-0.203125 0.171875 -0.328125 0.625q-0.109375 0.4375 -0.109375 1.84375l0 1.703125z" fill-rule="nonzero"/><path fill="#000000" fill-opacity="0.0" d="m89.062996 104.72441l40.724403 0l0 24.377945l-40.724403 0z" fill-rule="evenodd"/><path fill="#000000" d="m99.35987 123.09191q-0.625 -1.34375 -0.625 -2.765625q0 -0.953125 0.25 -1.765625q0.25 -0.8125 0.765625 -1.609375q0.328125 -0.53125 1.0625 -1.375l0.5625 0q-0.46875 0.484375 -0.984375 1.375q-0.5 0.890625 -0.734375 1.75q-0.21875 0.84375 -0.21875 1.71875q0 1.28125 0.4375 2.671875l-0.515625 0zm1.9296875 -3.5625q0 -0.734375 0.21875 -1.484375q0.21875 -0.75 0.484375 -1.1875q0.265625 -0.453125 0.546875 -0.703125q0.296875 -0.265625 0.5625 -0.375q0.28125 -0.125 0.609375 -0.125q0.65625 0 1.09375 0.484375q0.453125 0.484375 0.453125 1.40625q0 0.953125 -0.3125 1.890625q-0.359375 1.09375 -1.0 1.640625q-0.484375 0.421875 -1.125 0.421875q-0.640625 0 -1.09375 -0.5q-0.4375 -0.515625 -0.4375 -1.46875zm0.6875 0.171875q0 0.53125 0.171875 0.828125q0.25 0.40625 0.71875 0.40625q0.40625 0 0.734375 -0.375q0.484375 -0.515625 0.734375 -1.515625q0.25 -1.015625 0.25 -1.65625q0 -0.625 -0.25 -0.890625q-0.234375 -0.28125 -0.609375 -0.28125q-0.28125 0 -0.53125 0.15625q-0.25 0.140625 -0.46875 0.484375q-0.3125 0.5 -0.546875 1.484375q-0.203125 0.84375 -0.203125 1.359375zm3.6367188 1.703125l0.171875 -0.796875l0.796875 0l-0.140625 0.6875q-0.140625 0.640625 -0.421875 0.921875q-0.265625 0.296875 -0.65625 0.34375l0.078125 -0.3125q0.453125 -0.125 0.609375 -0.84375l-0.4375 0zm4.5703125 -1.875q0 -0.734375 0.21875 -1.484375q0.21875 -0.75 0.484375 -1.1875q0.265625 -0.453125 0.546875 -0.703125q0.296875 -0.265625 0.5625 -0.375q0.28125 -0.125 0.609375 -0.125q0.65625 0 1.09375 0.484375q0.453125 0.484375 0.453125 1.40625q0 0.953125 -0.3125 1.890625q-0.359375 1.09375 -1.0 1.640625q-0.484375 0.421875 -1.125 0.421875q-0.640625 0 -1.09375 -0.5q-0.4375 -0.515625 -0.4375 -1.46875zm0.6875 0.171875q0 0.53125 0.171875 0.828125q0.25 0.40625 0.71875 0.40625q0.40625 0 0.734375 -0.375q0.484375 -0.515625 0.734375 -1.515625q0.25 -1.015625 0.25 -1.65625q0 -0.625 -0.25 -0.890625q-0.234375 -0.28125 -0.609375 -0.28125q-0.28125 0 -0.53125 0.15625q-0.25 0.140625 -0.46875 0.484375q-0.3125 0.5 -0.546875 1.484375q-0.203125 0.84375 -0.203125 1.359375zm4.7929688 -4.125q0.609375 1.34375 0.609375 2.765625q0 0.9375 -0.25 1.75q-0.25 0.8125 -0.75 1.625q-0.34375 0.53125 -1.078125 1.375l-0.546875 0q0.453125 -0.5 0.953125 -1.390625q0.515625 -0.875 0.75 -1.734375q0.234375 -0.859375 0.234375 -1.71875q0 -1.296875 -0.453125 -2.671875l0.53125 0z" fill-rule="nonzero"/><path fill="#000000" fill-opacity="0.0" d="m170.32283 208.69817l0 0c0 -59.64676 48.353256 -108.0 108.000015 -108.0l0 0c28.643372 0 56.113586 11.378532 76.36752 31.632462c20.253937 20.253937 31.632477 47.72415 31.632477 76.36754l0 0c0 59.646744 -48.35327 107.999985 -108.0 107.999985l0 0c-59.64676 0 -108.000015 -48.35324 -108.000015 -107.999985z" fill-rule="evenodd"/><path stroke="#000000" stroke-width="1.0" stroke-linejoin="round" stroke-linecap="butt" stroke-dasharray="4.0,3.0" d="m170.32283 208.69817l0 0c0 -59.64676 48.353256 -108.0 108.000015 -108.0l0 0c28.643372 0 56.113586 11.378532 76.36752 31.632462c20.253937 20.253937 31.632477 47.72415 31.632477 76.36754l0 0c0 59.646744 -48.35327 107.999985 -108.0 107.999985l0 0c-59.64676 0 -108.000015 -48.35324 -108.000015 -107.999985z" fill-rule="evenodd"/><path fill="#000000" fill-opacity="0.0" d="m170.32283 208.69817l216.00002 0" fill-rule="evenodd"/><path stroke="#000000" stroke-width="1.0" stroke-linejoin="round" stroke-linecap="butt" d="m170.32283 208.69817l216.00002 0" fill-rule="evenodd"/><path fill="#000000" fill-opacity="0.0" d="m278.32285 100.698166l0 215.99998" fill-rule="evenodd"/><path stroke="#000000" stroke-width="1.0" stroke-linejoin="round" stroke-linecap="butt" d="m278.32285 100.698166l0 215.99998" fill-rule="evenodd"/><path fill="#000000" fill-opacity="0.0" d="m170.3237 208.6844l55.22792 -93.54291l105.544174 0.030776978l55.227905 93.57512l-55.227905 93.54289l-105.544174 -0.030761719z" fill-rule="evenodd"/><path stroke="#e06666" stroke-width="1.0" stroke-linejoin="round" stroke-linecap="butt" d="m170.3237 208.6844l55.22792 -93.54291l105.544174 0.030776978l55.227905 93.57512l-55.227905 93.54289l-105.544174 -0.030761719z" fill-rule="evenodd"/><path fill="#000000" fill-opacity="0.0" d="m330.18372 114.72441l0 0c0 -59.646755 48.35327 -108.0 108.0 -108.0l0 0c28.643402 0 56.113617 11.37854 76.36755 31.632467c20.253906 20.25393 31.632446 47.724155 31.632446 76.36754l0 0c0 59.64676 -48.35324 108.0 -108.0 108.0l0 0c-59.64673 0 -108.0 -48.35324 -108.0 -108.0z" fill-rule="evenodd"/><path stroke="#000000" stroke-width="1.0" stroke-linejoin="round" stroke-linecap="butt" stroke-dasharray="4.0,3.0" d="m330.18372 114.72441l0 0c0 -59.646755 48.35327 -108.0 108.0 -108.0l0 0c28.643402 0 56.113617 11.37854 76.36755 31.632467c20.253906 20.25393 31.632446 47.724155 31.632446 76.36754l0 0c0 59.64676 -48.35324 108.0 -108.0 108.0l0 0c-59.64673 0 -108.0 -48.35324 -108.0 -108.0z" fill-rule="evenodd"/><path fill="#000000" fill-opacity="0.0" d="m330.18372 114.72441l216.0 0" fill-rule="evenodd"/><path stroke="#000000" stroke-width="1.0" stroke-linejoin="round" stroke-linecap="butt" d="m330.18372 114.72441l216.0 0" fill-rule="evenodd"/><path fill="#000000" fill-opacity="0.0" d="m438.18372 6.7244096l0 216.0" fill-rule="evenodd"/><path stroke="#000000" stroke-width="1.0" stroke-linejoin="round" stroke-linecap="butt" d="m438.18372 6.7244096l0 216.0" fill-rule="evenodd"/><path fill="#000000" fill-opacity="0.0" d="m330.1846 114.71065l55.227905 -93.54291l105.54419 0.030778885l55.227875 93.57512l-55.227875 93.54291l-105.54419 -0.030776978z" fill-rule="evenodd"/><path stroke="#e06666" stroke-width="1.0" stroke-linejoin="round" stroke-linecap="butt" d="m330.1846 114.71065l55.227905 -93.54291l105.54419 0.030778885l55.227875 93.57512l-55.227875 93.54291l-105.54419 -0.030776978z" fill-rule="evenodd"/><path fill="#000000" fill-opacity="0.0" d="m490.04462 208.69817l0 0c0 -59.64676 48.35327 -108.0 108.0 -108.0l0 0c28.643372 0 56.113586 11.378532 76.36755 31.632462c20.253906 20.253937 31.632446 47.72415 31.632446 76.36754l0 0c0 59.646744 -48.35327 107.999985 -108.0 107.999985l0 0c-59.64673 0 -108.0 -48.35324 -108.0 -107.999985z" fill-rule="evenodd"/><path stroke="#000000" stroke-width="1.0" stroke-linejoin="round" stroke-linecap="butt" stroke-dasharray="4.0,3.0" d="m490.04462 208.69817l0 0c0 -59.64676 48.35327 -108.0 108.0 -108.0l0 0c28.643372 0 56.113586 11.378532 76.36755 31.632462c20.253906 20.253937 31.632446 47.72415 31.632446 76.36754l0 0c0 59.646744 -48.35327 107.999985 -108.0 107.999985l0 0c-59.64673 0 -108.0 -48.35324 -108.0 -107.999985z" fill-rule="evenodd"/><path fill="#000000" fill-opacity="0.0" d="m490.04462 208.69817l216.0 0" fill-rule="evenodd"/><path stroke="#000000" stroke-width="1.0" stroke-linejoin="round" stroke-linecap="butt" d="m490.04462 208.69817l216.0 0" fill-rule="evenodd"/><path fill="#000000" fill-opacity="0.0" d="m598.0446 100.698166l0 215.99998" fill-rule="evenodd"/><path stroke="#000000" stroke-width="1.0" stroke-linejoin="round" stroke-linecap="butt" d="m598.0446 100.698166l0 215.99998" fill-rule="evenodd"/><path fill="#000000" fill-opacity="0.0" d="m490.0455 208.6844l55.227875 -93.54291l105.54419 0.030776978l55.227905 93.57512l-55.227905 93.54289l-105.54419 -0.030761719z" fill-rule="evenodd"/><path stroke="#e06666" stroke-width="1.0" stroke-linejoin="round" stroke-linecap="butt" d="m490.0455 208.6844l55.227875 -93.54291l105.54419 0.030776978l55.227905 93.57512l-55.227905 93.54289l-105.54419 -0.030761719z" fill-rule="evenodd"/><path fill="#000000" fill-opacity="0.0" d="m119.1601 115.56956l159.52756 93.5118" fill-rule="evenodd"/><path stroke="#9900ff" stroke-width="1.0" stroke-linejoin="round" stroke-linecap="butt" d="m119.1601 115.56956l154.35132 90.47761" fill-rule="evenodd"/><path fill="#9900ff" stroke="#9900ff" stroke-width="1.0" stroke-linecap="butt" d="m272.67612 207.47212l4.750366 0.86994934l-3.079773 -3.7198792z" fill-rule="evenodd"/><path fill="#000000" fill-opacity="0.0" d="m278.4895 207.77428l159.71652 -93.13386" fill-rule="evenodd"/><path stroke="#9900ff" stroke-width="1.0" stroke-linejoin="round" stroke-linecap="butt" d="m278.4895 207.77428l154.53339 -90.11146" fill-rule="evenodd"/><path fill="#9900ff" stroke="#9900ff" stroke-width="1.0" stroke-linecap="butt" d="m433.85492 119.08968l3.0882263 -3.7128525l-4.752289 0.85912323z" fill-rule="evenodd"/><path fill="#000000" fill-opacity="0.0" d="m438.18372 115.56956l159.52759 93.5118" fill-rule="evenodd"/><path stroke="#9900ff" stroke-width="1.0" stroke-linejoin="round" stroke-linecap="butt" d="m438.18372 115.56956l154.35132 90.47761" fill-rule="evenodd"/><path fill="#9900ff" stroke="#9900ff" stroke-width="1.0" stroke-linecap="butt" d="m591.69977 207.47212l4.750305 0.86994934l-3.079773 -3.7198792z" fill-rule="evenodd"/><path fill="#000000" fill-opacity="0.0" d="m226.0328 114.640686l0 187.1181" fill-rule="evenodd"/><path stroke="#9900ff" stroke-width="1.0" stroke-linejoin="round" stroke-linecap="butt" stroke-dasharray="1.0,3.0" d="m226.0328 114.640686l0 187.1181" fill-rule="evenodd"/><path fill="#000000" fill-opacity="0.0" d="m229.19685 95.66929l54.645676 0l0 18.047249l-54.645676 0z" fill-rule="evenodd"/><path fill="#000000" d="m239.82185 112.34929l-1.09375 0l0 -4.15625l1.015625 0l0 0.59375q0.265625 -0.421875 0.46875 -0.546875q0.21875 -0.140625 0.484375 -0.140625q0.375 0 0.71875 0.21875l-0.34375 0.953125q-0.28125 -0.1875 -0.515625 -0.1875q-0.234375 0 -0.390625 0.140625q-0.15625 0.125 -0.25 0.453125q-0.09375 0.328125 -0.09375 1.390625l0 1.28125zm7.8984375 -2.921875l-1.078125 0.1875q-0.046875 -0.3125 -0.25 -0.46875q-0.1875 -0.171875 -0.5 -0.171875q-0.40625 0 -0.65625 0.28125q-0.234375 0.28125 -0.234375 0.9375q0 0.75 0.234375 1.0625q0.25 0.296875 0.671875 0.296875q0.3125 0 0.515625 -0.171875q0.203125 -0.1875 0.28125 -0.625l1.078125 0.1875q-0.171875 0.734375 -0.65625 1.125q-0.46875 0.375 -1.265625 0.375q-0.90625 0 -1.453125 -0.578125q-0.546875 -0.578125 -0.546875 -1.59375q0 -1.015625 0.546875 -1.59375q0.546875 -0.578125 1.46875 -0.578125q0.765625 0 1.203125 0.328125q0.453125 0.328125 0.640625 1.0zm0.58984375 0.78125q0 -0.546875 0.265625 -1.046875q0.265625 -0.515625 0.75 -0.78125q0.5 -0.28125 1.109375 -0.28125q0.953125 0 1.546875 0.625q0.609375 0.609375 0.609375 1.53125q0 0.953125 -0.609375 1.578125q-0.609375 0.609375 -1.53125 0.609375q-0.578125 0 -1.09375 -0.25q-0.515625 -0.265625 -0.78125 -0.765625q-0.265625 -0.5 -0.265625 -1.21875zm1.125 0.0625q0 0.625 0.28125 0.953125q0.296875 0.328125 0.734375 0.328125q0.421875 0 0.703125 -0.328125q0.296875 -0.328125 0.296875 -0.953125q0 -0.609375 -0.296875 -0.9375q-0.28125 -0.328125 -0.703125 -0.328125q-0.4375 0 -0.734375 0.328125q-0.28125 0.328125 -0.28125 0.9375zm3.6210938 0.890625l1.109375 -0.171875q0.0625 0.328125 0.28125 0.5q0.21875 0.15625 0.59375 0.15625q0.4375 0 0.640625 -0.15625q0.15625 -0.109375 0.15625 -0.296875q0 -0.125 -0.078125 -0.203125q-0.09375 -0.078125 -0.375 -0.140625q-1.328125 -0.296875 -1.6875 -0.53125q-0.484375 -0.34375 -0.484375 -0.9375q0 -0.546875 0.421875 -0.90625q0.421875 -0.375 1.328125 -0.375q0.84375 0 1.2499847 0.28125q0.421875 0.28125 0.578125 0.828125l-1.0312347 0.1875q-0.0625 -0.25 -0.25 -0.375q-0.1875 -0.125 -0.53125 -0.125q-0.4375 0 -0.625 0.125q-0.125 0.078125 -0.125 0.21875q0 0.109375 0.109375 0.203125q0.15625 0.109375 1.03125 0.3125q0.87498474 0.1875 1.2187347 0.484375q0.34375 0.28125 0.34375 0.8125q0 0.5625 -0.484375 0.984375q-0.46873474 0.40625 -1.4062347 0.40625q-0.84375 0 -1.34375 -0.34375q-0.484375 -0.34375 -0.640625 -0.9375zm10.54686 -3.140625l-1.0625 0.125q-0.046875 -0.328125 -0.21875 -0.484375q-0.15625 -0.15625 -0.40625 -0.15625q-0.359375 0 -0.59375 0.3125q-0.234375 0.3125 -0.296875 1.296875q0.40625 -0.484375 1.015625 -0.484375q0.6875 0 1.171875 0.53125q0.5 0.515625 0.5 1.34375q0 0.875 -0.515625 1.40625q-0.515625 0.53125 -1.328125 0.53125q-0.875 0 -1.4375 -0.671875q-0.546875 -0.671875 -0.546875 -2.203125q0 -1.578125 0.578125 -2.265625q0.578125 -0.703125 1.515625 -0.703125q0.65625 0 1.078125 0.375q0.421875 0.359375 0.546875 1.046875zm-2.484375 2.390625q0 0.546875 0.234375 0.84375q0.25 0.28125 0.5625 0.28125q0.3125 0 0.515625 -0.234375q0.203125 -0.25 0.203125 -0.78125q0 -0.5625 -0.21875 -0.8125q-0.21875 -0.265625 -0.546875 -0.265625q-0.3125 0 -0.53125 0.25q-0.21875 0.234375 -0.21875 0.71875zm5.0742188 -3.8125q0.828125 0 1.296875 0.59375q0.5625 0.703125 0.5625 2.328125q0 1.625 -0.5625 2.34375q-0.46875 0.578125 -1.296875 0.578125q-0.84375 0 -1.359375 -0.640625q-0.5 -0.640625 -0.5 -2.296875q0 -1.609375 0.5625 -2.328125q0.453125 -0.578125 1.296875 -0.578125zm0 0.90625q-0.203125 0 -0.359375 0.125q-0.15625 0.125 -0.25 0.453125q-0.109375 0.4375 -0.109375 1.4375q0 1.015625 0.09375 1.390625q0.109375 0.375 0.265625 0.5q0.15625 0.125 0.359375 0.125q0.1875 0 0.34375 -0.125q0.15625 -0.125 0.25 -0.453125q0.109375 -0.421875 0.109375 -1.4375q0 -1.0 -0.109375 -1.375q-0.09375 -0.390625 -0.25 -0.515625q-0.15625 -0.125 -0.34375 -0.125zm2.3554688 0.484375q0 -0.6875 0.359375 -1.078125q0.375 -0.390625 0.984375 -0.390625q0.625 0 0.984375 0.390625q0.375 0.390625 0.375 1.078125q0 0.6875 -0.375 1.078125q-0.359375 0.390625 -0.984375 0.390625q-0.609375 0 -0.984375 -0.375q-0.359375 -0.390625 -0.359375 -1.09375zm0.8125 0.015625q0 0.421875 0.140625 0.609375q0.15625 0.171875 0.390625 0.171875q0.21875 0 0.359375 -0.171875q0.15625 -0.1875 0.15625 -0.609375q0 -0.4375 -0.15625 -0.609375q-0.140625 -0.1875 -0.359375 -0.1875q-0.234375 0 -0.390625 0.1875q-0.140625 0.171875 -0.140625 0.609375z" fill-rule="nonzero"/><path fill="#000000" fill-opacity="0.0" d="m298.1811 132.26747l-0.03149414 50.614166l-30.803131 0l0.03149414 -50.614166z" fill-rule="evenodd"/><path fill="#000000" d="m281.49448 142.89247l7.019043E-4 -1.09375l4.15625 0l-6.4086914E-4 1.015625l-0.59375 0q0.4217224 0.265625 0.5465698 0.46875q0.14050293 0.21875 0.14035034 0.484375q-2.4414062E-4 0.375 -0.21920776 0.71875l-0.9529114 -0.34375q0.1876831 -0.28125 0.18780518 -0.515625q1.5258789E-4 -0.234375 -0.14038086 -0.390625q-0.12487793 -0.15625 -0.4529724 -0.25q-0.32806396 -0.09375 -1.390564 -0.09375l-1.28125 0zm1.1850891 3.8984222l0.1711731 1.109375q-0.32815552 0.0625 -0.5001526 0.28125q-0.15640259 0.21875 -0.15664673 0.59375q-2.746582E-4 0.4375 0.15585327 0.640625q0.10928345 0.15625 0.29678345 0.15625q0.125 0 0.20318604 -0.078125q0.078186035 -0.09375 0.14083862 -0.375q0.29769897 -1.328125 0.5323181 -1.6875q0.34405518 -0.484375 0.9378052 -0.484375q0.546875 0 0.90597534 0.421875q0.37475586 0.421875 0.37417603 1.328125q-5.187988E-4 0.84375 -0.28201294 1.25q-0.28152466 0.421875 -0.8284912 0.578125l-0.18685913 -1.03125q0.25003052 -0.0625 0.3751526 -0.25q0.12512207 -0.1875 0.1253357 -0.53125q2.746582E-4 -0.4375 -0.12463379 -0.625q-0.07803345 -0.125 -0.21865845 -0.125q-0.109375 0 -0.20318604 0.109375q-0.10946655 0.15625 -0.31314087 1.03125q-0.18804932 0.875 -0.48513794 1.21875q-0.28146362 0.34375 -0.8127136 0.34375q-0.5625 0 -0.9840698 -0.484375q-0.40597534 -0.46875 -0.4053955 -1.40625q5.493164E-4 -0.84375 0.3446045 -1.34375q0.34405518 -0.484375 0.9378967 -0.640625zm3.5282288 4.8398438l1.015625 0l-6.713867E-4 1.09375l-1.015625 0l6.713867E-4 -1.09375zm-4.71875 0l4.15625 0l-6.713867E-4 1.09375l-4.15625 0l6.713867E-4 -1.09375zm-0.0037231445 5.9882812l6.713867E-4 -1.09375l2.125 0q0.671875 0 0.85943604 -0.078125q0.20315552 -0.0625 0.31262207 -0.21875q0.10949707 -0.15625 0.10961914 -0.375q1.8310547E-4 -0.296875 -0.1559143 -0.53125q-0.15612793 -0.21875 -0.4216919 -0.296875q-0.24993896 -0.078125 -0.95306396 -0.078125l-1.875 0l6.713867E-4 -1.109375l4.15625 0l-6.4086914E-4 1.03125l-0.609375 0q0.7027893 0.53125 0.7022705 1.359375q-2.1362305E-4 0.359375 -0.14102173 0.65625q-0.1251831 0.3125 -0.32839966 0.46875q-0.20324707 0.15625 -0.4689026 0.203125q-0.25003052 0.0625 -0.7344055 0.0625l-2.578125 0zm4.323883 6.828125l-0.12432861 -1.0625q0.328125 -0.046875 0.48449707 -0.21875q0.15634155 -0.15625 0.15649414 -0.40625q2.4414062E-4 -0.359375 -0.3121338 -0.59375q-0.3123474 -0.234375 -1.2966919 -0.296875q0.48413086 0.40625 0.48376465 1.015625q-4.272461E-4 0.6875 -0.5319824 1.171875q-0.5159302 0.5 -1.3440552 0.5q-0.875 0 -1.4059448 -0.515625q-0.5309143 -0.515625 -0.530426 -1.328125q5.493164E-4 -0.875 0.6727905 -1.4375q0.6722107 -0.546875 2.2034607 -0.546875q1.578125 0 2.2652588 0.578125q0.7027588 0.578125 0.70217896 1.515625q-3.9672852E-4 0.65625 -0.3756714 1.078125q-0.35964966 0.421875 -1.0472107 0.546875zm-2.3890686 -2.484375q-0.546875 0 -0.8439026 0.234375q-0.2814026 0.25 -0.2816162 0.5625q-1.8310547E-4 0.3125 0.23406982 0.515625q0.24987793 0.203125 0.7811279 0.203125q0.5625 0 0.8126221 -0.21875q0.2657776 -0.21875 0.2659607 -0.546875q2.1362305E-4 -0.3125 -0.2496643 -0.53125q-0.23422241 -0.21875 -0.7185974 -0.21875zm3.8093262 5.0742188q-5.187988E-4 0.828125 -0.59454346 1.296875q-0.7034912 0.5625 -2.3284912 0.5625q-1.625 0 -2.3433838 -0.5625q-0.57785034 -0.46875 -0.57733154 -1.296875q5.187988E-4 -0.84375 0.6414795 -1.359375q0.6409302 -0.5 2.2971802 -0.5q1.609375 0 2.3277893 0.5625q0.5778198 0.453125 0.577301 1.296875zm-0.90625 0q1.2207031E-4 -0.203125 -0.12478638 -0.359375q-0.12487793 -0.15625 -0.4529724 -0.25q-0.43740845 -0.109375 -1.4374084 -0.109375q-1.015625 0 -1.390686 0.09375q-0.37506104 0.109375 -0.5001831 0.265625q-0.12509155 0.15625 -0.12521362 0.359375q-1.2207031E-4 0.1875 0.12478638 0.34375q0.12490845 0.15625 0.4529724 0.25q0.42181396 0.109375 1.437439 0.109375q1.0 0 1.375061 -0.109375q0.39068604 -0.09375 0.5157776 -0.25q0.12509155 -0.15625 0.12521362 -0.34375zm-0.48583984 2.3554688q0.6875 0 1.0779114 0.359375q0.39038086 0.375 0.39001465 0.984375q-3.9672852E-4 0.625 -0.39123535 0.984375q-0.39086914 0.375 -1.0783691 0.375q-0.6875 0 -1.0778809 -0.375q-0.39041138 -0.359375 -0.39001465 -0.984375q3.6621094E-4 -0.609375 0.37561035 -0.984375q0.39083862 -0.359375 1.0939636 -0.359375zm-0.016143799 0.8125q-0.421875 0 -0.60943604 0.140625q-0.17199707 0.15625 -0.17211914 0.390625q-1.5258789E-4 0.21875 0.17163086 0.359375q0.18740845 0.15625 0.60928345 0.15625q0.4375 0 0.60946655 -0.15625q0.18759155 -0.140625 0.18774414 -0.359375q1.2207031E-4 -0.234375 -0.18725586 -0.390625q-0.17181396 -0.140625 -0.60931396 -0.140625z" fill-rule="nonzero"/><path fill="#000000" fill-opacity="0.0" d="m271.15485 201.43307l114.96063 0l0 35.08661l-114.96063 0z" fill-rule="evenodd"/><path fill="#000000" d="m281.45172 219.80057q-0.625 -1.34375 -0.625 -2.765625q0 -0.953125 0.25 -1.765625q0.25 -0.8125 0.765625 -1.609375q0.328125 -0.53125 1.0625 -1.375l0.5625 0q-0.46875 0.484375 -0.984375 1.375q-0.5 0.890625 -0.734375 1.75q-0.21875 0.84375 -0.21875 1.71875q0 1.28125 0.4375 2.671875l-0.515625 0zm1.6328125 -1.6875l0.875 -4.15625l0.625 0l-0.1875 0.859375q0.328125 -0.484375 0.625 -0.71875q0.3125 -0.234375 0.640625 -0.234375q0.203125 0 0.515625 0.15625l-0.296875 0.65625q-0.171875 -0.125 -0.390625 -0.125q-0.375 0 -0.765625 0.421875q-0.390625 0.40625 -0.609375 1.46875l-0.359375 1.671875l-0.671875 0zm6.9023438 -0.921875l0 -1.578125l-1.5625 0l0 -0.65625l1.5625 0l0 -1.5625l0.65625 0l0 1.5625l1.5625 0l0 0.65625l-1.5625 0l0 1.578125l-0.65625 0zm4.8789062 0.921875l0.875 -4.15625l0.625 0l-0.1875 0.859375q0.328125 -0.484375 0.625 -0.71875q0.3125 -0.234375 0.640625 -0.234375q0.203125 0 0.515625 0.15625l-0.296875 0.65625q-0.171875 -0.125 -0.390625 -0.125q-0.375 0 -0.765625 0.421875q-0.390625 0.40625 -0.609375 1.46875l-0.359375 1.671875l-0.671875 0zm7.7460938 -1.515625l0.71875 0.078125q-0.265625 0.78125 -0.765625 1.15625q-0.484375 0.375 -1.109375 0.375q-0.671875 0 -1.09375 -0.4375q-0.421875 -0.4375 -0.421875 -1.21875q0 -0.6875 0.265625 -1.34375q0.265625 -0.65625 0.765625 -1.0q0.515625 -0.34375 1.15625 -0.34375q0.671875 0 1.0625 0.390625q0.390625 0.375 0.390625 0.984375l-0.703125 0.046875q0 -0.390625 -0.234375 -0.609375q-0.21875 -0.21875 -0.578125 -0.21875q-0.4375 0 -0.75 0.265625q-0.3125 0.265625 -0.484375 0.8125q-0.171875 0.546875 -0.171875 1.0625q0 0.53125 0.234375 0.796875q0.234375 0.265625 0.578125 0.265625q0.34375 0 0.65625 -0.265625q0.3125 -0.265625 0.484375 -0.796875zm1.265625 -0.0625q0 -1.21875 0.71875 -2.015625q0.59375 -0.65625 1.546875 -0.65625q0.75 0 1.203125 0.46875q0.46875 0.46875 0.46875 1.265625q0 0.71875 -0.296875 1.34375q-0.28125 0.609375 -0.828125 0.9375q-0.53125 0.328125 -1.109375 0.328125q-0.484375 0 -0.890625 -0.203125q-0.390625 -0.21875 -0.609375 -0.59375q-0.203125 -0.375 -0.203125 -0.875zm0.703125 -0.0625q0 0.578125 0.28125 0.890625q0.28125 0.296875 0.71875 0.296875q0.234375 0 0.453125 -0.09375q0.21875 -0.09375 0.40625 -0.28125q0.203125 -0.1875 0.328125 -0.421875q0.140625 -0.25 0.21875 -0.515625q0.125 -0.390625 0.125 -0.75q0 -0.5625 -0.28125 -0.875q-0.28125 -0.3125 -0.71875 -0.3125q-0.328125 0 -0.609375 0.171875q-0.265625 0.15625 -0.484375 0.46875q-0.21875 0.296875 -0.328125 0.703125q-0.109375 0.390625 -0.109375 0.71875zm3.6835938 0.21875l0.71875 -0.046875q0 0.3125 0.09375 0.53125q0.09375 0.203125 0.34375 0.34375q0.25 0.140625 0.578125 0.140625q0.46875 0 0.703125 -0.1875q0.234375 -0.1875 0.234375 -0.4375q0 -0.1875 -0.140625 -0.359375q-0.140625 -0.15625 -0.703125 -0.390625q-0.5625 -0.25 -0.71875 -0.34375q-0.25 -0.15625 -0.390625 -0.375q-0.125 -0.21875 -0.125 -0.5q0 -0.5 0.390625 -0.84375q0.390625 -0.359375 1.09375 -0.359375q0.78125 0 1.1875 0.375q0.40625 0.359375 0.421875 0.9375l-0.6875 0.046875q-0.015625 -0.375 -0.265625 -0.59375q-0.25 -0.21875 -0.71875 -0.21875q-0.359375 0 -0.5625 0.171875q-0.203125 0.171875 -0.203125 0.359375q0 0.203125 0.171875 0.34375q0.125 0.109375 0.609375 0.3125q0.8125 0.359375 1.015625 0.5625q0.34375 0.328125 0.34375 0.78125q0 0.3125 -0.1875 0.609375q-0.1875 0.296875 -0.578125 0.484375q-0.390625 0.171875 -0.921875 0.171875q-0.71875 0 -1.21875 -0.359375q-0.5 -0.359375 -0.484375 -1.15625zm7.5039062 -1.90625q0.296875 -0.234375 0.59375 -0.359375q0.296875 -0.125 0.578125 -0.125q0.65625 0 1.078125 0.453125q0.4375 0.4375 0.4375 1.1875q0 0.96875 -0.640625 1.671875q-0.546875 0.59375 -1.328125 0.59375q-0.703125 0 -1.1875 -0.515625q-0.46875 -0.53125 -0.46875 -1.484375q0 -0.875 0.296875 -1.796875q0.234375 -0.703125 0.578125 -1.15625q0.359375 -0.46875 0.734375 -0.671875q0.390625 -0.21875 0.890625 -0.21875q0.578125 0 0.953125 0.375q0.375 0.359375 0.421875 1.03125l-0.65625 0.0625q-0.0625 -0.46875 -0.265625 -0.671875q-0.203125 -0.203125 -0.515625 -0.203125q-0.3125 0 -0.640625 0.25q-0.3125 0.234375 -0.546875 0.71875q-0.21875 0.484375 -0.3125 0.859375zm-0.25 1.71875q0 0.484375 0.296875 0.8125q0.3125 0.328125 0.6875 0.328125q0.265625 0 0.5625 -0.203125q0.296875 -0.203125 0.5 -0.609375q0.21875 -0.40625 0.21875 -0.8125q0 -0.53125 -0.296875 -0.84375q-0.28125 -0.3125 -0.6875 -0.3125q-0.46875 0 -0.875 0.46875q-0.40625 0.453125 -0.40625 1.171875zm3.6523438 -0.265625q0 -0.734375 0.21875 -1.484375q0.21875 -0.75 0.484375 -1.1875q0.265625 -0.453125 0.546875 -0.703125q0.296875 -0.265625 0.5625 -0.375q0.28125 -0.125 0.609375 -0.125q0.65625 0 1.09375 0.484375q0.453125 0.484375 0.453125 1.40625q0 0.953125 -0.3125 1.890625q-0.359375 1.09375 -1.0 1.640625q-0.484375 0.421875 -1.125 0.421875q-0.640625 0 -1.09375 -0.5q-0.4375 -0.515625 -0.4375 -1.46875zm0.6875 0.171875q0 0.53125 0.171875 0.828125q0.25 0.40625 0.71875 0.40625q0.40625 0 0.734375 -0.375q0.484375 -0.515625 0.734375 -1.515625q0.25 -1.015625 0.25 -1.65625q0 -0.625 -0.25 -0.890625q-0.234375 -0.28125 -0.609375 -0.28125q-0.28125 0 -0.53125 0.15625q-0.25 0.140625 -0.46875 0.484375q-0.3125 0.5 -0.546875 1.484375q-0.203125 0.84375 -0.203125 1.359375zm3.7617188 -2.46875q0 -0.3125 0.15625 -0.703125q0.15625 -0.390625 0.515625 -0.671875q0.359375 -0.28125 0.84375 -0.28125q0.53125 0 0.875 0.34375q0.34375 0.34375 0.34375 0.875q0 0.59375 -0.390625 1.15625q-0.390625 0.5625 -1.078125 0.5625q-0.40625 0 -0.703125 -0.15625q-0.296875 -0.15625 -0.4375 -0.421875q-0.125 -0.265625 -0.125 -0.703125zm0.578125 -0.015625q0 0.359375 0.125 0.53125q0.1875 0.265625 0.5 0.265625q0.21875 0 0.4375 -0.140625q0.21875 -0.15625 0.359375 -0.453125q0.15625 -0.3125 0.15625 -0.625q0 -0.3125 -0.1875 -0.5q-0.1875 -0.203125 -0.453125 -0.203125q-0.25 0 -0.46875 0.171875q-0.21875 0.15625 -0.34375 0.453125q-0.125 0.28125 -0.125 0.5zm2.21875 4.1875l0.171875 -0.796875l0.796875 0l-0.140625 0.6875q-0.140625 0.640625 -0.421875 0.921875q-0.265625 0.296875 -0.65625 0.34375l0.078125 -0.3125q0.453125 -0.125 0.609375 -0.84375l-0.4375 0zm4.3828125 -1.71875l0.140625 -0.703125l2.15625 0l-0.140625 0.703125l-2.15625 0zm2.5546875 1.71875l0.875 -4.15625l0.625 0l-0.1875 0.859375q0.328125 -0.484375 0.625 -0.71875q0.3125 -0.234375 0.640625 -0.234375q0.203125 0 0.515625 0.15625l-0.296875 0.65625q-0.171875 -0.125 -0.390625 -0.125q-0.375 0 -0.765625 0.421875q-0.390625 0.40625 -0.609375 1.46875l-0.359375 1.671875l-0.671875 0zm2.7265625 -1.421875l0.71875 -0.046875q0 0.3125 0.09375 0.53125q0.09375 0.203125 0.34375 0.34375q0.25 0.140625 0.578125 0.140625q0.46875 0 0.703125 -0.1875q0.234375 -0.1875 0.234375 -0.4375q0 -0.1875 -0.140625 -0.359375q-0.140625 -0.15625 -0.703125 -0.390625q-0.5625 -0.25 -0.71875 -0.34375q-0.25 -0.15625 -0.390625 -0.375q-0.125 -0.21875 -0.125 -0.5q0 -0.5 0.390625 -0.84375q0.390625 -0.359375 1.09375 -0.359375q0.78125 0 1.1875 0.375q0.40625 0.359375 0.421875 0.9375l-0.6875 0.046875q-0.015625 -0.375 -0.265625 -0.59375q-0.25 -0.21875 -0.71875 -0.21875q-0.359375 0 -0.5625 0.171875q-0.203125 0.171875 -0.203125 0.359375q0 0.203125 0.171875 0.34375q0.125 0.109375 0.609375 0.3125q0.8125 0.359375 1.015625 0.5625q0.34375 0.328125 0.34375 0.78125q0 0.3125 -0.1875 0.609375q-0.1875 0.296875 -0.578125 0.484375q-0.390625 0.171875 -0.921875 0.171875q-0.71875 0 -1.21875 -0.359375q-0.5 -0.359375 -0.484375 -1.15625zm4.9375 -3.5l0.171875 -0.8125l0.703125 0l-0.171875 0.8125l-0.703125 0zm-1.03125 4.921875l0.875 -4.15625l0.703125 0l-0.859375 4.15625l-0.71875 0zm1.8085938 0l0.875 -4.15625l0.640625 0l-0.15625 0.734375q0.421875 -0.4375 0.78125 -0.625q0.359375 -0.203125 0.734375 -0.203125q0.515625 0 0.796875 0.28125q0.28125 0.265625 0.28125 0.734375q0 0.21875 -0.09375 0.71875l-0.53125 2.515625l-0.703125 0l0.546875 -2.625q0.078125 -0.390625 0.078125 -0.578125q0 -0.203125 -0.140625 -0.328125q-0.140625 -0.125 -0.40625 -0.125q-0.546875 0 -0.96875 0.390625q-0.421875 0.390625 -0.625 1.328125l-0.40625 1.9375l-0.703125 0zm5.7929688 -3.328125q0.296875 -0.234375 0.59375 -0.359375q0.296875 -0.125 0.578125 -0.125q0.65625 0 1.078125 0.453125q0.4375 0.4375 0.4375 1.1875q0 0.96875 -0.640625 1.671875q-0.546875 0.59375 -1.328125 0.59375q-0.703125 0 -1.1875 -0.515625q-0.46875 -0.53125 -0.46875 -1.484375q0 -0.875 0.296875 -1.796875q0.234375 -0.703125 0.578125 -1.15625q0.359375 -0.46875 0.734375 -0.671875q0.390625 -0.21875 0.890625 -0.21875q0.578125 0 0.953125 0.375q0.375 0.359375 0.421875 1.03125l-0.65625 0.0625q-0.0625 -0.46875 -0.265625 -0.671875q-0.203125 -0.203125 -0.515625 -0.203125q-0.3125 0 -0.640625 0.25q-0.3125 0.234375 -0.546875 0.71875q-0.21875 0.484375 -0.3125 0.859375zm-0.25 1.71875q0 0.484375 0.296875 0.8125q0.3125 0.328125 0.6875 0.328125q0.265625 0 0.5625 -0.203125q0.296875 -0.203125 0.5 -0.609375q0.21875 -0.40625 0.21875 -0.8125q0 -0.53125 -0.296875 -0.84375q-0.28125 -0.3125 -0.6875 -0.3125q-0.46875 0 -0.875 0.46875q-0.40625 0.453125 -0.40625 1.171875zm3.6523438 -0.265625q0 -0.734375 0.21875 -1.484375q0.21875 -0.75 0.484375 -1.1875q0.265625 -0.453125 0.546875 -0.703125q0.296875 -0.265625 0.5625 -0.375q0.28125 -0.125 0.609375 -0.125q0.65625 0 1.09375 0.484375q0.453125 0.484375 0.453125 1.40625q0 0.953125 -0.3125 1.890625q-0.359375 1.09375 -1.0 1.640625q-0.484375 0.421875 -1.125 0.421875q-0.640625 0 -1.09375 -0.5q-0.4375 -0.515625 -0.4375 -1.46875zm0.6875 0.171875q0 0.53125 0.171875 0.828125q0.25 0.40625 0.71875 0.40625q0.40625 0 0.734375 -0.375q0.484375 -0.515625 0.734375 -1.515625q0.25 -1.015625 0.25 -1.65625q0 -0.625 -0.25 -0.890625q-0.234375 -0.28125 -0.609375 -0.28125q-0.28125 0 -0.53125 0.15625q-0.25 0.140625 -0.46875 0.484375q-0.3125 0.5 -0.546875 1.484375q-0.203125 0.84375 -0.203125 1.359375zm3.7617188 -2.46875q0 -0.3125 0.15625 -0.703125q0.15625 -0.390625 0.515625 -0.671875q0.359375 -0.28125 0.84375 -0.28125q0.53125 0 0.875 0.34375q0.34375 0.34375 0.34375 0.875q0 0.59375 -0.390625 1.15625q-0.390625 0.5625 -1.078125 0.5625q-0.40625 0 -0.703125 -0.15625q-0.296875 -0.15625 -0.4375 -0.421875q-0.125 -0.265625 -0.125 -0.703125zm0.578125 -0.015625q0 0.359375 0.125 0.53125q0.1875 0.265625 0.5 0.265625q0.21875 0 0.4375 -0.140625q0.21875 -0.15625 0.359375 -0.453125q0.15625 -0.3125 0.15625 -0.625q0 -0.3125 -0.1875 -0.5q-0.1875 -0.203125 -0.453125 -0.203125q-0.25 0 -0.46875 0.171875q-0.21875 0.15625 -0.34375 0.453125q-0.125 0.28125 -0.125 0.5zm3.375 -1.640625q0.609375 1.34375 0.609375 2.765625q0 0.9375 -0.25 1.75q-0.25 0.8125 -0.75 1.625q-0.34375 0.53125 -1.078125 1.375l-0.546875 0q0.453125 -0.5 0.953125 -1.390625q0.515625 -0.875 0.75 -1.734375q0.234375 -0.859375 0.234375 -1.71875q0 -1.296875 -0.453125 -2.671875l0.53125 0z" fill-rule="nonzero"/><path fill="#000000" d="m281.45172 229.80057q-0.625 -1.34375 -0.625 -2.765625q0 -0.953125 0.25 -1.765625q0.25 -0.8125 0.765625 -1.609375q0.328125 -0.53125 1.0625 -1.375l0.5625 0q-0.46875 0.484375 -0.984375 1.375q-0.5 0.890625 -0.734375 1.75q-0.21875 0.84375 -0.21875 1.71875q0 1.28125 0.4375 2.671875l-0.515625 0zm1.6328125 -1.6875l0.875 -4.15625l0.625 0l-0.1875 0.859375q0.328125 -0.484375 0.625 -0.71875q0.3125 -0.234375 0.640625 -0.234375q0.203125 0 0.515625 0.15625l-0.296875 0.65625q-0.171875 -0.125 -0.390625 -0.125q-0.375 0 -0.765625 0.421875q-0.390625 0.40625 -0.609375 1.46875l-0.359375 1.671875l-0.671875 0zm5.9179688 1.6875q-0.625 -1.34375 -0.625 -2.765625q0 -0.953125 0.25 -1.765625q0.25 -0.8125 0.765625 -1.609375q0.328125 -0.53125 1.0625 -1.375l0.5625 0q-0.46875 0.484375 -0.984375 1.375q-0.5 0.890625 -0.734375 1.75q-0.21875 0.84375 -0.21875 1.71875q0 1.28125 0.4375 2.671875l-0.515625 0zm3.2890625 -1.6875l0.90625 -4.328125q-0.578125 0.46875 -1.640625 0.734375l0.125 -0.640625q0.53125 -0.203125 1.046875 -0.546875q0.515625 -0.34375 0.765625 -0.59375q0.15625 -0.15625 0.296875 -0.375l0.421875 0l-1.203125 5.75l-0.71875 0zm7.03125 -0.921875l0 -1.578125l-1.5625 0l0 -0.65625l1.5625 0l0 -1.5625l0.65625 0l0 1.5625l1.5625 0l0 0.65625l-1.5625 0l0 1.578125l-0.65625 0zm7.7382812 -0.59375l0.71875 0.078125q-0.265625 0.78125 -0.765625 1.15625q-0.484375 0.375 -1.109375 0.375q-0.671875 0 -1.09375 -0.4375q-0.421875 -0.4375 -0.421875 -1.21875q0 -0.6875 0.265625 -1.34375q0.265625 -0.65625 0.765625 -1.0q0.515625 -0.34375 1.15625 -0.34375q0.671875 0 1.0625 0.390625q0.390625 0.375 0.390625 0.984375l-0.703125 0.046875q0 -0.390625 -0.234375 -0.609375q-0.21875 -0.21875 -0.578125 -0.21875q-0.4375 0 -0.75 0.265625q-0.3125 0.265625 -0.484375 0.8125q-0.171875 0.546875 -0.171875 1.0625q0 0.53125 0.234375 0.796875q0.234375 0.265625 0.578125 0.265625q0.34375 0 0.65625 -0.265625q0.3125 -0.265625 0.484375 -0.796875zm1.265625 -0.0625q0 -1.21875 0.71875 -2.015625q0.59375 -0.65625 1.546875 -0.65625q0.75 0 1.203125 0.46875q0.46875 0.46875 0.46875 1.265625q0 0.71875 -0.296875 1.34375q-0.28125 0.609375 -0.828125 0.9375q-0.53125 0.328125 -1.109375 0.328125q-0.484375 0 -0.890625 -0.203125q-0.390625 -0.21875 -0.609375 -0.59375q-0.203125 -0.375 -0.203125 -0.875zm0.703125 -0.0625q0 0.578125 0.28125 0.890625q0.28125 0.296875 0.71875 0.296875q0.234375 0 0.453125 -0.09375q0.21875 -0.09375 0.40625 -0.28125q0.203125 -0.1875 0.328125 -0.421875q0.140625 -0.25 0.21875 -0.515625q0.125 -0.390625 0.125 -0.75q0 -0.5625 -0.28125 -0.875q-0.28125 -0.3125 -0.71875 -0.3125q-0.328125 0 -0.609375 0.171875q-0.265625 0.15625 -0.484375 0.46875q-0.21875 0.296875 -0.328125 0.703125q-0.109375 0.390625 -0.109375 0.71875zm3.6835938 0.21875l0.71875 -0.046875q0 0.3125 0.09375 0.53125q0.09375 0.203125 0.34375 0.34375q0.25 0.140625 0.578125 0.140625q0.46875 0 0.703125 -0.1875q0.234375 -0.1875 0.234375 -0.4375q0 -0.1875 -0.140625 -0.359375q-0.140625 -0.15625 -0.703125 -0.390625q-0.5625 -0.25 -0.71875 -0.34375q-0.25 -0.15625 -0.390625 -0.375q-0.125 -0.21875 -0.125 -0.5q0 -0.5 0.390625 -0.84375q0.390625 -0.359375 1.09375 -0.359375q0.78125 0 1.1875 0.375q0.40625 0.359375 0.421875 0.9375l-0.6875 0.046875q-0.015625 -0.375 -0.265625 -0.59375q-0.25 -0.21875 -0.71875 -0.21875q-0.359375 0 -0.5625 0.171875q-0.203125 0.171875 -0.203125 0.359375q0 0.203125 0.171875 0.34375q0.125 0.109375 0.609375 0.3125q0.8125 0.359375 1.015625 0.5625q0.34375 0.328125 0.34375 0.78125q0 0.3125 -0.1875 0.609375q-0.1875 0.296875 -0.578125 0.484375q-0.390625 0.171875 -0.921875 0.171875q-0.71875 0 -1.21875 -0.359375q-0.5 -0.359375 -0.484375 -1.15625zm5.28125 -1.90625q0.296875 -0.234375 0.59375 -0.359375q0.296875 -0.125 0.578125 -0.125q0.65625 0 1.078125 0.453125q0.4375 0.4375 0.4375 1.1875q0 0.96875 -0.640625 1.671875q-0.546875 0.59375 -1.328125 0.59375q-0.703125 0 -1.1875 -0.515625q-0.46875 -0.53125 -0.46875 -1.484375q0 -0.875 0.296875 -1.796875q0.234375 -0.703125 0.578125 -1.15625q0.359375 -0.46875 0.734375 -0.671875q0.390625 -0.21875 0.890625 -0.21875q0.578125 0 0.953125 0.375q0.375 0.359375 0.421875 1.03125l-0.65625 0.0625q-0.0625 -0.46875 -0.265625 -0.671875q-0.203125 -0.203125 -0.515625 -0.203125q-0.3125 0 -0.640625 0.25q-0.3125 0.234375 -0.546875 0.71875q-0.21875 0.484375 -0.3125 0.859375zm-0.25 1.71875q0 0.484375 0.296875 0.8125q0.3125 0.328125 0.6875 0.328125q0.265625 0 0.5625 -0.203125q0.296875 -0.203125 0.5 -0.609375q0.21875 -0.40625 0.21875 -0.8125q0 -0.53125 -0.296875 -0.84375q-0.28125 -0.3125 -0.6875 -0.3125q-0.46875 0 -0.875 0.46875q-0.40625 0.453125 -0.40625 1.171875zm3.6523438 -0.265625q0 -0.734375 0.21875 -1.484375q0.21875 -0.75 0.484375 -1.1875q0.265625 -0.453125 0.546875 -0.703125q0.296875 -0.265625 0.5625 -0.375q0.28125 -0.125 0.609375 -0.125q0.65625 0 1.09375 0.484375q0.453125 0.484375 0.453125 1.40625q0 0.953125 -0.3125 1.890625q-0.359375 1.09375 -1.0 1.640625q-0.484375 0.421875 -1.125 0.421875q-0.640625 0 -1.09375 -0.5q-0.4375 -0.515625 -0.4375 -1.46875zm0.6875 0.171875q0 0.53125 0.171875 0.828125q0.25 0.40625 0.71875 0.40625q0.40625 0 0.734375 -0.375q0.484375 -0.515625 0.734375 -1.515625q0.25 -1.015625 0.25 -1.65625q0 -0.625 -0.25 -0.890625q-0.234375 -0.28125 -0.609375 -0.28125q-0.28125 0 -0.53125 0.15625q-0.25 0.140625 -0.46875 0.484375q-0.3125 0.5 -0.546875 1.484375q-0.203125 0.84375 -0.203125 1.359375zm3.7617188 -2.46875q0 -0.3125 0.15625 -0.703125q0.15625 -0.390625 0.515625 -0.671875q0.359375 -0.28125 0.84375 -0.28125q0.53125 0 0.875 0.34375q0.34375 0.34375 0.34375 0.875q0 0.59375 -0.390625 1.15625q-0.390625 0.5625 -1.078125 0.5625q-0.40625 0 -0.703125 -0.15625q-0.296875 -0.15625 -0.4375 -0.421875q-0.125 -0.265625 -0.125 -0.703125zm0.578125 -0.015625q0 0.359375 0.125 0.53125q0.1875 0.265625 0.5 0.265625q0.21875 0 0.4375 -0.140625q0.21875 -0.15625 0.359375 -0.453125q0.15625 -0.3125 0.15625 -0.625q0 -0.3125 -0.1875 -0.5q-0.1875 -0.203125 -0.453125 -0.203125q-0.25 0 -0.46875 0.171875q-0.21875 0.15625 -0.34375 0.453125q-0.125 0.28125 -0.125 0.5zm3.375 -1.640625q0.609375 1.34375 0.609375 2.765625q0 0.9375 -0.25 1.75q-0.25 0.8125 -0.75 1.625q-0.34375 0.53125 -1.078125 1.375l-0.546875 0q0.453125 -0.5 0.953125 -1.390625q0.515625 -0.875 0.75 -1.734375q0.234375 -0.859375 0.234375 -1.71875q0 -1.296875 -0.453125 -2.671875l0.53125 0zm1.5078125 5.828125l0.171875 -0.796875l0.796875 0l-0.140625 0.6875q-0.140625 0.640625 -0.421875 0.921875q-0.265625 0.296875 -0.65625 0.34375l0.078125 -0.3125q0.453125 -0.125 0.609375 -0.84375l-0.4375 0zm4.3828125 -1.71875l0.140625 -0.703125l2.15625 0l-0.140625 0.703125l-2.15625 0zm2.5546875 1.71875l0.875 -4.15625l0.625 0l-0.1875 0.859375q0.328125 -0.484375 0.625 -0.71875q0.3125 -0.234375 0.640625 -0.234375q0.203125 0 0.515625 0.15625l-0.296875 0.65625q-0.171875 -0.125 -0.390625 -0.125q-0.375 0 -0.765625 0.421875q-0.390625 0.40625 -0.609375 1.46875l-0.359375 1.671875l-0.671875 0zm2.7265625 -1.421875l0.71875 -0.046875q0 0.3125 0.09375 0.53125q0.09375 0.203125 0.34375 0.34375q0.25 0.140625 0.578125 0.140625q0.46875 0 0.703125 -0.1875q0.234375 -0.1875 0.234375 -0.4375q0 -0.1875 -0.140625 -0.359375q-0.140625 -0.15625 -0.703125 -0.390625q-0.5625 -0.25 -0.71875 -0.34375q-0.25 -0.15625 -0.390625 -0.375q-0.125 -0.21875 -0.125 -0.5q0 -0.5 0.390625 -0.84375q0.390625 -0.359375 1.09375 -0.359375q0.78125 0 1.1875 0.375q0.40625 0.359375 0.421875 0.9375l-0.6875 0.046875q-0.015625 -0.375 -0.265625 -0.59375q-0.25 -0.21875 -0.71875 -0.21875q-0.359375 0 -0.5625 0.171875q-0.203125 0.171875 -0.203125 0.359375q0 0.203125 0.171875 0.34375q0.125 0.109375 0.609375 0.3125q0.8125 0.359375 1.015625 0.5625q0.34375 0.328125 0.34375 0.78125q0 0.3125 -0.1875 0.609375q-0.1875 0.296875 -0.578125 0.484375q-0.390625 0.171875 -0.921875 0.171875q-0.71875 0 -1.21875 -0.359375q-0.5 -0.359375 -0.484375 -1.15625zm4.9375 -3.5l0.171875 -0.8125l0.703125 0l-0.171875 0.8125l-0.703125 0zm-1.03125 4.921875l0.875 -4.15625l0.703125 0l-0.859375 4.15625l-0.71875 0zm1.8085938 0l0.875 -4.15625l0.640625 0l-0.15625 0.734375q0.421875 -0.4375 0.78125 -0.625q0.359375 -0.203125 0.734375 -0.203125q0.515625 0 0.796875 0.28125q0.28125 0.265625 0.28125 0.734375q0 0.21875 -0.09375 0.71875l-0.53125 2.515625l-0.703125 0l0.546875 -2.625q0.078125 -0.390625 0.078125 -0.578125q0 -0.203125 -0.140625 -0.328125q-0.140625 -0.125 -0.40625 -0.125q-0.546875 0 -0.96875 0.390625q-0.421875 0.390625 -0.625 1.328125l-0.40625 1.9375l-0.703125 0zm5.7929688 -3.328125q0.296875 -0.234375 0.59375 -0.359375q0.296875 -0.125 0.578125 -0.125q0.65625 0 1.078125 0.453125q0.4375 0.4375 0.4375 1.1875q0 0.96875 -0.640625 1.671875q-0.546875 0.59375 -1.328125 0.59375q-0.703125 0 -1.1875 -0.515625q-0.46875 -0.53125 -0.46875 -1.484375q0 -0.875 0.296875 -1.796875q0.234375 -0.703125 0.578125 -1.15625q0.359375 -0.46875 0.734375 -0.671875q0.390625 -0.21875 0.890625 -0.21875q0.578125 0 0.953125 0.375q0.375 0.359375 0.421875 1.03125l-0.65625 0.0625q-0.0625 -0.46875 -0.265625 -0.671875q-0.203125 -0.203125 -0.515625 -0.203125q-0.3125 0 -0.640625 0.25q-0.3125 0.234375 -0.546875 0.71875q-0.21875 0.484375 -0.3125 0.859375zm-0.25 1.71875q0 0.484375 0.296875 0.8125q0.3125 0.328125 0.6875 0.328125q0.265625 0 0.5625 -0.203125q0.296875 -0.203125 0.5 -0.609375q0.21875 -0.40625 0.21875 -0.8125q0 -0.53125 -0.296875 -0.84375q-0.28125 -0.3125 -0.6875 -0.3125q-0.46875 0 -0.875 0.46875q-0.40625 0.453125 -0.40625 1.171875zm3.6523438 -0.265625q0 -0.734375 0.21875 -1.484375q0.21875 -0.75 0.484375 -1.1875q0.265625 -0.453125 0.546875 -0.703125q0.296875 -0.265625 0.5625 -0.375q0.28125 -0.125 0.609375 -0.125q0.65625 0 1.09375 0.484375q0.453125 0.484375 0.453125 1.40625q0 0.953125 -0.3125 1.890625q-0.359375 1.09375 -1.0 1.640625q-0.484375 0.421875 -1.125 0.421875q-0.640625 0 -1.09375 -0.5q-0.4375 -0.515625 -0.4375 -1.46875zm0.6875 0.171875q0 0.53125 0.171875 0.828125q0.25 0.40625 0.71875 0.40625q0.40625 0 0.734375 -0.375q0.484375 -0.515625 0.734375 -1.515625q0.25 -1.015625 0.25 -1.65625q0 -0.625 -0.25 -0.890625q-0.234375 -0.28125 -0.609375 -0.28125q-0.28125 0 -0.53125 0.15625q-0.25 0.140625 -0.46875 0.484375q-0.3125 0.5 -0.546875 1.484375q-0.203125 0.84375 -0.203125 1.359375zm3.7617188 -2.46875q0 -0.3125 0.15625 -0.703125q0.15625 -0.390625 0.515625 -0.671875q0.359375 -0.28125 0.84375 -0.28125q0.53125 0 0.875 0.34375q0.34375 0.34375 0.34375 0.875q0 0.59375 -0.390625 1.15625q-0.390625 0.5625 -1.078125 0.5625q-0.40625 0 -0.703125 -0.15625q-0.296875 -0.15625 -0.4375 -0.421875q-0.125 -0.265625 -0.125 -0.703125zm0.578125 -0.015625q0 0.359375 0.125 0.53125q0.1875 0.265625 0.5 0.265625q0.21875 0 0.4375 -0.140625q0.21875 -0.15625 0.359375 -0.453125q0.15625 -0.3125 0.15625 -0.625q0 -0.3125 -0.1875 -0.5q-0.1875 -0.203125 -0.453125 -0.203125q-0.25 0 -0.46875 0.171875q-0.21875 0.15625 -0.34375 0.453125q-0.125 0.28125 -0.125 0.5zm3.375 -1.640625q0.609375 1.34375 0.609375 2.765625q0 0.9375 -0.25 1.75q-0.25 0.8125 -0.75 1.625q-0.34375 0.53125 -1.078125 1.375l-0.546875 0q0.453125 -0.5 0.953125 -1.390625q0.515625 -0.875 0.75 -1.734375q0.234375 -0.859375 0.234375 -1.71875q0 -1.296875 -0.453125 -2.671875l0.53125 0z" fill-rule="nonzero"/><path fill="#000000" fill-opacity="0.0" d="m431.22308 81.79265l114.96063 0l0 35.086617l-114.96063 0z" fill-rule="evenodd"/><path fill="#000000" d="m441.51996 100.16015q-0.625 -1.34375 -0.625 -2.765625q0 -0.953125 0.25 -1.765625q0.25 -0.8125 0.765625 -1.609375q0.328125 -0.53125 1.0625 -1.375l0.5625 0q-0.46875 0.484375 -0.984375 1.375q-0.5 0.890625 -0.734375 1.75q-0.21875 0.84375 -0.21875 1.71875q0 1.28125 0.4375 2.671875l-0.515625 0zm1.8359375 -1.6875q0.109375 -0.515625 0.296875 -0.859375q0.203125 -0.34375 0.515625 -0.65625q0.328125 -0.3125 1.234375 -1.046875q0.5625 -0.4375 0.765625 -0.640625q0.296875 -0.3125 0.421875 -0.609375q0.09375 -0.1875 0.09375 -0.421875q0 -0.40625 -0.28125 -0.671875q-0.28125 -0.28125 -0.6875 -0.28125q-0.40625 0 -0.703125 0.28125q-0.296875 0.28125 -0.421875 0.890625l-0.703125 -0.09375q0.109375 -0.765625 0.59375 -1.203125q0.5 -0.4375 1.21875 -0.4375q0.5 0 0.890625 0.203125q0.390625 0.203125 0.59375 0.578125q0.203125 0.359375 0.203125 0.75q0 0.5625 -0.40625 1.09375q-0.25 0.328125 -1.46875 1.296875q-0.53125 0.40625 -0.78125 0.671875q-0.25 0.265625 -0.390625 0.5l2.5625 0l-0.125 0.65625l-3.421875 0zm4.2460938 0l0.875 -4.15625l0.625 0l-0.1875 0.859375q0.328125 -0.484375 0.625 -0.71875q0.3125 -0.234375 0.640625 -0.234375q0.203125 0 0.515625 0.15625l-0.296875 0.65625q-0.171875 -0.125 -0.390625 -0.125q-0.375 0 -0.765625 0.421875q-0.390625 0.40625 -0.609375 1.46875l-0.359375 1.671875l-0.671875 0zm6.9023438 -0.921875l0 -1.578125l-1.5625 0l0 -0.65625l1.5625 0l0 -1.5625l0.65625 0l0 1.5625l1.5625 0l0 0.65625l-1.5625 0l0 1.578125l-0.65625 0zm5.0820312 0.921875q0.109375 -0.515625 0.296875 -0.859375q0.203125 -0.34375 0.515625 -0.65625q0.328125 -0.3125 1.234375 -1.046875q0.5625 -0.4375 0.765625 -0.640625q0.296875 -0.3125 0.421875 -0.609375q0.09375 -0.1875 0.09375 -0.421875q0 -0.40625 -0.28125 -0.671875q-0.28125 -0.28125 -0.6875 -0.28125q-0.40625 0 -0.703125 0.28125q-0.296875 0.28125 -0.421875 0.890625l-0.703125 -0.09375q0.109375 -0.765625 0.59375 -1.203125q0.5 -0.4375 1.21875 -0.4375q0.5 0 0.890625 0.203125q0.390625 0.203125 0.59375 0.578125q0.203125 0.359375 0.203125 0.75q0 0.5625 -0.40625 1.09375q-0.25 0.328125 -1.46875 1.296875q-0.53125 0.40625 -0.78125 0.671875q-0.25 0.265625 -0.390625 0.5l2.5625 0l-0.125 0.65625l-3.421875 0zm4.2460938 0l0.875 -4.15625l0.625 0l-0.1875 0.859375q0.328125 -0.484375 0.625 -0.71875q0.3125 -0.234375 0.640625 -0.234375q0.203125 0 0.515625 0.15625l-0.296875 0.65625q-0.171875 -0.125 -0.390625 -0.125q-0.375 0 -0.765625 0.421875q-0.390625 0.40625 -0.609375 1.46875l-0.359375 1.671875l-0.671875 0zm5.5234375 -1.515625l0.71875 0.078125q-0.265625 0.78125 -0.765625 1.15625q-0.484375 0.375 -1.109375 0.375q-0.671875 0 -1.09375 -0.4375q-0.421875 -0.4375 -0.421875 -1.21875q0 -0.6875 0.265625 -1.34375q0.265625 -0.65625 0.765625 -1.0q0.515625 -0.34375 1.15625 -0.34375q0.671875 0 1.0625 0.390625q0.390625 0.375 0.390625 0.984375l-0.703125 0.046875q0 -0.390625 -0.234375 -0.609375q-0.21875 -0.21875 -0.578125 -0.21875q-0.4375 0 -0.75 0.265625q-0.3125 0.265625 -0.484375 0.8125q-0.171875 0.546875 -0.171875 1.0625q0 0.53125 0.234375 0.796875q0.234375 0.265625 0.578125 0.265625q0.34375 0 0.65625 -0.265625q0.3125 -0.265625 0.484375 -0.796875zm1.265625 -0.0625q0 -1.21875 0.71875 -2.015625q0.59375 -0.65625 1.546875 -0.65625q0.75 0 1.203125 0.46875q0.46875 0.46875 0.46875 1.265625q0 0.71875 -0.296875 1.34375q-0.28125 0.609375 -0.828125 0.9375q-0.53125 0.328125 -1.109375 0.328125q-0.484375 0 -0.890625 -0.203125q-0.390625 -0.21875 -0.609375 -0.59375q-0.203125 -0.375 -0.203125 -0.875zm0.703125 -0.0625q0 0.578125 0.28125 0.890625q0.28125 0.296875 0.71875 0.296875q0.234375 0 0.453125 -0.09375q0.21875 -0.09375 0.40625 -0.28125q0.203125 -0.1875 0.328125 -0.421875q0.140625 -0.25 0.21875 -0.515625q0.125 -0.390625 0.125 -0.75q0 -0.5625 -0.28125 -0.875q-0.28125 -0.3125 -0.71875 -0.3125q-0.328125 0 -0.609375 0.171875q-0.265625 0.15625 -0.484375 0.46875q-0.21875 0.296875 -0.328125 0.703125q-0.109375 0.390625 -0.109375 0.71875zm3.6835938 0.21875l0.71875 -0.046875q0 0.3125 0.09375 0.53125q0.09375 0.203125 0.34375 0.34375q0.25 0.140625 0.578125 0.140625q0.46875 0 0.703125 -0.1875q0.234375 -0.1875 0.234375 -0.4375q0 -0.1875 -0.140625 -0.359375q-0.140625 -0.15625 -0.703125 -0.390625q-0.5625 -0.25 -0.71875 -0.34375q-0.25 -0.15625 -0.390625 -0.375q-0.125 -0.21875 -0.125 -0.5q0 -0.5 0.390625 -0.84375q0.390625 -0.359375 1.09375 -0.359375q0.78125 0 1.1875 0.375q0.40625 0.359375 0.421875 0.9375l-0.6875 0.046875q-0.015625 -0.375 -0.265625 -0.59375q-0.25 -0.21875 -0.71875 -0.21875q-0.359375 0 -0.5625 0.171875q-0.203125 0.171875 -0.203125 0.359375q0 0.203125 0.171875 0.34375q0.125 0.109375 0.609375 0.3125q0.8125 0.359375 1.015625 0.5625q0.34375 0.328125 0.34375 0.78125q0 0.3125 -0.1875 0.609375q-0.1875 0.296875 -0.578125 0.484375q-0.390625 0.171875 -0.921875 0.171875q-0.71875 0 -1.21875 -0.359375q-0.5 -0.359375 -0.484375 -1.15625zm7.5039062 -1.90625q0.296875 -0.234375 0.59375 -0.359375q0.296875 -0.125 0.578125 -0.125q0.65625 0 1.078125 0.453125q0.4375 0.4375 0.4375 1.1875q0 0.96875 -0.640625 1.671875q-0.546875 0.59375 -1.328125 0.59375q-0.703125 0 -1.1875 -0.515625q-0.46875 -0.53125 -0.46875 -1.484375q0 -0.875 0.296875 -1.796875q0.234375 -0.703125 0.578125 -1.15625q0.359375 -0.46875 0.734375 -0.671875q0.390625 -0.21875 0.890625 -0.21875q0.578125 0 0.953125 0.375q0.375 0.359375 0.421875 1.03125l-0.65625 0.0625q-0.0625 -0.46875 -0.265625 -0.671875q-0.203125 -0.203125 -0.515625 -0.203125q-0.3125 0 -0.640625 0.25q-0.3125 0.234375 -0.546875 0.71875q-0.21875 0.484375 -0.3125 0.859375zm-0.25 1.71875q0 0.484375 0.296875 0.8125q0.3125 0.328125 0.6875 0.328125q0.265625 0 0.5625 -0.203125q0.296875 -0.203125 0.5 -0.609375q0.21875 -0.40625 0.21875 -0.8125q0 -0.53125 -0.296875 -0.84375q-0.28125 -0.3125 -0.6875 -0.3125q-0.46875 0 -0.875 0.46875q-0.40625 0.453125 -0.40625 1.171875zm3.6523438 -0.265625q0 -0.734375 0.21875 -1.484375q0.21875 -0.75 0.484375 -1.1875q0.265625 -0.453125 0.546875 -0.703125q0.296875 -0.265625 0.5625 -0.375q0.28125 -0.125 0.609375 -0.125q0.65625 0 1.09375 0.484375q0.453125 0.484375 0.453125 1.40625q0 0.953125 -0.3125 1.890625q-0.359375 1.09375 -1.0 1.640625q-0.484375 0.421875 -1.125 0.421875q-0.640625 0 -1.09375 -0.5q-0.4375 -0.515625 -0.4375 -1.46875zm0.6875 0.171875q0 0.53125 0.171875 0.828125q0.25 0.40625 0.71875 0.40625q0.40625 0 0.734375 -0.375q0.484375 -0.515625 0.734375 -1.515625q0.25 -1.015625 0.25 -1.65625q0 -0.625 -0.25 -0.890625q-0.234375 -0.28125 -0.609375 -0.28125q-0.28125 0 -0.53125 0.15625q-0.25 0.140625 -0.46875 0.484375q-0.3125 0.5 -0.546875 1.484375q-0.203125 0.84375 -0.203125 1.359375zm3.7617188 -2.46875q0 -0.3125 0.15625 -0.703125q0.15625 -0.390625 0.515625 -0.671875q0.359375 -0.28125 0.84375 -0.28125q0.53125 0 0.875 0.34375q0.34375 0.34375 0.34375 0.875q0 0.59375 -0.390625 1.15625q-0.390625 0.5625 -1.078125 0.5625q-0.40625 0 -0.703125 -0.15625q-0.296875 -0.15625 -0.4375 -0.421875q-0.125 -0.265625 -0.125 -0.703125zm0.578125 -0.015625q0 0.359375 0.125 0.53125q0.1875 0.265625 0.5 0.265625q0.21875 0 0.4375 -0.140625q0.21875 -0.15625 0.359375 -0.453125q0.15625 -0.3125 0.15625 -0.625q0 -0.3125 -0.1875 -0.5q-0.1875 -0.203125 -0.453125 -0.203125q-0.25 0 -0.46875 0.171875q-0.21875 0.15625 -0.34375 0.453125q-0.125 0.28125 -0.125 0.5zm2.21875 4.1875l0.171875 -0.796875l0.796875 0l-0.140625 0.6875q-0.140625 0.640625 -0.421875 0.921875q-0.265625 0.296875 -0.65625 0.34375l0.078125 -0.3125q0.453125 -0.125 0.609375 -0.84375l-0.4375 0zm4.5703125 -1.875q0 -0.734375 0.21875 -1.484375q0.21875 -0.75 0.484375 -1.1875q0.265625 -0.453125 0.546875 -0.703125q0.296875 -0.265625 0.5625 -0.375q0.28125 -0.125 0.609375 -0.125q0.65625 0 1.09375 0.484375q0.453125 0.484375 0.453125 1.40625q0 0.953125 -0.3125 1.890625q-0.359375 1.09375 -1.0 1.640625q-0.484375 0.421875 -1.125 0.421875q-0.640625 0 -1.09375 -0.5q-0.4375 -0.515625 -0.4375 -1.46875zm0.6875 0.171875q0 0.53125 0.171875 0.828125q0.25 0.40625 0.71875 0.40625q0.40625 0 0.734375 -0.375q0.484375 -0.515625 0.734375 -1.515625q0.25 -1.015625 0.25 -1.65625q0 -0.625 -0.25 -0.890625q-0.234375 -0.28125 -0.609375 -0.28125q-0.28125 0 -0.53125 0.15625q-0.25 0.140625 -0.46875 0.484375q-0.3125 0.5 -0.546875 1.484375q-0.203125 0.84375 -0.203125 1.359375zm4.7929688 -4.125q0.609375 1.34375 0.609375 2.765625q0 0.9375 -0.25 1.75q-0.25 0.8125 -0.75 1.625q-0.34375 0.53125 -1.078125 1.375l-0.546875 0q0.453125 -0.5 0.953125 -1.390625q0.515625 -0.875 0.75 -1.734375q0.234375 -0.859375 0.234375 -1.71875q0 -1.296875 -0.453125 -2.671875l0.53125 0z" fill-rule="nonzero"/><path fill="#000000" d="m441.51996 110.16015q-0.625 -1.34375 -0.625 -2.765625q0 -0.953125 0.25 -1.765625q0.25 -0.8125 0.765625 -1.609375q0.328125 -0.53125 1.0625 -1.375l0.5625 0q-0.46875 0.484375 -0.984375 1.375q-0.5 0.890625 -0.734375 1.75q-0.21875 0.84375 -0.21875 1.71875q0 1.28125 0.4375 2.671875l-0.515625 0zm1.8359375 -1.6875q0.109375 -0.515625 0.296875 -0.859375q0.203125 -0.34375 0.515625 -0.65625q0.328125 -0.3125 1.234375 -1.046875q0.5625 -0.4375 0.765625 -0.640625q0.296875 -0.3125 0.421875 -0.609375q0.09375 -0.1875 0.09375 -0.421875q0 -0.40625 -0.28125 -0.671875q-0.28125 -0.28125 -0.6875 -0.28125q-0.40625 0 -0.703125 0.28125q-0.296875 0.28125 -0.421875 0.890625l-0.703125 -0.09375q0.109375 -0.765625 0.59375 -1.203125q0.5 -0.4375 1.21875 -0.4375q0.5 0 0.890625 0.203125q0.390625 0.203125 0.59375 0.578125q0.203125 0.359375 0.203125 0.75q0 0.5625 -0.40625 1.09375q-0.25 0.328125 -1.46875 1.296875q-0.53125 0.40625 -0.78125 0.671875q-0.25 0.265625 -0.390625 0.5l2.5625 0l-0.125 0.65625l-3.421875 0zm4.2460938 0l0.875 -4.15625l0.625 0l-0.1875 0.859375q0.328125 -0.484375 0.625 -0.71875q0.3125 -0.234375 0.640625 -0.234375q0.203125 0 0.515625 0.15625l-0.296875 0.65625q-0.171875 -0.125 -0.390625 -0.125q-0.375 0 -0.765625 0.421875q-0.390625 0.40625 -0.609375 1.46875l-0.359375 1.671875l-0.671875 0zm5.9179688 1.6875q-0.625 -1.34375 -0.625 -2.765625q0 -0.953125 0.25 -1.765625q0.25 -0.8125 0.765625 -1.609375q0.328125 -0.53125 1.0625 -1.375l0.5625 0q-0.46875 0.484375 -0.984375 1.375q-0.5 0.890625 -0.734375 1.75q-0.21875 0.84375 -0.21875 1.71875q0 1.28125 0.4375 2.671875l-0.515625 0zm3.2890625 -1.6875l0.90625 -4.328125q-0.578125 0.46875 -1.640625 0.734375l0.125 -0.640625q0.53125 -0.203125 1.046875 -0.546875q0.515625 -0.34375 0.765625 -0.59375q0.15625 -0.15625 0.296875 -0.375l0.421875 0l-1.203125 5.75l-0.71875 0zm7.03125 -0.921875l0 -1.578125l-1.5625 0l0 -0.65625l1.5625 0l0 -1.5625l0.65625 0l0 1.5625l1.5625 0l0 0.65625l-1.5625 0l0 1.578125l-0.65625 0zm7.7382812 -0.59375l0.71875 0.078125q-0.265625 0.78125 -0.765625 1.15625q-0.484375 0.375 -1.109375 0.375q-0.671875 0 -1.09375 -0.4375q-0.421875 -0.4375 -0.421875 -1.21875q0 -0.6875 0.265625 -1.34375q0.265625 -0.65625 0.765625 -1.0q0.515625 -0.34375 1.15625 -0.34375q0.671875 0 1.0625 0.390625q0.390625 0.375 0.390625 0.984375l-0.703125 0.046875q0 -0.390625 -0.234375 -0.609375q-0.21875 -0.21875 -0.578125 -0.21875q-0.4375 0 -0.75 0.265625q-0.3125 0.265625 -0.484375 0.8125q-0.171875 0.546875 -0.171875 1.0625q0 0.53125 0.234375 0.796875q0.234375 0.265625 0.578125 0.265625q0.34375 0 0.65625 -0.265625q0.3125 -0.265625 0.484375 -0.796875zm1.265625 -0.0625q0 -1.21875 0.71875 -2.015625q0.59375 -0.65625 1.546875 -0.65625q0.75 0 1.203125 0.46875q0.46875 0.46875 0.46875 1.265625q0 0.71875 -0.296875 1.34375q-0.28125 0.609375 -0.828125 0.9375q-0.53125 0.328125 -1.109375 0.328125q-0.484375 0 -0.890625 -0.203125q-0.390625 -0.21875 -0.609375 -0.59375q-0.203125 -0.375 -0.203125 -0.875zm0.703125 -0.0625q0 0.578125 0.28125 0.890625q0.28125 0.296875 0.71875 0.296875q0.234375 0 0.453125 -0.09375q0.21875 -0.09375 0.40625 -0.28125q0.203125 -0.1875 0.328125 -0.421875q0.140625 -0.25 0.21875 -0.515625q0.125 -0.390625 0.125 -0.75q0 -0.5625 -0.28125 -0.875q-0.28125 -0.3125 -0.71875 -0.3125q-0.328125 0 -0.609375 0.171875q-0.265625 0.15625 -0.484375 0.46875q-0.21875 0.296875 -0.328125 0.703125q-0.109375 0.390625 -0.109375 0.71875zm3.6835938 0.21875l0.71875 -0.046875q0 0.3125 0.09375 0.53125q0.09375 0.203125 0.34375 0.34375q0.25 0.140625 0.578125 0.140625q0.46875 0 0.703125 -0.1875q0.234375 -0.1875 0.234375 -0.4375q0 -0.1875 -0.140625 -0.359375q-0.140625 -0.15625 -0.703125 -0.390625q-0.5625 -0.25 -0.71875 -0.34375q-0.25 -0.15625 -0.390625 -0.375q-0.125 -0.21875 -0.125 -0.5q0 -0.5 0.390625 -0.84375q0.390625 -0.359375 1.09375 -0.359375q0.78125 0 1.1875 0.375q0.40625 0.359375 0.421875 0.9375l-0.6875 0.046875q-0.015625 -0.375 -0.265625 -0.59375q-0.25 -0.21875 -0.71875 -0.21875q-0.359375 0 -0.5625 0.171875q-0.203125 0.171875 -0.203125 0.359375q0 0.203125 0.171875 0.34375q0.125 0.109375 0.609375 0.3125q0.8125 0.359375 1.015625 0.5625q0.34375 0.328125 0.34375 0.78125q0 0.3125 -0.1875 0.609375q-0.1875 0.296875 -0.578125 0.484375q-0.390625 0.171875 -0.921875 0.171875q-0.71875 0 -1.21875 -0.359375q-0.5 -0.359375 -0.484375 -1.15625zm5.28125 -1.90625q0.296875 -0.234375 0.59375 -0.359375q0.296875 -0.125 0.578125 -0.125q0.65625 0 1.078125 0.453125q0.4375 0.4375 0.4375 1.1875q0 0.96875 -0.640625 1.671875q-0.546875 0.59375 -1.328125 0.59375q-0.703125 0 -1.1875 -0.515625q-0.46875 -0.53125 -0.46875 -1.484375q0 -0.875 0.296875 -1.796875q0.234375 -0.703125 0.578125 -1.15625q0.359375 -0.46875 0.734375 -0.671875q0.390625 -0.21875 0.890625 -0.21875q0.578125 0 0.953125 0.375q0.375 0.359375 0.421875 1.03125l-0.65625 0.0625q-0.0625 -0.46875 -0.265625 -0.671875q-0.203125 -0.203125 -0.515625 -0.203125q-0.3125 0 -0.640625 0.25q-0.3125 0.234375 -0.546875 0.71875q-0.21875 0.484375 -0.3125 0.859375zm-0.25 1.71875q0 0.484375 0.296875 0.8125q0.3125 0.328125 0.6875 0.328125q0.265625 0 0.5625 -0.203125q0.296875 -0.203125 0.5 -0.609375q0.21875 -0.40625 0.21875 -0.8125q0 -0.53125 -0.296875 -0.84375q-0.28125 -0.3125 -0.6875 -0.3125q-0.46875 0 -0.875 0.46875q-0.40625 0.453125 -0.40625 1.171875zm3.6523438 -0.265625q0 -0.734375 0.21875 -1.484375q0.21875 -0.75 0.484375 -1.1875q0.265625 -0.453125 0.546875 -0.703125q0.296875 -0.265625 0.5625 -0.375q0.28125 -0.125 0.609375 -0.125q0.65625 0 1.09375 0.484375q0.453125 0.484375 0.453125 1.40625q0 0.953125 -0.3125 1.890625q-0.359375 1.09375 -1.0 1.640625q-0.484375 0.421875 -1.125 0.421875q-0.640625 0 -1.09375 -0.5q-0.4375 -0.515625 -0.4375 -1.46875zm0.6875 0.171875q0 0.53125 0.171875 0.828125q0.25 0.40625 0.71875 0.40625q0.40625 0 0.734375 -0.375q0.484375 -0.515625 0.734375 -1.515625q0.25 -1.015625 0.25 -1.65625q0 -0.625 -0.25 -0.890625q-0.234375 -0.28125 -0.609375 -0.28125q-0.28125 0 -0.53125 0.15625q-0.25 0.140625 -0.46875 0.484375q-0.3125 0.5 -0.546875 1.484375q-0.203125 0.84375 -0.203125 1.359375zm3.7617188 -2.46875q0 -0.3125 0.15625 -0.703125q0.15625 -0.390625 0.515625 -0.671875q0.359375 -0.28125 0.84375 -0.28125q0.53125 0 0.875 0.34375q0.34375 0.34375 0.34375 0.875q0 0.59375 -0.390625 1.15625q-0.390625 0.5625 -1.078125 0.5625q-0.40625 0 -0.703125 -0.15625q-0.296875 -0.15625 -0.4375 -0.421875q-0.125 -0.265625 -0.125 -0.703125zm0.578125 -0.015625q0 0.359375 0.125 0.53125q0.1875 0.265625 0.5 0.265625q0.21875 0 0.4375 -0.140625q0.21875 -0.15625 0.359375 -0.453125q0.15625 -0.3125 0.15625 -0.625q0 -0.3125 -0.1875 -0.5q-0.1875 -0.203125 -0.453125 -0.203125q-0.25 0 -0.46875 0.171875q-0.21875 0.15625 -0.34375 0.453125q-0.125 0.28125 -0.125 0.5zm3.375 -1.640625q0.609375 1.34375 0.609375 2.765625q0 0.9375 -0.25 1.75q-0.25 0.8125 -0.75 1.625q-0.34375 0.53125 -1.078125 1.375l-0.546875 0q0.453125 -0.5 0.953125 -1.390625q0.515625 -0.875 0.75 -1.734375q0.234375 -0.859375 0.234375 -1.71875q0 -1.296875 -0.453125 -2.671875l0.53125 0zm1.5078125 5.828125l0.171875 -0.796875l0.796875 0l-0.140625 0.6875q-0.140625 0.640625 -0.421875 0.921875q-0.265625 0.296875 -0.65625 0.34375l0.078125 -0.3125q0.453125 -0.125 0.609375 -0.84375l-0.4375 0zm4.5703125 -1.875q0 -0.734375 0.21875 -1.484375q0.21875 -0.75 0.484375 -1.1875q0.265625 -0.453125 0.546875 -0.703125q0.296875 -0.265625 0.5625 -0.375q0.28125 -0.125 0.609375 -0.125q0.65625 0 1.09375 0.484375q0.453125 0.484375 0.453125 1.40625q0 0.953125 -0.3125 1.890625q-0.359375 1.09375 -1.0 1.640625q-0.484375 0.421875 -1.125 0.421875q-0.640625 0 -1.09375 -0.5q-0.4375 -0.515625 -0.4375 -1.46875zm0.6875 0.171875q0 0.53125 0.171875 0.828125q0.25 0.40625 0.71875 0.40625q0.40625 0 0.734375 -0.375q0.484375 -0.515625 0.734375 -1.515625q0.25 -1.015625 0.25 -1.65625q0 -0.625 -0.25 -0.890625q-0.234375 -0.28125 -0.609375 -0.28125q-0.28125 0 -0.53125 0.15625q-0.25 0.140625 -0.46875 0.484375q-0.3125 0.5 -0.546875 1.484375q-0.203125 0.84375 -0.203125 1.359375zm4.7929688 -4.125q0.609375 1.34375 0.609375 2.765625q0 0.9375 -0.25 1.75q-0.25 0.8125 -0.75 1.625q-0.34375 0.53125 -1.078125 1.375l-0.546875 0q0.453125 -0.5 0.953125 -1.390625q0.515625 -0.875 0.75 -1.734375q0.234375 -0.859375 0.234375 -1.71875q0 -1.296875 -0.453125 -2.671875l0.53125 0z" fill-rule="nonzero"/><path fill="#000000" fill-opacity="0.0" d="m385.51312 20.656437l0 187.11812" fill-rule="evenodd"/><path stroke="#9900ff" stroke-width="1.0" stroke-linejoin="round" stroke-linecap="butt" stroke-dasharray="1.0,3.0" d="m385.51312 20.656437l0 187.11812" fill-rule="evenodd"/><path fill="#000000" fill-opacity="0.0" d="m546.18506 110.91891l0 187.1181" fill-rule="evenodd"/><path stroke="#9900ff" stroke-width="1.0" stroke-linejoin="round" stroke-linecap="butt" stroke-dasharray="1.0,3.0" d="m546.18506 110.91891l0 187.1181" fill-rule="evenodd"/><path fill="#000000" fill-opacity="0.0" d="m591.084 201.43307l114.96063 0l0 35.08661l-114.96063 0z" fill-rule="evenodd"/><path fill="#000000" d="m601.38086 219.80057q-0.625 -1.34375 -0.625 -2.765625q0 -0.953125 0.25 -1.765625q0.25 -0.8125 0.765625 -1.609375q0.328125 -0.53125 1.0625 -1.375l0.5625 0q-0.46875 0.484375 -0.984375 1.375q-0.5 0.890625 -0.734375 1.75q-0.21875 0.84375 -0.21875 1.71875q0 1.28125 0.4375 2.671875l-0.515625 0zm1.8046875 -3.1875l0.6875 -0.09375q0.078125 0.609375 0.34375 0.875q0.265625 0.25 0.703125 0.25q0.53125 0 0.90625 -0.375q0.375 -0.375 0.375 -0.859375q0 -0.421875 -0.28125 -0.6875q-0.28125 -0.28125 -0.765625 -0.28125q-0.046875 0 -0.21875 0.015625l0.109375 -0.59375q0.109375 0.015625 0.203125 0.015625q0.609375 0 0.921875 -0.296875q0.328125 -0.296875 0.328125 -0.71875q0 -0.390625 -0.265625 -0.65625q-0.265625 -0.28125 -0.65625 -0.28125q-0.375 0 -0.6875 0.28125q-0.296875 0.265625 -0.375 0.78125l-0.703125 -0.140625q0.171875 -0.71875 0.65625 -1.09375q0.5 -0.390625 1.171875 -0.390625q0.703125 0 1.125 0.421875q0.4375 0.421875 0.4375 1.046875q0 0.453125 -0.234375 0.796875q-0.234375 0.328125 -0.703125 0.5625q0.328125 0.1875 0.5 0.46875q0.171875 0.28125 0.171875 0.65625q0 0.765625 -0.578125 1.328125q-0.578125 0.5625 -1.375 0.5625q-0.78125 0 -1.265625 -0.4375q-0.46875 -0.4375 -0.53125 -1.15625zm4.2773438 1.5l0.875 -4.15625l0.625 0l-0.1875 0.859375q0.328125 -0.484375 0.625 -0.71875q0.3125 -0.234375 0.640625 -0.234375q0.203125 0 0.515625 0.15625l-0.296875 0.65625q-0.171875 -0.125 -0.390625 -0.125q-0.375 0 -0.765625 0.421875q-0.390625 0.40625 -0.609375 1.46875l-0.359375 1.671875l-0.671875 0zm6.9023438 -0.921875l0 -1.578125l-1.5625 0l0 -0.65625l1.5625 0l0 -1.5625l0.65625 0l0 1.5625l1.5625 0l0 0.65625l-1.5625 0l0 1.578125l-0.65625 0zm5.0507812 -0.578125l0.6875 -0.09375q0.078125 0.609375 0.34375 0.875q0.265625 0.25 0.703125 0.25q0.53125 0 0.90625 -0.375q0.375 -0.375 0.375 -0.859375q0 -0.421875 -0.28125 -0.6875q-0.28125 -0.28125 -0.765625 -0.28125q-0.046875 0 -0.21875 0.015625l0.109375 -0.59375q0.109375 0.015625 0.203125 0.015625q0.609375 0 0.921875 -0.296875q0.328125 -0.296875 0.328125 -0.71875q0 -0.390625 -0.265625 -0.65625q-0.265625 -0.28125 -0.65625 -0.28125q-0.375 0 -0.6875 0.28125q-0.296875 0.265625 -0.375 0.78125l-0.703125 -0.140625q0.171875 -0.71875 0.65625 -1.09375q0.5 -0.390625 1.171875 -0.390625q0.703125 0 1.125 0.421875q0.4375 0.421875 0.4375 1.046875q0 0.453125 -0.234375 0.796875q-0.234375 0.328125 -0.703125 0.5625q0.328125 0.1875 0.5 0.46875q0.171875 0.28125 0.171875 0.65625q0 0.765625 -0.578125 1.328125q-0.578125 0.5625 -1.375 0.5625q-0.78125 0 -1.265625 -0.4375q-0.46875 -0.4375 -0.53125 -1.15625zm4.2773438 1.5l0.875 -4.15625l0.625 0l-0.1875 0.859375q0.328125 -0.484375 0.625 -0.71875q0.3125 -0.234375 0.640625 -0.234375q0.203125 0 0.515625 0.15625l-0.296875 0.65625q-0.171875 -0.125 -0.390625 -0.125q-0.375 0 -0.765625 0.421875q-0.390625 0.40625 -0.609375 1.46875l-0.359375 1.671875l-0.671875 0zm7.7460938 -1.515625l0.71875 0.078125q-0.265625 0.78125 -0.765625 1.15625q-0.484375 0.375 -1.109375 0.375q-0.671875 0 -1.09375 -0.4375q-0.421875 -0.4375 -0.421875 -1.21875q0 -0.6875 0.265625 -1.34375q0.265625 -0.65625 0.765625 -1.0q0.515625 -0.34375 1.15625 -0.34375q0.671875 0 1.0625 0.390625q0.390625 0.375 0.390625 0.984375l-0.703125 0.046875q0 -0.390625 -0.234375 -0.609375q-0.21875 -0.21875 -0.578125 -0.21875q-0.4375 0 -0.75 0.265625q-0.3125 0.265625 -0.484375 0.8125q-0.171875 0.546875 -0.171875 1.0625q0 0.53125 0.234375 0.796875q0.234375 0.265625 0.578125 0.265625q0.34375 0 0.65625 -0.265625q0.3125 -0.265625 0.484375 -0.796875zm1.265625 -0.0625q0 -1.21875 0.71875 -2.015625q0.59375 -0.65625 1.546875 -0.65625q0.75 0 1.203125 0.46875q0.46875 0.46875 0.46875 1.265625q0 0.71875 -0.296875 1.34375q-0.28125 0.609375 -0.828125 0.9375q-0.53125 0.328125 -1.109375 0.328125q-0.484375 0 -0.890625 -0.203125q-0.390625 -0.21875 -0.609375 -0.59375q-0.203125 -0.375 -0.203125 -0.875zm0.703125 -0.0625q0 0.578125 0.28125 0.890625q0.28125 0.296875 0.71875 0.296875q0.234375 0 0.453125 -0.09375q0.21875 -0.09375 0.40625 -0.28125q0.203125 -0.1875 0.328125 -0.421875q0.140625 -0.25 0.21875 -0.515625q0.125 -0.390625 0.125 -0.75q0 -0.5625 -0.28125 -0.875q-0.28125 -0.3125 -0.71875 -0.3125q-0.328125 0 -0.609375 0.171875q-0.265625 0.15625 -0.484375 0.46875q-0.21875 0.296875 -0.328125 0.703125q-0.109375 0.390625 -0.109375 0.71875zm3.6835938 0.21875l0.71875 -0.046875q0 0.3125 0.09375 0.53125q0.09375 0.203125 0.34375 0.34375q0.25 0.140625 0.578125 0.140625q0.46875 0 0.703125 -0.1875q0.234375 -0.1875 0.234375 -0.4375q0 -0.1875 -0.140625 -0.359375q-0.140625 -0.15625 -0.703125 -0.390625q-0.5625 -0.25 -0.71875 -0.34375q-0.25 -0.15625 -0.390625 -0.375q-0.125 -0.21875 -0.125 -0.5q0 -0.5 0.390625 -0.84375q0.390625 -0.359375 1.09375 -0.359375q0.78125 0 1.1875 0.375q0.40625 0.359375 0.421875 0.9375l-0.6875 0.046875q-0.015625 -0.375 -0.265625 -0.59375q-0.25 -0.21875 -0.71875 -0.21875q-0.359375 0 -0.5625 0.171875q-0.203125 0.171875 -0.203125 0.359375q0 0.203125 0.171875 0.34375q0.125 0.109375 0.609375 0.3125q0.8125 0.359375 1.015625 0.5625q0.34375 0.328125 0.34375 0.78125q0 0.3125 -0.1875 0.609375q-0.1875 0.296875 -0.578125 0.484375q-0.390625 0.171875 -0.921875 0.171875q-0.71875 0 -1.21875 -0.359375q-0.5 -0.359375 -0.484375 -1.15625zm7.5039062 -1.90625q0.296875 -0.234375 0.59375 -0.359375q0.296875 -0.125 0.578125 -0.125q0.65625 0 1.078125 0.453125q0.4375 0.4375 0.4375 1.1875q0 0.96875 -0.640625 1.671875q-0.546875 0.59375 -1.328125 0.59375q-0.703125 0 -1.1875 -0.515625q-0.46875 -0.53125 -0.46875 -1.484375q0 -0.875 0.296875 -1.796875q0.234375 -0.703125 0.578125 -1.15625q0.359375 -0.46875 0.734375 -0.671875q0.390625 -0.21875 0.890625 -0.21875q0.578125 0 0.953125 0.375q0.375 0.359375 0.421875 1.03125l-0.65625 0.0625q-0.0625 -0.46875 -0.265625 -0.671875q-0.203125 -0.203125 -0.515625 -0.203125q-0.3125 0 -0.640625 0.25q-0.3125 0.234375 -0.546875 0.71875q-0.21875 0.484375 -0.3125 0.859375zm-0.25 1.71875q0 0.484375 0.296875 0.8125q0.3125 0.328125 0.6875 0.328125q0.265625 0 0.5625 -0.203125q0.296875 -0.203125 0.5 -0.609375q0.21875 -0.40625 0.21875 -0.8125q0 -0.53125 -0.296875 -0.84375q-0.28125 -0.3125 -0.6875 -0.3125q-0.46875 0 -0.875 0.46875q-0.40625 0.453125 -0.40625 1.171875zm3.6523438 -0.265625q0 -0.734375 0.21875 -1.484375q0.21875 -0.75 0.484375 -1.1875q0.265625 -0.453125 0.546875 -0.703125q0.296875 -0.265625 0.5625 -0.375q0.28125 -0.125 0.609375 -0.125q0.65625 0 1.09375 0.484375q0.453125 0.484375 0.453125 1.40625q0 0.953125 -0.3125 1.890625q-0.359375 1.09375 -1.0 1.640625q-0.484375 0.421875 -1.125 0.421875q-0.640625 0 -1.09375 -0.5q-0.4375 -0.515625 -0.4375 -1.46875zm0.6875 0.171875q0 0.53125 0.171875 0.828125q0.25 0.40625 0.71875 0.40625q0.40625 0 0.734375 -0.375q0.484375 -0.515625 0.734375 -1.515625q0.25 -1.015625 0.25 -1.65625q0 -0.625 -0.25 -0.890625q-0.234375 -0.28125 -0.609375 -0.28125q-0.28125 0 -0.53125 0.15625q-0.25 0.140625 -0.46875 0.484375q-0.3125 0.5 -0.546875 1.484375q-0.203125 0.84375 -0.203125 1.359375zm3.7617188 -2.46875q0 -0.3125 0.15625 -0.703125q0.15625 -0.390625 0.515625 -0.671875q0.359375 -0.28125 0.84375 -0.28125q0.53125 0 0.875 0.34375q0.34375 0.34375 0.34375 0.875q0 0.59375 -0.390625 1.15625q-0.390625 0.5625 -1.078125 0.5625q-0.40625 0 -0.703125 -0.15625q-0.296875 -0.15625 -0.4375 -0.421875q-0.125 -0.265625 -0.125 -0.703125zm0.578125 -0.015625q0 0.359375 0.125 0.53125q0.1875 0.265625 0.5 0.265625q0.21875 0 0.4375 -0.140625q0.21875 -0.15625 0.359375 -0.453125q0.15625 -0.3125 0.15625 -0.625q0 -0.3125 -0.1875 -0.5q-0.1875 -0.203125 -0.453125 -0.203125q-0.25 0 -0.46875 0.171875q-0.21875 0.15625 -0.34375 0.453125q-0.125 0.28125 -0.125 0.5zm2.21875 4.1875l0.171875 -0.796875l0.796875 0l-0.140625 0.6875q-0.140625 0.640625 -0.421875 0.921875q-0.265625 0.296875 -0.65625 0.34375l0.078125 -0.3125q0.453125 -0.125 0.609375 -0.84375l-0.4375 0zm4.3828125 -1.71875l0.140625 -0.703125l2.15625 0l-0.140625 0.703125l-2.15625 0zm2.5546875 1.71875l0.875 -4.15625l0.625 0l-0.1875 0.859375q0.328125 -0.484375 0.625 -0.71875q0.3125 -0.234375 0.640625 -0.234375q0.203125 0 0.515625 0.15625l-0.296875 0.65625q-0.171875 -0.125 -0.390625 -0.125q-0.375 0 -0.765625 0.421875q-0.390625 0.40625 -0.609375 1.46875l-0.359375 1.671875l-0.671875 0zm2.7265625 -1.421875l0.71875 -0.046875q0 0.3125 0.09375 0.53125q0.09375 0.203125 0.34375 0.34375q0.25 0.140625 0.578125 0.140625q0.46875 0 0.703125 -0.1875q0.234375 -0.1875 0.234375 -0.4375q0 -0.1875 -0.140625 -0.359375q-0.140625 -0.15625 -0.703125 -0.390625q-0.5625 -0.25 -0.71875 -0.34375q-0.25 -0.15625 -0.390625 -0.375q-0.125 -0.21875 -0.125 -0.5q0 -0.5 0.390625 -0.84375q0.390625 -0.359375 1.09375 -0.359375q0.78125 0 1.1875 0.375q0.40625 0.359375 0.421875 0.9375l-0.6875 0.046875q-0.015625 -0.375 -0.265625 -0.59375q-0.25 -0.21875 -0.71875 -0.21875q-0.359375 0 -0.5625 0.171875q-0.203125 0.171875 -0.203125 0.359375q0 0.203125 0.171875 0.34375q0.125 0.109375 0.609375 0.3125q0.8125 0.359375 1.015625 0.5625q0.34375 0.328125 0.34375 0.78125q0 0.3125 -0.1875 0.609375q-0.1875 0.296875 -0.578125 0.484375q-0.390625 0.171875 -0.921875 0.171875q-0.71875 0 -1.21875 -0.359375q-0.5 -0.359375 -0.484375 -1.15625zm4.9375 -3.5l0.171875 -0.8125l0.703125 0l-0.171875 0.8125l-0.703125 0zm-1.03125 4.921875l0.875 -4.15625l0.703125 0l-0.859375 4.15625l-0.71875 0zm1.8085938 0l0.875 -4.15625l0.640625 0l-0.15625 0.734375q0.421875 -0.4375 0.78125 -0.625q0.359375 -0.203125 0.734375 -0.203125q0.515625 0 0.796875 0.28125q0.28125 0.265625 0.28125 0.734375q0 0.21875 -0.09375 0.71875l-0.53125 2.515625l-0.703125 0l0.546875 -2.625q0.078125 -0.390625 0.078125 -0.578125q0 -0.203125 -0.140625 -0.328125q-0.140625 -0.125 -0.40625 -0.125q-0.546875 0 -0.96875 0.390625q-0.421875 0.390625 -0.625 1.328125l-0.40625 1.9375l-0.703125 0zm5.7929688 -3.328125q0.296875 -0.234375 0.59375 -0.359375q0.296875 -0.125 0.578125 -0.125q0.65625 0 1.078125 0.453125q0.4375 0.4375 0.4375 1.1875q0 0.96875 -0.640625 1.671875q-0.546875 0.59375 -1.328125 0.59375q-0.703125 0 -1.1875 -0.515625q-0.46875 -0.53125 -0.46875 -1.484375q0 -0.875 0.296875 -1.796875q0.234375 -0.703125 0.578125 -1.15625q0.359375 -0.46875 0.734375 -0.671875q0.390625 -0.21875 0.890625 -0.21875q0.578125 0 0.953125 0.375q0.375 0.359375 0.421875 1.03125l-0.65625 0.0625q-0.0625 -0.46875 -0.265625 -0.671875q-0.203125 -0.203125 -0.515625 -0.203125q-0.3125 0 -0.640625 0.25q-0.3125 0.234375 -0.546875 0.71875q-0.21875 0.484375 -0.3125 0.859375zm-0.25 1.71875q0 0.484375 0.296875 0.8125q0.3125 0.328125 0.6875 0.328125q0.265625 0 0.5625 -0.203125q0.296875 -0.203125 0.5 -0.609375q0.21875 -0.40625 0.21875 -0.8125q0 -0.53125 -0.296875 -0.84375q-0.28125 -0.3125 -0.6875 -0.3125q-0.46875 0 -0.875 0.46875q-0.40625 0.453125 -0.40625 1.171875zm3.6523438 -0.265625q0 -0.734375 0.21875 -1.484375q0.21875 -0.75 0.484375 -1.1875q0.265625 -0.453125 0.546875 -0.703125q0.296875 -0.265625 0.5625 -0.375q0.28125 -0.125 0.609375 -0.125q0.65625 0 1.09375 0.484375q0.453125 0.484375 0.453125 1.40625q0 0.953125 -0.3125 1.890625q-0.359375 1.09375 -1.0 1.640625q-0.484375 0.421875 -1.125 0.421875q-0.640625 0 -1.09375 -0.5q-0.4375 -0.515625 -0.4375 -1.46875zm0.6875 0.171875q0 0.53125 0.171875 0.828125q0.25 0.40625 0.71875 0.40625q0.40625 0 0.734375 -0.375q0.484375 -0.515625 0.734375 -1.515625q0.25 -1.015625 0.25 -1.65625q0 -0.625 -0.25 -0.890625q-0.234375 -0.28125 -0.609375 -0.28125q-0.28125 0 -0.53125 0.15625q-0.25 0.140625 -0.46875 0.484375q-0.3125 0.5 -0.546875 1.484375q-0.203125 0.84375 -0.203125 1.359375zm3.7617188 -2.46875q0 -0.3125 0.15625 -0.703125q0.15625 -0.390625 0.515625 -0.671875q0.359375 -0.28125 0.84375 -0.28125q0.53125 0 0.875 0.34375q0.34375 0.34375 0.34375 0.875q0 0.59375 -0.390625 1.15625q-0.390625 0.5625 -1.078125 0.5625q-0.40625 0 -0.703125 -0.15625q-0.296875 -0.15625 -0.4375 -0.421875q-0.125 -0.265625 -0.125 -0.703125zm0.578125 -0.015625q0 0.359375 0.125 0.53125q0.1875 0.265625 0.5 0.265625q0.21875 0 0.4375 -0.140625q0.21875 -0.15625 0.359375 -0.453125q0.15625 -0.3125 0.15625 -0.625q0 -0.3125 -0.1875 -0.5q-0.1875 -0.203125 -0.453125 -0.203125q-0.25 0 -0.46875 0.171875q-0.21875 0.15625 -0.34375 0.453125q-0.125 0.28125 -0.125 0.5zm3.375 -1.640625q0.609375 1.34375 0.609375 2.765625q0 0.9375 -0.25 1.75q-0.25 0.8125 -0.75 1.625q-0.34375 0.53125 -1.078125 1.375l-0.546875 0q0.453125 -0.5 0.953125 -1.390625q0.515625 -0.875 0.75 -1.734375q0.234375 -0.859375 0.234375 -1.71875q0 -1.296875 -0.453125 -2.671875l0.53125 0z" fill-rule="nonzero"/><path fill="#000000" d="m601.38086 229.80057q-0.625 -1.34375 -0.625 -2.765625q0 -0.953125 0.25 -1.765625q0.25 -0.8125 0.765625 -1.609375q0.328125 -0.53125 1.0625 -1.375l0.5625 0q-0.46875 0.484375 -0.984375 1.375q-0.5 0.890625 -0.734375 1.75q-0.21875 0.84375 -0.21875 1.71875q0 1.28125 0.4375 2.671875l-0.515625 0zm1.8046875 -3.1875l0.6875 -0.09375q0.078125 0.609375 0.34375 0.875q0.265625 0.25 0.703125 0.25q0.53125 0 0.90625 -0.375q0.375 -0.375 0.375 -0.859375q0 -0.421875 -0.28125 -0.6875q-0.28125 -0.28125 -0.765625 -0.28125q-0.046875 0 -0.21875 0.015625l0.109375 -0.59375q0.109375 0.015625 0.203125 0.015625q0.609375 0 0.921875 -0.296875q0.328125 -0.296875 0.328125 -0.71875q0 -0.390625 -0.265625 -0.65625q-0.265625 -0.28125 -0.65625 -0.28125q-0.375 0 -0.6875 0.28125q-0.296875 0.265625 -0.375 0.78125l-0.703125 -0.140625q0.171875 -0.71875 0.65625 -1.09375q0.5 -0.390625 1.171875 -0.390625q0.703125 0 1.125 0.421875q0.4375 0.421875 0.4375 1.046875q0 0.453125 -0.234375 0.796875q-0.234375 0.328125 -0.703125 0.5625q0.328125 0.1875 0.5 0.46875q0.171875 0.28125 0.171875 0.65625q0 0.765625 -0.578125 1.328125q-0.578125 0.5625 -1.375 0.5625q-0.78125 0 -1.265625 -0.4375q-0.46875 -0.4375 -0.53125 -1.15625zm4.2773438 1.5l0.875 -4.15625l0.625 0l-0.1875 0.859375q0.328125 -0.484375 0.625 -0.71875q0.3125 -0.234375 0.640625 -0.234375q0.203125 0 0.515625 0.15625l-0.296875 0.65625q-0.171875 -0.125 -0.390625 -0.125q-0.375 0 -0.765625 0.421875q-0.390625 0.40625 -0.609375 1.46875l-0.359375 1.671875l-0.671875 0zm5.9179688 1.6875q-0.625 -1.34375 -0.625 -2.765625q0 -0.953125 0.25 -1.765625q0.25 -0.8125 0.765625 -1.609375q0.328125 -0.53125 1.0625 -1.375l0.5625 0q-0.46875 0.484375 -0.984375 1.375q-0.5 0.890625 -0.734375 1.75q-0.21875 0.84375 -0.21875 1.71875q0 1.28125 0.4375 2.671875l-0.515625 0zm3.2890625 -1.6875l0.90625 -4.328125q-0.578125 0.46875 -1.640625 0.734375l0.125 -0.640625q0.53125 -0.203125 1.046875 -0.546875q0.515625 -0.34375 0.765625 -0.59375q0.15625 -0.15625 0.296875 -0.375l0.421875 0l-1.203125 5.75l-0.71875 0zm7.03125 -0.921875l0 -1.578125l-1.5625 0l0 -0.65625l1.5625 0l0 -1.5625l0.65625 0l0 1.5625l1.5625 0l0 0.65625l-1.5625 0l0 1.578125l-0.65625 0zm7.7382812 -0.59375l0.71875 0.078125q-0.265625 0.78125 -0.765625 1.15625q-0.484375 0.375 -1.109375 0.375q-0.671875 0 -1.09375 -0.4375q-0.421875 -0.4375 -0.421875 -1.21875q0 -0.6875 0.265625 -1.34375q0.265625 -0.65625 0.765625 -1.0q0.515625 -0.34375 1.15625 -0.34375q0.671875 0 1.0625 0.390625q0.390625 0.375 0.390625 0.984375l-0.703125 0.046875q0 -0.390625 -0.234375 -0.609375q-0.21875 -0.21875 -0.578125 -0.21875q-0.4375 0 -0.75 0.265625q-0.3125 0.265625 -0.484375 0.8125q-0.171875 0.546875 -0.171875 1.0625q0 0.53125 0.234375 0.796875q0.234375 0.265625 0.578125 0.265625q0.34375 0 0.65625 -0.265625q0.3125 -0.265625 0.484375 -0.796875zm1.265625 -0.0625q0 -1.21875 0.71875 -2.015625q0.59375 -0.65625 1.546875 -0.65625q0.75 0 1.203125 0.46875q0.46875 0.46875 0.46875 1.265625q0 0.71875 -0.296875 1.34375q-0.28125 0.609375 -0.828125 0.9375q-0.53125 0.328125 -1.109375 0.328125q-0.484375 0 -0.890625 -0.203125q-0.390625 -0.21875 -0.609375 -0.59375q-0.203125 -0.375 -0.203125 -0.875zm0.703125 -0.0625q0 0.578125 0.28125 0.890625q0.28125 0.296875 0.71875 0.296875q0.234375 0 0.453125 -0.09375q0.21875 -0.09375 0.40625 -0.28125q0.203125 -0.1875 0.328125 -0.421875q0.140625 -0.25 0.21875 -0.515625q0.125 -0.390625 0.125 -0.75q0 -0.5625 -0.28125 -0.875q-0.28125 -0.3125 -0.71875 -0.3125q-0.328125 0 -0.609375 0.171875q-0.265625 0.15625 -0.484375 0.46875q-0.21875 0.296875 -0.328125 0.703125q-0.109375 0.390625 -0.109375 0.71875zm3.6835938 0.21875l0.71875 -0.046875q0 0.3125 0.09375 0.53125q0.09375 0.203125 0.34375 0.34375q0.25 0.140625 0.578125 0.140625q0.46875 0 0.703125 -0.1875q0.234375 -0.1875 0.234375 -0.4375q0 -0.1875 -0.140625 -0.359375q-0.140625 -0.15625 -0.703125 -0.390625q-0.5625 -0.25 -0.71875 -0.34375q-0.25 -0.15625 -0.390625 -0.375q-0.125 -0.21875 -0.125 -0.5q0 -0.5 0.390625 -0.84375q0.390625 -0.359375 1.09375 -0.359375q0.78125 0 1.1875 0.375q0.40625 0.359375 0.421875 0.9375l-0.6875 0.046875q-0.015625 -0.375 -0.265625 -0.59375q-0.25 -0.21875 -0.71875 -0.21875q-0.359375 0 -0.5625 0.171875q-0.203125 0.171875 -0.203125 0.359375q0 0.203125 0.171875 0.34375q0.125 0.109375 0.609375 0.3125q0.8125 0.359375 1.015625 0.5625q0.34375 0.328125 0.34375 0.78125q0 0.3125 -0.1875 0.609375q-0.1875 0.296875 -0.578125 0.484375q-0.390625 0.171875 -0.921875 0.171875q-0.71875 0 -1.21875 -0.359375q-0.5 -0.359375 -0.484375 -1.15625zm5.28125 -1.90625q0.296875 -0.234375 0.59375 -0.359375q0.296875 -0.125 0.578125 -0.125q0.65625 0 1.078125 0.453125q0.4375 0.4375 0.4375 1.1875q0 0.96875 -0.640625 1.671875q-0.546875 0.59375 -1.328125 0.59375q-0.703125 0 -1.1875 -0.515625q-0.46875 -0.53125 -0.46875 -1.484375q0 -0.875 0.296875 -1.796875q0.234375 -0.703125 0.578125 -1.15625q0.359375 -0.46875 0.734375 -0.671875q0.390625 -0.21875 0.890625 -0.21875q0.578125 0 0.953125 0.375q0.375 0.359375 0.421875 1.03125l-0.65625 0.0625q-0.0625 -0.46875 -0.265625 -0.671875q-0.203125 -0.203125 -0.515625 -0.203125q-0.3125 0 -0.640625 0.25q-0.3125 0.234375 -0.546875 0.71875q-0.21875 0.484375 -0.3125 0.859375zm-0.25 1.71875q0 0.484375 0.296875 0.8125q0.3125 0.328125 0.6875 0.328125q0.265625 0 0.5625 -0.203125q0.296875 -0.203125 0.5 -0.609375q0.21875 -0.40625 0.21875 -0.8125q0 -0.53125 -0.296875 -0.84375q-0.28125 -0.3125 -0.6875 -0.3125q-0.46875 0 -0.875 0.46875q-0.40625 0.453125 -0.40625 1.171875zm3.6523438 -0.265625q0 -0.734375 0.21875 -1.484375q0.21875 -0.75 0.484375 -1.1875q0.265625 -0.453125 0.546875 -0.703125q0.296875 -0.265625 0.5625 -0.375q0.28125 -0.125 0.609375 -0.125q0.65625 0 1.09375 0.484375q0.453125 0.484375 0.453125 1.40625q0 0.953125 -0.3125 1.890625q-0.359375 1.09375 -1.0 1.640625q-0.484375 0.421875 -1.125 0.421875q-0.640625 0 -1.09375 -0.5q-0.4375 -0.515625 -0.4375 -1.46875zm0.6875 0.171875q0 0.53125 0.171875 0.828125q0.25 0.40625 0.71875 0.40625q0.40625 0 0.734375 -0.375q0.484375 -0.515625 0.734375 -1.515625q0.25 -1.015625 0.25 -1.65625q0 -0.625 -0.25 -0.890625q-0.234375 -0.28125 -0.609375 -0.28125q-0.28125 0 -0.53125 0.15625q-0.25 0.140625 -0.46875 0.484375q-0.3125 0.5 -0.546875 1.484375q-0.203125 0.84375 -0.203125 1.359375zm3.7617188 -2.46875q0 -0.3125 0.15625 -0.703125q0.15625 -0.390625 0.515625 -0.671875q0.359375 -0.28125 0.84375 -0.28125q0.53125 0 0.875 0.34375q0.34375 0.34375 0.34375 0.875q0 0.59375 -0.390625 1.15625q-0.390625 0.5625 -1.078125 0.5625q-0.40625 0 -0.703125 -0.15625q-0.296875 -0.15625 -0.4375 -0.421875q-0.125 -0.265625 -0.125 -0.703125zm0.578125 -0.015625q0 0.359375 0.125 0.53125q0.1875 0.265625 0.5 0.265625q0.21875 0 0.4375 -0.140625q0.21875 -0.15625 0.359375 -0.453125q0.15625 -0.3125 0.15625 -0.625q0 -0.3125 -0.1875 -0.5q-0.1875 -0.203125 -0.453125 -0.203125q-0.25 0 -0.46875 0.171875q-0.21875 0.15625 -0.34375 0.453125q-0.125 0.28125 -0.125 0.5zm3.375 -1.640625q0.609375 1.34375 0.609375 2.765625q0 0.9375 -0.25 1.75q-0.25 0.8125 -0.75 1.625q-0.34375 0.53125 -1.078125 1.375l-0.546875 0q0.453125 -0.5 0.953125 -1.390625q0.515625 -0.875 0.75 -1.734375q0.234375 -0.859375 0.234375 -1.71875q0 -1.296875 -0.453125 -2.671875l0.53125 0zm1.5078125 5.828125l0.171875 -0.796875l0.796875 0l-0.140625 0.6875q-0.140625 0.640625 -0.421875 0.921875q-0.265625 0.296875 -0.65625 0.34375l0.078125 -0.3125q0.453125 -0.125 0.609375 -0.84375l-0.4375 0zm4.3828125 -1.71875l0.140625 -0.703125l2.15625 0l-0.140625 0.703125l-2.15625 0zm2.5546875 1.71875l0.875 -4.15625l0.625 0l-0.1875 0.859375q0.328125 -0.484375 0.625 -0.71875q0.3125 -0.234375 0.640625 -0.234375q0.203125 0 0.515625 0.15625l-0.296875 0.65625q-0.171875 -0.125 -0.390625 -0.125q-0.375 0 -0.765625 0.421875q-0.390625 0.40625 -0.609375 1.46875l-0.359375 1.671875l-0.671875 0zm2.7265625 -1.421875l0.71875 -0.046875q0 0.3125 0.09375 0.53125q0.09375 0.203125 0.34375 0.34375q0.25 0.140625 0.578125 0.140625q0.46875 0 0.703125 -0.1875q0.234375 -0.1875 0.234375 -0.4375q0 -0.1875 -0.140625 -0.359375q-0.140625 -0.15625 -0.703125 -0.390625q-0.5625 -0.25 -0.71875 -0.34375q-0.25 -0.15625 -0.390625 -0.375q-0.125 -0.21875 -0.125 -0.5q0 -0.5 0.390625 -0.84375q0.390625 -0.359375 1.09375 -0.359375q0.78125 0 1.1875 0.375q0.40625 0.359375 0.421875 0.9375l-0.6875 0.046875q-0.015625 -0.375 -0.265625 -0.59375q-0.25 -0.21875 -0.71875 -0.21875q-0.359375 0 -0.5625 0.171875q-0.203125 0.171875 -0.203125 0.359375q0 0.203125 0.171875 0.34375q0.125 0.109375 0.609375 0.3125q0.8125 0.359375 1.015625 0.5625q0.34375 0.328125 0.34375 0.78125q0 0.3125 -0.1875 0.609375q-0.1875 0.296875 -0.578125 0.484375q-0.390625 0.171875 -0.921875 0.171875q-0.71875 0 -1.21875 -0.359375q-0.5 -0.359375 -0.484375 -1.15625zm4.9375 -3.5l0.171875 -0.8125l0.703125 0l-0.171875 0.8125l-0.703125 0zm-1.03125 4.921875l0.875 -4.15625l0.703125 0l-0.859375 4.15625l-0.71875 0zm1.8085938 0l0.875 -4.15625l0.640625 0l-0.15625 0.734375q0.421875 -0.4375 0.78125 -0.625q0.359375 -0.203125 0.734375 -0.203125q0.515625 0 0.796875 0.28125q0.28125 0.265625 0.28125 0.734375q0 0.21875 -0.09375 0.71875l-0.53125 2.515625l-0.703125 0l0.546875 -2.625q0.078125 -0.390625 0.078125 -0.578125q0 -0.203125 -0.140625 -0.328125q-0.140625 -0.125 -0.40625 -0.125q-0.546875 0 -0.96875 0.390625q-0.421875 0.390625 -0.625 1.328125l-0.40625 1.9375l-0.703125 0zm5.7929688 -3.328125q0.296875 -0.234375 0.59375 -0.359375q0.296875 -0.125 0.578125 -0.125q0.65625 0 1.078125 0.453125q0.4375 0.4375 0.4375 1.1875q0 0.96875 -0.640625 1.671875q-0.546875 0.59375 -1.328125 0.59375q-0.703125 0 -1.1875 -0.515625q-0.46875 -0.53125 -0.46875 -1.484375q0 -0.875 0.296875 -1.796875q0.234375 -0.703125 0.578125 -1.15625q0.359375 -0.46875 0.734375 -0.671875q0.390625 -0.21875 0.890625 -0.21875q0.578125 0 0.953125 0.375q0.375 0.359375 0.421875 1.03125l-0.65625 0.0625q-0.0625 -0.46875 -0.265625 -0.671875q-0.203125 -0.203125 -0.515625 -0.203125q-0.3125 0 -0.640625 0.25q-0.3125 0.234375 -0.546875 0.71875q-0.21875 0.484375 -0.3125 0.859375zm-0.25 1.71875q0 0.484375 0.296875 0.8125q0.3125 0.328125 0.6875 0.328125q0.265625 0 0.5625 -0.203125q0.296875 -0.203125 0.5 -0.609375q0.21875 -0.40625 0.21875 -0.8125q0 -0.53125 -0.296875 -0.84375q-0.28125 -0.3125 -0.6875 -0.3125q-0.46875 0 -0.875 0.46875q-0.40625 0.453125 -0.40625 1.171875zm3.6523438 -0.265625q0 -0.734375 0.21875 -1.484375q0.21875 -0.75 0.484375 -1.1875q0.265625 -0.453125 0.546875 -0.703125q0.296875 -0.265625 0.5625 -0.375q0.28125 -0.125 0.609375 -0.125q0.65625 0 1.09375 0.484375q0.453125 0.484375 0.453125 1.40625q0 0.953125 -0.3125 1.890625q-0.359375 1.09375 -1.0 1.640625q-0.484375 0.421875 -1.125 0.421875q-0.640625 0 -1.09375 -0.5q-0.4375 -0.515625 -0.4375 -1.46875zm0.6875 0.171875q0 0.53125 0.171875 0.828125q0.25 0.40625 0.71875 0.40625q0.40625 0 0.734375 -0.375q0.484375 -0.515625 0.734375 -1.515625q0.25 -1.015625 0.25 -1.65625q0 -0.625 -0.25 -0.890625q-0.234375 -0.28125 -0.609375 -0.28125q-0.28125 0 -0.53125 0.15625q-0.25 0.140625 -0.46875 0.484375q-0.3125 0.5 -0.546875 1.484375q-0.203125 0.84375 -0.203125 1.359375zm3.7617188 -2.46875q0 -0.3125 0.15625 -0.703125q0.15625 -0.390625 0.515625 -0.671875q0.359375 -0.28125 0.84375 -0.28125q0.53125 0 0.875 0.34375q0.34375 0.34375 0.34375 0.875q0 0.59375 -0.390625 1.15625q-0.390625 0.5625 -1.078125 0.5625q-0.40625 0 -0.703125 -0.15625q-0.296875 -0.15625 -0.4375 -0.421875q-0.125 -0.265625 -0.125 -0.703125zm0.578125 -0.015625q0 0.359375 0.125 0.53125q0.1875 0.265625 0.5 0.265625q0.21875 0 0.4375 -0.140625q0.21875 -0.15625 0.359375 -0.453125q0.15625 -0.3125 0.15625 -0.625q0 -0.3125 -0.1875 -0.5q-0.1875 -0.203125 -0.453125 -0.203125q-0.25 0 -0.46875 0.171875q-0.21875 0.15625 -0.34375 0.453125q-0.125 0.28125 -0.125 0.5zm3.375 -1.640625q0.609375 1.34375 0.609375 2.765625q0 0.9375 -0.25 1.75q-0.25 0.8125 -0.75 1.625q-0.34375 0.53125 -1.078125 1.375l-0.546875 0q0.453125 -0.5 0.953125 -1.390625q0.515625 -0.875 0.75 -1.734375q0.234375 -0.859375 0.234375 -1.71875q0 -1.296875 -0.453125 -2.671875l0.53125 0z" fill-rule="nonzero"/></g></svg>