<?xml version="1.0" encoding="utf-8"?>
<svg width="100%" height="100%" viewBox="139.084 117.768 615.582 359.127" version="1.1" style="fill-rule:evenodd;clip-rule:evenodd;stroke-linejoin:round;stroke-miterlimit:2;" xmlns="http://www.w3.org/2000/svg">
  <g transform="matrix(1,0,0,1,-34.8561,-30.9669)">
    <rect x="173.94" y="148.735" width="359.127" height="359.127" style="fill:rgb(255,229,0);"/>
  </g>
  <g transform="matrix(2.91553,0,0,2.91553,-521.096,-827.967)">
    <g transform="matrix(12,0,0,12,261.463,433.74)">
      <path d="M0.579,-0.742L0.579,0L0.511,0L0.511,-0.104C0.49,-0.069 0.462,-0.042 0.427,-0.023C0.392,-0.004 0.352,0.005 0.308,0.005C0.259,0.005 0.214,-0.006 0.174,-0.029C0.134,-0.052 0.103,-0.083 0.08,-0.124C0.057,-0.165 0.046,-0.211 0.046,-0.263C0.046,-0.315 0.057,-0.361 0.08,-0.402C0.103,-0.443 0.134,-0.474 0.174,-0.497C0.214,-0.519 0.259,-0.53 0.308,-0.53C0.351,-0.53 0.389,-0.521 0.424,-0.504C0.458,-0.486 0.486,-0.46 0.508,-0.426L0.508,-0.742L0.579,-0.742ZM0.314,-0.058C0.351,-0.058 0.384,-0.067 0.414,-0.084C0.443,-0.1 0.466,-0.125 0.484,-0.156C0.501,-0.187 0.509,-0.223 0.509,-0.263C0.509,-0.303 0.501,-0.339 0.484,-0.37C0.466,-0.401 0.443,-0.426 0.414,-0.443C0.384,-0.46 0.351,-0.468 0.314,-0.468C0.277,-0.468 0.243,-0.46 0.214,-0.443C0.184,-0.426 0.161,-0.401 0.144,-0.37C0.127,-0.339 0.118,-0.303 0.118,-0.263C0.118,-0.223 0.127,-0.187 0.144,-0.156C0.161,-0.125 0.184,-0.1 0.214,-0.084C0.243,-0.067 0.277,-0.058 0.314,-0.058Z" style="fill-rule:nonzero;"/>
    </g>
    <g transform="matrix(12,0,0,12,270.199,433.74)">
      <path d="M0.557,-0.241L0.117,-0.241C0.121,-0.186 0.142,-0.142 0.18,-0.109C0.218,-0.075 0.266,-0.058 0.324,-0.058C0.357,-0.058 0.387,-0.064 0.414,-0.076C0.441,-0.087 0.465,-0.104 0.485,-0.127L0.525,-0.081C0.502,-0.053 0.472,-0.032 0.438,-0.017C0.403,-0.002 0.364,0.005 0.322,0.005C0.268,0.005 0.22,-0.007 0.179,-0.03C0.137,-0.053 0.104,-0.084 0.081,-0.125C0.058,-0.166 0.046,-0.212 0.046,-0.263C0.046,-0.314 0.057,-0.36 0.08,-0.401C0.102,-0.442 0.133,-0.473 0.172,-0.496C0.211,-0.519 0.254,-0.53 0.303,-0.53C0.352,-0.53 0.395,-0.519 0.434,-0.496C0.473,-0.473 0.503,-0.442 0.525,-0.402C0.547,-0.361 0.558,-0.315 0.558,-0.263L0.557,-0.241ZM0.303,-0.469C0.252,-0.469 0.21,-0.453 0.176,-0.421C0.141,-0.388 0.122,-0.346 0.117,-0.294L0.49,-0.294C0.485,-0.346 0.466,-0.388 0.432,-0.421C0.397,-0.453 0.354,-0.469 0.303,-0.469Z" style="fill-rule:nonzero;"/>
    </g>
    <g transform="matrix(12,0,0,12,277.927,433.74)">
      <path d="M0.541,-0.526L0.307,0L0.234,0L0.001,-0.526L0.075,-0.526L0.272,-0.078L0.471,-0.526L0.541,-0.526Z" style="fill-rule:nonzero;"/>
    </g>
    <g transform="matrix(12,0,0,12,284.851,433.74)">
      <path d="M0.557,-0.241L0.117,-0.241C0.121,-0.186 0.142,-0.142 0.18,-0.109C0.218,-0.075 0.266,-0.058 0.324,-0.058C0.357,-0.058 0.387,-0.064 0.414,-0.076C0.441,-0.087 0.465,-0.104 0.485,-0.127L0.525,-0.081C0.502,-0.053 0.472,-0.032 0.438,-0.017C0.403,-0.002 0.364,0.005 0.322,0.005C0.268,0.005 0.22,-0.007 0.179,-0.03C0.137,-0.053 0.104,-0.084 0.081,-0.125C0.058,-0.166 0.046,-0.212 0.046,-0.263C0.046,-0.314 0.057,-0.36 0.08,-0.401C0.102,-0.442 0.133,-0.473 0.172,-0.496C0.211,-0.519 0.254,-0.53 0.303,-0.53C0.352,-0.53 0.395,-0.519 0.434,-0.496C0.473,-0.473 0.503,-0.442 0.525,-0.402C0.547,-0.361 0.558,-0.315 0.558,-0.263L0.557,-0.241ZM0.303,-0.469C0.252,-0.469 0.21,-0.453 0.176,-0.421C0.141,-0.388 0.122,-0.346 0.117,-0.294L0.49,-0.294C0.485,-0.346 0.466,-0.388 0.432,-0.421C0.397,-0.453 0.354,-0.469 0.303,-0.469Z" style="fill-rule:nonzero;"/>
    </g>
    <g transform="matrix(12,0,0,12,292.699,433.74)">
      <rect x="0.099" y="-0.742" width="0.071" height="0.742" style="fill-rule:nonzero;"/>
    </g>
    <g transform="matrix(12,0,0,12,296.527,433.74)">
      <path d="M0.314,0.005C0.263,0.005 0.218,-0.007 0.177,-0.03C0.136,-0.053 0.104,-0.084 0.081,-0.125C0.058,-0.166 0.046,-0.212 0.046,-0.263C0.046,-0.314 0.058,-0.36 0.081,-0.401C0.104,-0.442 0.136,-0.473 0.177,-0.496C0.218,-0.519 0.263,-0.53 0.314,-0.53C0.365,-0.53 0.41,-0.519 0.451,-0.496C0.492,-0.473 0.524,-0.442 0.547,-0.401C0.57,-0.36 0.581,-0.314 0.581,-0.263C0.581,-0.212 0.57,-0.166 0.547,-0.125C0.524,-0.084 0.492,-0.053 0.451,-0.03C0.41,-0.007 0.365,0.005 0.314,0.005ZM0.314,-0.058C0.351,-0.058 0.385,-0.067 0.415,-0.084C0.444,-0.1 0.467,-0.125 0.484,-0.156C0.501,-0.187 0.509,-0.223 0.509,-0.263C0.509,-0.303 0.501,-0.339 0.484,-0.37C0.467,-0.401 0.444,-0.426 0.415,-0.443C0.385,-0.46 0.351,-0.468 0.314,-0.468C0.277,-0.468 0.243,-0.46 0.214,-0.443C0.184,-0.426 0.161,-0.401 0.144,-0.37C0.127,-0.339 0.118,-0.303 0.118,-0.263C0.118,-0.223 0.127,-0.187 0.144,-0.156C0.161,-0.125 0.184,-0.1 0.214,-0.084C0.243,-0.067 0.277,-0.058 0.314,-0.058Z" style="fill-rule:nonzero;"/>
    </g>
    <g transform="matrix(12,0,0,12,304.651,433.74)">
      <path d="M0.37,-0.53C0.419,-0.53 0.464,-0.519 0.504,-0.497C0.544,-0.474 0.575,-0.443 0.598,-0.402C0.621,-0.361 0.632,-0.315 0.632,-0.263C0.632,-0.21 0.621,-0.164 0.598,-0.123C0.575,-0.082 0.544,-0.051 0.505,-0.029C0.465,-0.006 0.42,0.005 0.37,0.005C0.327,0.005 0.289,-0.004 0.255,-0.022C0.22,-0.039 0.192,-0.065 0.17,-0.099L0.17,0.194L0.099,0.194L0.099,-0.526L0.167,-0.526L0.167,-0.422C0.188,-0.457 0.217,-0.483 0.252,-0.502C0.286,-0.521 0.326,-0.53 0.37,-0.53ZM0.365,-0.058C0.402,-0.058 0.435,-0.067 0.465,-0.084C0.495,-0.1 0.519,-0.125 0.536,-0.156C0.553,-0.187 0.561,-0.223 0.561,-0.263C0.561,-0.303 0.553,-0.339 0.536,-0.37C0.519,-0.401 0.495,-0.425 0.465,-0.442C0.435,-0.459 0.402,-0.468 0.365,-0.468C0.328,-0.468 0.294,-0.459 0.265,-0.442C0.235,-0.425 0.212,-0.401 0.195,-0.37C0.178,-0.339 0.169,-0.303 0.169,-0.263C0.169,-0.223 0.178,-0.187 0.195,-0.156C0.212,-0.125 0.235,-0.1 0.265,-0.084C0.294,-0.067 0.328,-0.058 0.365,-0.058Z" style="fill-rule:nonzero;"/>
    </g>
    <g transform="matrix(12,0,0,12,313.387,433.74)">
      <path d="M0.557,-0.241L0.117,-0.241C0.121,-0.186 0.142,-0.142 0.18,-0.109C0.218,-0.075 0.266,-0.058 0.324,-0.058C0.357,-0.058 0.387,-0.064 0.414,-0.076C0.441,-0.087 0.465,-0.104 0.485,-0.127L0.525,-0.081C0.502,-0.053 0.472,-0.032 0.438,-0.017C0.403,-0.002 0.364,0.005 0.322,0.005C0.268,0.005 0.22,-0.007 0.179,-0.03C0.137,-0.053 0.104,-0.084 0.081,-0.125C0.058,-0.166 0.046,-0.212 0.046,-0.263C0.046,-0.314 0.057,-0.36 0.08,-0.401C0.102,-0.442 0.133,-0.473 0.172,-0.496C0.211,-0.519 0.254,-0.53 0.303,-0.53C0.352,-0.53 0.395,-0.519 0.434,-0.496C0.473,-0.473 0.503,-0.442 0.525,-0.402C0.547,-0.361 0.558,-0.315 0.558,-0.263L0.557,-0.241ZM0.303,-0.469C0.252,-0.469 0.21,-0.453 0.176,-0.421C0.141,-0.388 0.122,-0.346 0.117,-0.294L0.49,-0.294C0.485,-0.346 0.466,-0.388 0.432,-0.421C0.397,-0.453 0.354,-0.469 0.303,-0.469Z" style="fill-rule:nonzero;"/>
    </g>
    <g transform="matrix(12,0,0,12,321.235,433.74)">
      <path d="M0.167,-0.423C0.184,-0.458 0.209,-0.485 0.242,-0.503C0.274,-0.521 0.315,-0.53 0.364,-0.53L0.364,-0.461L0.347,-0.462C0.292,-0.462 0.248,-0.445 0.217,-0.411C0.186,-0.377 0.17,-0.329 0.17,-0.268L0.17,0L0.099,0L0.099,-0.526L0.167,-0.526L0.167,-0.423Z" style="fill-rule:nonzero;"/>
    </g>
    <g transform="matrix(12,0,0,12,330.391,433.74)">
      <path d="M0.367,-0.53C0.433,-0.53 0.486,-0.511 0.525,-0.473C0.564,-0.434 0.583,-0.378 0.583,-0.305L0.583,0L0.512,0L0.512,-0.298C0.512,-0.353 0.498,-0.394 0.471,-0.423C0.444,-0.452 0.405,-0.466 0.354,-0.466C0.297,-0.466 0.253,-0.449 0.22,-0.416C0.187,-0.382 0.17,-0.335 0.17,-0.276L0.17,0L0.099,0L0.099,-0.526L0.167,-0.526L0.167,-0.429C0.186,-0.461 0.213,-0.486 0.248,-0.504C0.282,-0.521 0.322,-0.53 0.367,-0.53Z" style="fill-rule:nonzero;"/>
    </g>
    <g transform="matrix(12,0,0,12,339.139,433.74)">
      <path d="M0.314,0.005C0.263,0.005 0.218,-0.007 0.177,-0.03C0.136,-0.053 0.104,-0.084 0.081,-0.125C0.058,-0.166 0.046,-0.212 0.046,-0.263C0.046,-0.314 0.058,-0.36 0.081,-0.401C0.104,-0.442 0.136,-0.473 0.177,-0.496C0.218,-0.519 0.263,-0.53 0.314,-0.53C0.365,-0.53 0.41,-0.519 0.451,-0.496C0.492,-0.473 0.524,-0.442 0.547,-0.401C0.57,-0.36 0.581,-0.314 0.581,-0.263C0.581,-0.212 0.57,-0.166 0.547,-0.125C0.524,-0.084 0.492,-0.053 0.451,-0.03C0.41,-0.007 0.365,0.005 0.314,0.005ZM0.314,-0.058C0.351,-0.058 0.385,-0.067 0.415,-0.084C0.444,-0.1 0.467,-0.125 0.484,-0.156C0.501,-0.187 0.509,-0.223 0.509,-0.263C0.509,-0.303 0.501,-0.339 0.484,-0.37C0.467,-0.401 0.444,-0.426 0.415,-0.443C0.385,-0.46 0.351,-0.468 0.314,-0.468C0.277,-0.468 0.243,-0.46 0.214,-0.443C0.184,-0.426 0.161,-0.401 0.144,-0.37C0.127,-0.339 0.118,-0.303 0.118,-0.263C0.118,-0.223 0.127,-0.187 0.144,-0.156C0.161,-0.125 0.184,-0.1 0.214,-0.084C0.243,-0.067 0.277,-0.058 0.314,-0.058Z" style="fill-rule:nonzero;"/>
    </g>
    <g transform="matrix(12,0,0,12,347.263,433.74)">
      <path d="M0.376,-0.032C0.363,-0.02 0.346,-0.011 0.327,-0.005C0.307,0.002 0.286,0.005 0.265,0.005C0.216,0.005 0.178,-0.008 0.151,-0.035C0.124,-0.062 0.111,-0.099 0.111,-0.148L0.111,-0.466L0.017,-0.466L0.017,-0.526L0.111,-0.526L0.111,-0.641L0.182,-0.641L0.182,-0.526L0.342,-0.526L0.342,-0.466L0.182,-0.466L0.182,-0.152C0.182,-0.121 0.19,-0.097 0.206,-0.081C0.221,-0.064 0.244,-0.056 0.273,-0.056C0.288,-0.056 0.302,-0.058 0.316,-0.063C0.329,-0.068 0.341,-0.074 0.351,-0.083L0.376,-0.032Z" style="fill-rule:nonzero;"/>
    </g>
    <g transform="matrix(12,0,0,12,352.507,433.74)">
      <path d="M0.557,-0.241L0.117,-0.241C0.121,-0.186 0.142,-0.142 0.18,-0.109C0.218,-0.075 0.266,-0.058 0.324,-0.058C0.357,-0.058 0.387,-0.064 0.414,-0.076C0.441,-0.087 0.465,-0.104 0.485,-0.127L0.525,-0.081C0.502,-0.053 0.472,-0.032 0.438,-0.017C0.403,-0.002 0.364,0.005 0.322,0.005C0.268,0.005 0.22,-0.007 0.179,-0.03C0.137,-0.053 0.104,-0.084 0.081,-0.125C0.058,-0.166 0.046,-0.212 0.046,-0.263C0.046,-0.314 0.057,-0.36 0.08,-0.401C0.102,-0.442 0.133,-0.473 0.172,-0.496C0.211,-0.519 0.254,-0.53 0.303,-0.53C0.352,-0.53 0.395,-0.519 0.434,-0.496C0.473,-0.473 0.503,-0.442 0.525,-0.402C0.547,-0.361 0.558,-0.315 0.558,-0.263L0.557,-0.241ZM0.303,-0.469C0.252,-0.469 0.21,-0.453 0.176,-0.421C0.141,-0.388 0.122,-0.346 0.117,-0.294L0.49,-0.294C0.485,-0.346 0.466,-0.388 0.432,-0.421C0.397,-0.453 0.354,-0.469 0.303,-0.469Z" style="fill-rule:nonzero;"/>
    </g>
    <g transform="matrix(12,0,0,12,360.355,433.74)">
      <path d="M0.24,0.005C0.197,0.005 0.157,-0.001 0.118,-0.014C0.079,-0.026 0.048,-0.041 0.026,-0.06L0.058,-0.116C0.08,-0.099 0.108,-0.085 0.141,-0.074C0.174,-0.063 0.209,-0.057 0.245,-0.057C0.293,-0.057 0.329,-0.065 0.352,-0.08C0.375,-0.095 0.386,-0.116 0.386,-0.143C0.386,-0.162 0.38,-0.178 0.367,-0.189C0.354,-0.2 0.338,-0.208 0.319,-0.214C0.3,-0.219 0.274,-0.225 0.242,-0.23C0.199,-0.238 0.165,-0.246 0.139,-0.255C0.113,-0.263 0.091,-0.277 0.073,-0.297C0.054,-0.317 0.045,-0.345 0.045,-0.38C0.045,-0.424 0.063,-0.46 0.1,-0.488C0.137,-0.516 0.188,-0.53 0.253,-0.53C0.287,-0.53 0.321,-0.526 0.355,-0.517C0.389,-0.507 0.417,-0.496 0.439,-0.481L0.408,-0.424C0.365,-0.454 0.313,-0.469 0.253,-0.469C0.208,-0.469 0.173,-0.461 0.151,-0.445C0.128,-0.429 0.116,-0.408 0.116,-0.382C0.116,-0.362 0.123,-0.346 0.136,-0.334C0.149,-0.322 0.165,-0.313 0.184,-0.308C0.203,-0.302 0.23,-0.296 0.264,-0.29C0.306,-0.282 0.34,-0.274 0.365,-0.266C0.39,-0.258 0.412,-0.244 0.43,-0.225C0.448,-0.206 0.457,-0.179 0.457,-0.145C0.457,-0.099 0.438,-0.063 0.4,-0.036C0.361,-0.009 0.308,0.005 0.24,0.005Z" style="fill-rule:nonzero;"/>
    </g>
    <g transform="matrix(12,0,0,12,370.567,433.74)">
      <path d="M0.615,0.011L0.518,-0.089C0.459,-0.026 0.381,0.006 0.284,0.006C0.239,0.006 0.198,-0.002 0.163,-0.017C0.127,-0.032 0.099,-0.053 0.079,-0.08C0.059,-0.107 0.049,-0.137 0.049,-0.172C0.049,-0.214 0.062,-0.252 0.089,-0.285C0.116,-0.318 0.161,-0.353 0.225,-0.39C0.192,-0.425 0.169,-0.454 0.156,-0.479C0.143,-0.503 0.137,-0.529 0.137,-0.556C0.137,-0.601 0.153,-0.637 0.185,-0.664C0.217,-0.691 0.26,-0.705 0.314,-0.705C0.364,-0.705 0.404,-0.693 0.433,-0.668C0.462,-0.643 0.477,-0.609 0.477,-0.566C0.477,-0.531 0.465,-0.5 0.442,-0.473C0.419,-0.445 0.378,-0.414 0.321,-0.381L0.513,-0.183C0.534,-0.221 0.55,-0.266 0.56,-0.318L0.618,-0.3C0.605,-0.237 0.585,-0.184 0.556,-0.139L0.656,-0.036L0.615,0.011ZM0.314,-0.652C0.279,-0.652 0.252,-0.643 0.233,-0.626C0.213,-0.609 0.203,-0.586 0.203,-0.557C0.203,-0.536 0.208,-0.517 0.219,-0.498C0.23,-0.479 0.251,-0.454 0.282,-0.422C0.333,-0.451 0.368,-0.476 0.387,-0.497C0.406,-0.518 0.416,-0.54 0.416,-0.565C0.416,-0.592 0.407,-0.613 0.389,-0.629C0.371,-0.644 0.346,-0.652 0.314,-0.652ZM0.288,-0.053C0.365,-0.053 0.428,-0.079 0.476,-0.132L0.265,-0.349C0.21,-0.318 0.171,-0.289 0.151,-0.264C0.13,-0.239 0.119,-0.21 0.119,-0.179C0.119,-0.141 0.135,-0.111 0.166,-0.088C0.197,-0.065 0.237,-0.053 0.288,-0.053Z" style="fill-rule:nonzero;"/>
    </g>
    <g transform="matrix(12,0,0,12,382.939,433.74)">
      <path d="M0.376,-0.032C0.363,-0.02 0.346,-0.011 0.327,-0.005C0.307,0.002 0.286,0.005 0.265,0.005C0.216,0.005 0.178,-0.008 0.151,-0.035C0.124,-0.062 0.111,-0.099 0.111,-0.148L0.111,-0.466L0.017,-0.466L0.017,-0.526L0.111,-0.526L0.111,-0.641L0.182,-0.641L0.182,-0.526L0.342,-0.526L0.342,-0.466L0.182,-0.466L0.182,-0.152C0.182,-0.121 0.19,-0.097 0.206,-0.081C0.221,-0.064 0.244,-0.056 0.273,-0.056C0.288,-0.056 0.302,-0.058 0.316,-0.063C0.329,-0.068 0.341,-0.074 0.351,-0.083L0.376,-0.032Z" style="fill-rule:nonzero;"/>
    </g>
    <g transform="matrix(12,0,0,12,388.411,433.74)">
      <path d="M0.573,-0.526L0.573,0L0.505,0L0.505,-0.096C0.486,-0.064 0.461,-0.039 0.428,-0.022C0.395,-0.004 0.358,0.005 0.316,0.005C0.247,0.005 0.193,-0.014 0.154,-0.053C0.114,-0.091 0.094,-0.147 0.094,-0.221L0.094,-0.526L0.165,-0.526L0.165,-0.228C0.165,-0.173 0.179,-0.131 0.206,-0.102C0.233,-0.073 0.272,-0.059 0.323,-0.059C0.378,-0.059 0.422,-0.076 0.454,-0.11C0.486,-0.143 0.502,-0.19 0.502,-0.25L0.502,-0.526L0.573,-0.526Z" style="fill-rule:nonzero;"/>
    </g>
    <g transform="matrix(12,0,0,12,397.087,433.74)">
      <path d="M0.376,-0.032C0.363,-0.02 0.346,-0.011 0.327,-0.005C0.307,0.002 0.286,0.005 0.265,0.005C0.216,0.005 0.178,-0.008 0.151,-0.035C0.124,-0.062 0.111,-0.099 0.111,-0.148L0.111,-0.466L0.017,-0.466L0.017,-0.526L0.111,-0.526L0.111,-0.641L0.182,-0.641L0.182,-0.526L0.342,-0.526L0.342,-0.466L0.182,-0.466L0.182,-0.152C0.182,-0.121 0.19,-0.097 0.206,-0.081C0.221,-0.064 0.244,-0.056 0.273,-0.056C0.288,-0.056 0.302,-0.058 0.316,-0.063C0.329,-0.068 0.341,-0.074 0.351,-0.083L0.376,-0.032Z" style="fill-rule:nonzero;"/>
    </g>
    <g transform="matrix(12,0,0,12,402.331,433.74)">
      <path d="M0.314,0.005C0.263,0.005 0.218,-0.007 0.177,-0.03C0.136,-0.053 0.104,-0.084 0.081,-0.125C0.058,-0.166 0.046,-0.212 0.046,-0.263C0.046,-0.314 0.058,-0.36 0.081,-0.401C0.104,-0.442 0.136,-0.473 0.177,-0.496C0.218,-0.519 0.263,-0.53 0.314,-0.53C0.365,-0.53 0.41,-0.519 0.451,-0.496C0.492,-0.473 0.524,-0.442 0.547,-0.401C0.57,-0.36 0.581,-0.314 0.581,-0.263C0.581,-0.212 0.57,-0.166 0.547,-0.125C0.524,-0.084 0.492,-0.053 0.451,-0.03C0.41,-0.007 0.365,0.005 0.314,0.005ZM0.314,-0.058C0.351,-0.058 0.385,-0.067 0.415,-0.084C0.444,-0.1 0.467,-0.125 0.484,-0.156C0.501,-0.187 0.509,-0.223 0.509,-0.263C0.509,-0.303 0.501,-0.339 0.484,-0.37C0.467,-0.401 0.444,-0.426 0.415,-0.443C0.385,-0.46 0.351,-0.468 0.314,-0.468C0.277,-0.468 0.243,-0.46 0.214,-0.443C0.184,-0.426 0.161,-0.401 0.144,-0.37C0.127,-0.339 0.118,-0.303 0.118,-0.263C0.118,-0.223 0.127,-0.187 0.144,-0.156C0.161,-0.125 0.184,-0.1 0.214,-0.084C0.243,-0.067 0.277,-0.058 0.314,-0.058Z" style="fill-rule:nonzero;"/>
    </g>
    <g transform="matrix(12,0,0,12,410.455,433.74)">
      <path d="M0.167,-0.423C0.184,-0.458 0.209,-0.485 0.242,-0.503C0.274,-0.521 0.315,-0.53 0.364,-0.53L0.364,-0.461L0.347,-0.462C0.292,-0.462 0.248,-0.445 0.217,-0.411C0.186,-0.377 0.17,-0.329 0.17,-0.268L0.17,0L0.099,0L0.099,-0.526L0.167,-0.526L0.167,-0.423Z" style="fill-rule:nonzero;"/>
    </g>
    <g transform="matrix(12,0,0,12,415.771,433.74)">
      <path d="M0.099,-0.526L0.17,-0.526L0.17,0L0.099,0L0.099,-0.526ZM0.135,-0.641C0.12,-0.641 0.108,-0.646 0.098,-0.656C0.088,-0.666 0.083,-0.678 0.083,-0.692C0.083,-0.705 0.088,-0.717 0.098,-0.727C0.108,-0.737 0.12,-0.742 0.135,-0.742C0.15,-0.742 0.162,-0.737 0.172,-0.728C0.182,-0.718 0.187,-0.706 0.187,-0.693C0.187,-0.678 0.182,-0.666 0.172,-0.656C0.162,-0.646 0.15,-0.641 0.135,-0.641Z" style="fill-rule:nonzero;"/>
    </g>
    <g transform="matrix(12,0,0,12,419.599,433.74)">
      <path d="M0.283,-0.53C0.352,-0.53 0.404,-0.513 0.441,-0.479C0.478,-0.444 0.496,-0.393 0.496,-0.326L0.496,0L0.428,0L0.428,-0.082C0.412,-0.055 0.389,-0.033 0.358,-0.018C0.327,-0.003 0.29,0.005 0.247,0.005C0.188,0.005 0.142,-0.009 0.107,-0.037C0.072,-0.065 0.055,-0.102 0.055,-0.148C0.055,-0.193 0.071,-0.229 0.104,-0.256C0.136,-0.283 0.187,-0.297 0.258,-0.297L0.425,-0.297L0.425,-0.329C0.425,-0.374 0.412,-0.409 0.387,-0.433C0.362,-0.456 0.325,-0.468 0.276,-0.468C0.243,-0.468 0.211,-0.463 0.18,-0.452C0.149,-0.44 0.123,-0.425 0.101,-0.406L0.069,-0.459C0.096,-0.482 0.128,-0.499 0.165,-0.512C0.202,-0.524 0.242,-0.53 0.283,-0.53ZM0.258,-0.051C0.298,-0.051 0.332,-0.06 0.361,-0.079C0.39,-0.097 0.411,-0.123 0.425,-0.158L0.425,-0.244L0.26,-0.244C0.17,-0.244 0.125,-0.213 0.125,-0.15C0.125,-0.119 0.137,-0.095 0.16,-0.078C0.183,-0.06 0.216,-0.051 0.258,-0.051Z" style="fill-rule:nonzero;"/>
    </g>
    <g transform="matrix(12,0,0,12,427.279,433.74)">
      <rect x="0.099" y="-0.742" width="0.071" height="0.742" style="fill-rule:nonzero;"/>
    </g>
    <g transform="matrix(12,0,0,12,431.107,433.74)">
      <path d="M0.24,0.005C0.197,0.005 0.157,-0.001 0.118,-0.014C0.079,-0.026 0.048,-0.041 0.026,-0.06L0.058,-0.116C0.08,-0.099 0.108,-0.085 0.141,-0.074C0.174,-0.063 0.209,-0.057 0.245,-0.057C0.293,-0.057 0.329,-0.065 0.352,-0.08C0.375,-0.095 0.386,-0.116 0.386,-0.143C0.386,-0.162 0.38,-0.178 0.367,-0.189C0.354,-0.2 0.338,-0.208 0.319,-0.214C0.3,-0.219 0.274,-0.225 0.242,-0.23C0.199,-0.238 0.165,-0.246 0.139,-0.255C0.113,-0.263 0.091,-0.277 0.073,-0.297C0.054,-0.317 0.045,-0.345 0.045,-0.38C0.045,-0.424 0.063,-0.46 0.1,-0.488C0.137,-0.516 0.188,-0.53 0.253,-0.53C0.287,-0.53 0.321,-0.526 0.355,-0.517C0.389,-0.507 0.417,-0.496 0.439,-0.481L0.408,-0.424C0.365,-0.454 0.313,-0.469 0.253,-0.469C0.208,-0.469 0.173,-0.461 0.151,-0.445C0.128,-0.429 0.116,-0.408 0.116,-0.382C0.116,-0.362 0.123,-0.346 0.136,-0.334C0.149,-0.322 0.165,-0.313 0.184,-0.308C0.203,-0.302 0.23,-0.296 0.264,-0.29C0.306,-0.282 0.34,-0.274 0.365,-0.266C0.39,-0.258 0.412,-0.244 0.43,-0.225C0.448,-0.206 0.457,-0.179 0.457,-0.145C0.457,-0.099 0.438,-0.063 0.4,-0.036C0.361,-0.009 0.308,0.005 0.24,0.005Z" style="fill-rule:nonzero;"/>
    </g>
  </g>
  <g transform="matrix(1,0,0,1,0,-20)">
    <g transform="matrix(1,0,0,1,-556.77,44.2755)">
      <g transform="matrix(288,0,0,288,774.111,360.046)">
        <path d="M0.625,-0.13L0.625,0L0.083,0L0.083,-0.7L0.612,-0.7L0.612,-0.57L0.244,-0.57L0.244,-0.418L0.569,-0.418L0.569,-0.292L0.244,-0.292L0.244,-0.13L0.625,-0.13Z" style="fill-rule:nonzero;"/>
      </g>
    </g>
    <g transform="matrix(1,0,0,1,-577.837,-24.9329)">
      <g transform="matrix(144,0,0,144,989.745,391.953)">
        <path d="M0.419,-0.026C0.404,-0.015 0.385,-0.006 0.363,-0.001C0.34,0.005 0.317,0.008 0.292,0.008C0.228,0.008 0.179,-0.008 0.144,-0.041C0.109,-0.074 0.091,-0.122 0.091,-0.185L0.091,-0.406L0.008,-0.406L0.008,-0.526L0.091,-0.526L0.091,-0.657L0.247,-0.657L0.247,-0.526L0.381,-0.526L0.381,-0.406L0.247,-0.406L0.247,-0.187C0.247,-0.164 0.253,-0.147 0.265,-0.135C0.276,-0.122 0.293,-0.116 0.314,-0.116C0.339,-0.116 0.36,-0.123 0.377,-0.136L0.419,-0.026Z" style="fill-rule:nonzero;"/>
      </g>
      <g transform="matrix(144,0,0,144,1052.39,391.953)">
        <path d="M0.399,-0.546C0.466,-0.546 0.52,-0.526 0.561,-0.486C0.602,-0.446 0.622,-0.387 0.622,-0.308L0.622,0L0.466,0L0.466,-0.284C0.466,-0.327 0.457,-0.359 0.438,-0.38C0.419,-0.401 0.392,-0.411 0.357,-0.411C0.318,-0.411 0.286,-0.399 0.263,-0.375C0.24,-0.35 0.228,-0.314 0.228,-0.266L0.228,0L0.072,0L0.072,-0.742L0.228,-0.742L0.228,-0.482C0.249,-0.503 0.274,-0.519 0.303,-0.53C0.332,-0.541 0.364,-0.546 0.399,-0.546Z" style="fill-rule:nonzero;"/>
      </g>
      <g transform="matrix(144,0,0,144,1151.89,391.953)">
        <path d="M0.289,-0.546C0.372,-0.546 0.436,-0.526 0.481,-0.487C0.526,-0.447 0.548,-0.387 0.548,-0.307L0.548,0L0.402,0L0.402,-0.067C0.373,-0.017 0.318,0.008 0.238,0.008C0.197,0.008 0.161,0.001 0.131,-0.013C0.1,-0.027 0.077,-0.046 0.061,-0.071C0.045,-0.096 0.037,-0.124 0.037,-0.155C0.037,-0.205 0.056,-0.244 0.094,-0.273C0.131,-0.302 0.189,-0.316 0.268,-0.316L0.392,-0.316C0.392,-0.35 0.382,-0.376 0.361,-0.395C0.34,-0.413 0.309,-0.422 0.268,-0.422C0.239,-0.422 0.211,-0.418 0.184,-0.409C0.156,-0.4 0.132,-0.387 0.113,-0.372L0.057,-0.481C0.086,-0.502 0.122,-0.518 0.163,-0.529C0.204,-0.54 0.246,-0.546 0.289,-0.546ZM0.277,-0.097C0.304,-0.097 0.327,-0.103 0.348,-0.116C0.369,-0.128 0.383,-0.146 0.392,-0.17L0.392,-0.225L0.285,-0.225C0.221,-0.225 0.189,-0.204 0.189,-0.162C0.189,-0.142 0.197,-0.126 0.213,-0.115C0.228,-0.103 0.25,-0.097 0.277,-0.097Z" style="fill-rule:nonzero;"/>
      </g>
      <g transform="matrix(144,0,0,144,1240.74,391.953)">
        <path d="M0.399,-0.546C0.466,-0.546 0.52,-0.526 0.561,-0.486C0.602,-0.446 0.622,-0.387 0.622,-0.308L0.622,0L0.466,0L0.466,-0.284C0.466,-0.327 0.457,-0.359 0.438,-0.38C0.419,-0.401 0.392,-0.411 0.357,-0.411C0.318,-0.411 0.286,-0.399 0.263,-0.375C0.24,-0.35 0.228,-0.314 0.228,-0.266L0.228,0L0.072,0L0.072,-0.538L0.221,-0.538L0.221,-0.475C0.242,-0.498 0.267,-0.515 0.298,-0.528C0.329,-0.54 0.362,-0.546 0.399,-0.546Z" style="fill-rule:nonzero;"/>
      </g>
    </g>
    <g transform="matrix(1,0,0,0.551398,0,204.493)">
      <rect x="241.298" y="391.2" width="513.368" height="5.331"/>
    </g>
  </g>
</svg>