<svg version="1.1" viewBox="0.0 0.0 391.1653543307087 248.31496062992127" fill="none" stroke="none" stroke-linecap="square" stroke-miterlimit="10" xmlns:xlink="http://www.w3.org/1999/xlink" xmlns="http://www.w3.org/2000/svg"><clipPath id="p.0"><path d="m0 0l391.16534 0l0 248.31496l-391.16534 0l0 -248.31496z" clip-rule="nonzero"/></clipPath><g clip-path="url(#p.0)"><path fill="#000000" fill-opacity="0.0" d="m0 0l391.16534 0l0 248.31496l-391.16534 0z" fill-rule="evenodd"/><path fill="#000000" fill-opacity="0.0" d="m90.614174 12.527559l345.7638 0l0 258.70865l-345.7638 0z" fill-rule="evenodd"/><path stroke="#000000" stroke-width="3.0" stroke-linejoin="round" stroke-linecap="butt" d="m90.614174 12.527559l345.7638 0l0 258.70865l-345.7638 0z" fill-rule="evenodd"/><path fill="#000000" fill-opacity="0.0" d="m93.45145 122.89239l0 0c0 -59.64675 48.35324 -108.0 108.0 -108.0l0 0c28.643372 0 56.113586 11.378539 76.36752 31.63247c20.253937 20.25393 31.632477 47.72415 31.632477 76.36753l0 0c0 59.64675 -48.35324 108.00001 -108.0 108.00001l0 0c-59.64676 0 -108.0 -48.353256 -108.0 -108.00001z" fill-rule="evenodd"/><path stroke="#000000" stroke-width="1.0" stroke-linejoin="round" stroke-linecap="butt" stroke-dasharray="4.0,3.0" d="m93.45145 122.89239l0 0c0 -59.64675 48.35324 -108.0 108.0 -108.0l0 0c28.643372 0 56.113586 11.378539 76.36752 31.63247c20.253937 20.25393 31.632477 47.72415 31.632477 76.36753l0 0c0 59.64675 -48.35324 108.00001 -108.0 108.00001l0 0c-59.64676 0 -108.0 -48.353256 -108.0 -108.00001z" fill-rule="evenodd"/><path fill="#000000" fill-opacity="0.0" d="m93.45145 122.89239l216.0 0" fill-rule="evenodd"/><path stroke="#000000" stroke-width="1.0" stroke-linejoin="round" stroke-linecap="butt" d="m93.45145 122.89239l216.0 0" fill-rule="evenodd"/><path fill="#000000" fill-opacity="0.0" d="m201.45145 14.892388l0 216.0" fill-rule="evenodd"/><path stroke="#000000" stroke-width="1.0" stroke-linejoin="round" stroke-linecap="butt" d="m201.45145 14.892388l0 216.0" fill-rule="evenodd"/><path fill="#000000" fill-opacity="0.0" d="m93.45232 122.878624l55.227905 -93.54291l105.54419 0.030778885l55.22789 93.57512l-55.22789 93.542915l-105.54419 -0.030792236z" fill-rule="evenodd"/><path stroke="#e06666" stroke-width="1.0" stroke-linejoin="round" stroke-linecap="butt" d="m93.45232 122.878624l55.227905 -93.54291l105.54419 0.030778885l55.22789 93.57512l-55.22789 93.542915l-105.54419 -0.030792236z" fill-rule="evenodd"/><path fill="#000000" fill-opacity="0.0" d="m142.21523 99.98163l32.125977 0l0 30.803146l-32.125977 0z" fill-rule="evenodd"/><path fill="#000000" d="m153.3871 119.22163l-1.46875 0l0 -5.53125l1.359375 0l0 0.796875q0.34375 -0.5625 0.625 -0.734375q0.28125 -0.1875 0.625 -0.1875q0.5 0 0.96875 0.28125l-0.453125 1.28125q-0.375 -0.25 -0.6875 -0.25q-0.3125 0 -0.53125 0.171875q-0.203125 0.171875 -0.328125 0.625q-0.109375 0.4375 -0.109375 1.84375l0 1.703125z" fill-rule="nonzero"/><path fill="#000000" fill-opacity="0.0" d="m192.30708 114.073494l40.72441 0l0 24.377953l-40.72441 0z" fill-rule="evenodd"/><path fill="#000000" d="m202.60396 132.441q-0.625 -1.34375 -0.625 -2.765625q0 -0.953125 0.25 -1.765625q0.25 -0.8125 0.765625 -1.609375q0.328125 -0.53125 1.0625 -1.375l0.5625 0q-0.46875 0.484375 -0.984375 1.375q-0.5 0.890625 -0.734375 1.75q-0.21875 0.84375 -0.21875 1.71875q0 1.28125 0.4375 2.671875l-0.515625 0zm1.3515625 -1.6875l1.8125 -2.109375l-1.03125 -2.046875l0.78125 0l0.34375 0.75q0.203125 0.40625 0.359375 0.78125l1.1875 -1.53125l0.859375 0l-1.734375 2.109375l1.046875 2.046875l-0.78125 0l-0.421875 -0.84375q-0.125 -0.265625 -0.296875 -0.671875l-1.234375 1.515625l-0.890625 0zm4.453125 0l0.171875 -0.796875l0.796875 0l-0.140625 0.6875q-0.140625 0.640625 -0.421875 0.921875q-0.265625 0.296875 -0.65625 0.34375l0.078125 -0.3125q0.453125 -0.125 0.609375 -0.84375l-0.4375 0zm4.0078125 1.609375l0.046875 -0.671875q0.21875 0.0625 0.421875 0.0625q0.21875 0 0.34375 -0.09375q0.171875 -0.125 0.375 -0.484375l0.234375 -0.40625l-0.6875 -4.171875l0.6875 0l0.3125 2.109375q0.09375 0.609375 0.15625 1.234375l1.859375 -3.34375l0.734375 0l-2.640625 4.703125q-0.375 0.6875 -0.671875 0.90625q-0.296875 0.234375 -0.6875 0.234375q-0.25 0 -0.484375 -0.078125zm5.59375 -7.4375q0.609375 1.34375 0.609375 2.765625q0 0.9375 -0.25 1.75q-0.25 0.8125 -0.75 1.625q-0.34375 0.53125 -1.078125 1.375l-0.546875 0q0.453125 -0.5 0.953125 -1.390625q0.515625 -0.875 0.75 -1.734375q0.234375 -0.859375 0.234375 -1.71875q0 -1.296875 -0.453125 -2.671875l0.53125 0z" fill-rule="nonzero"/><path fill="#000000" fill-opacity="0.0" d="m201.45145 14.892388l0 108.09449" fill-rule="evenodd"/><path stroke="#9900ff" stroke-width="2.0" stroke-linejoin="round" stroke-linecap="butt" d="m201.45145 14.892388l0 96.09449" fill-rule="evenodd"/><path fill="#9900ff" stroke="#9900ff" stroke-width="2.0" stroke-linecap="butt" d="m198.14798 110.98688l3.3034668 9.076195l3.3034668 -9.076195z" fill-rule="evenodd"/><path fill="#000000" fill-opacity="0.0" d="m93.45232 122.878624l108.50394 0" fill-rule="evenodd"/><path stroke="#9900ff" stroke-width="2.0" stroke-linejoin="round" stroke-linecap="butt" d="m93.45232 122.87862l96.50395 0" fill-rule="evenodd"/><path fill="#9900ff" stroke="#9900ff" stroke-width="2.0" stroke-linecap="butt" d="m189.95627 126.18208l9.076187 -3.3034668l-9.076187 -3.3034592z" fill-rule="evenodd"/><path fill="#000000" fill-opacity="0.0" d="m83.438324 4.9422574l40.724403 0l0 24.377953l-40.724403 0z" fill-rule="evenodd"/><path fill="#000000" d="m93.7352 23.309757q-0.625 -1.34375 -0.625 -2.765625q0 -0.953125 0.25 -1.765625q0.25 -0.8125 0.765625 -1.609375q0.328125 -0.53125 1.0625 -1.375l0.5625 0q-0.46875 0.484375 -0.984375 1.375q-0.5 0.890625 -0.734375 1.75q-0.21875 0.84375 -0.21875 1.71875q0 1.28125 0.4375 2.671875l-0.515625 0zm1.9296875 -3.5625q0 -0.734375 0.21875 -1.484375q0.21875 -0.75 0.484375 -1.1875q0.265625 -0.453125 0.546875 -0.703125q0.296875 -0.265625 0.5625 -0.375q0.28125 -0.125 0.609375 -0.125q0.65625 0 1.09375 0.484375q0.453125 0.484375 0.453125 1.40625q0 0.953125 -0.3125 1.890625q-0.359375 1.09375 -1.0 1.640625q-0.484375 0.421875 -1.125 0.421875q-0.640625 0 -1.09375 -0.5q-0.4375 -0.515625 -0.4375 -1.46875zm0.6875 0.171875q0 0.53125 0.171875 0.828125q0.25 0.40625 0.71875 0.40625q0.40625 0 0.734375 -0.375q0.484375 -0.515625 0.734375 -1.515625q0.25 -1.015625 0.25 -1.65625q0 -0.625 -0.25 -0.890625q-0.234375 -0.28125 -0.609375 -0.28125q-0.28125 0 -0.53125 0.15625q-0.25 0.140625 -0.46875 0.484375q-0.3125 0.5 -0.546875 1.484375q-0.203125 0.84375 -0.203125 1.359375zm3.6367188 1.703125l0.171875 -0.796875l0.796875 0l-0.140625 0.6875q-0.140625 0.640625 -0.421875 0.921875q-0.265625 0.296875 -0.65625 0.34375l0.078125 -0.3125q0.453125 -0.125 0.609375 -0.84375l-0.4375 0zm4.5703125 -1.875q0 -0.734375 0.21875 -1.484375q0.21875 -0.75 0.484375 -1.1875q0.265625 -0.453125 0.546875 -0.703125q0.296875 -0.265625 0.5625 -0.375q0.28125 -0.125 0.609375 -0.125q0.65625 0 1.09375 0.484375q0.453125 0.484375 0.453125 1.40625q0 0.953125 -0.3125 1.890625q-0.359375 1.09375 -1.0 1.640625q-0.484375 0.421875 -1.125 0.421875q-0.640625 0 -1.09375 -0.5q-0.4375 -0.515625 -0.4375 -1.46875zm0.6875 0.171875q0 0.53125 0.171875 0.828125q0.25 0.40625 0.71875 0.40625q0.40625 0 0.734375 -0.375q0.484375 -0.515625 0.734375 -1.515625q0.25 -1.015625 0.25 -1.65625q0 -0.625 -0.25 -0.890625q-0.234375 -0.28125 -0.609375 -0.28125q-0.28125 0 -0.53125 0.15625q-0.25 0.140625 -0.46875 0.484375q-0.3125 0.5 -0.546875 1.484375q-0.203125 0.84375 -0.203125 1.359375zm4.7929688 -4.125q0.609375 1.34375 0.609375 2.765625q0 0.9375 -0.25 1.75q-0.25 0.8125 -0.75 1.625q-0.34375 0.53125 -1.078125 1.375l-0.546875 0q0.453125 -0.5 0.953125 -1.390625q0.515625 -0.875 0.75 -1.734375q0.234375 -0.859375 0.234375 -1.71875q0 -1.296875 -0.453125 -2.671875l0.53125 0z" fill-rule="nonzero"/></g></svg>