<svg version="1.1" viewBox="0.0 0.0 218.2204724409449 180.80839895013122" fill="none" stroke="none" stroke-linecap="square" stroke-miterlimit="10" xmlns:xlink="http://www.w3.org/1999/xlink" xmlns="http://www.w3.org/2000/svg"><clipPath id="p.0"><path d="m0 0l218.22047 0l0 180.8084l-218.22047 0l0 -180.8084z" clip-rule="nonzero"/></clipPath><g clip-path="url(#p.0)"><path fill="#000000" fill-opacity="0.0" d="m0 0l218.22047 0l0 180.8084l-218.22047 0z" fill-rule="evenodd"/><path fill="#f4cccc" d="m96.19029 152.29921l0 -139.2126l-81.32284 139.2126z" fill-rule="evenodd"/><path stroke="#000000" stroke-width="1.0" stroke-linejoin="round" stroke-linecap="butt" d="m96.19029 152.29921l0 -139.2126l-81.32284 139.2126z" fill-rule="evenodd"/><path fill="#000000" fill-opacity="0.0" d="m26.181103 132.53806l0 0c5.1163807 0 10.023209 2.105484 13.641037 5.853256c3.6178284 3.7477722 5.650303 8.830841 5.650303 14.130997l-19.29134 0z" fill-rule="evenodd"/><path fill="#000000" fill-opacity="0.0" d="m26.181103 132.53806l0 0c5.1163807 0 10.023209 2.105484 13.641037 5.853256c3.6178284 3.7477722 5.650303 8.830841 5.650303 14.130997" fill-rule="evenodd"/><path stroke="#000000" stroke-width="1.0" stroke-linejoin="round" stroke-linecap="butt" d="m26.181103 132.53806l0 0c5.1163807 0 10.023209 2.105484 13.641037 5.853256c3.6178284 3.7477722 5.650303 8.830841 5.650303 14.130997" fill-rule="evenodd"/><path fill="#000000" fill-opacity="0.0" d="m36.238846 107.07087l38.58268 0l0 14.645668l-38.58268 0z" fill-rule="evenodd"/><path fill="#000000" d="m55.06697 122.574036q-0.921875 2.21875 -2.0625 4.25q-0.0625 0.125 -0.21875 0.359375q-0.15625 0.21875 -0.265625 0.40625q-0.09375 0.1875 -0.15625 0.359375q-0.015625 0.078125 -0.015625 0.21875q0 0.546875 0.203125 0.9375q0.203125 0.375 0.5625 0.375q0.421875 0 0.6875 -0.21875q0.28125 -0.234375 0.515625 -0.96875l0.421875 0.140625q-0.09375 0.5 -0.296875 1.015625q-0.203125 0.5 -0.625 0.953125q-0.40625 0.4375 -0.90625 0.4375q-1.0625 0 -1.0625 -1.78125q0 -0.21875 0.015625 -0.515625l-0.046875 0q-0.59375 0.96875 -1.625 1.640625q-1.03125 0.65625 -2.125 0.65625q-1.265625 0 -1.96875 -0.8125q-0.6875 -0.828125 -0.6875 -2.109375q0 -1.984375 1.5 -3.75q1.5 -1.765625 3.4375 -1.765625q0.578125 0 0.984375 0.265625q0.421875 0.25 0.625 0.671875q0.21875 0.40625 0.3125 0.859375q0.09375 0.453125 0.09375 0.953125q0 0.15625 0 0.296875l0.03125 0l1.171875 -2.875l1.5 0zm-3.25 2.46875q0 -2.203125 -1.546875 -2.203125q-0.96875 0 -1.765625 1.03125q-0.78125 1.03125 -1.15625 2.28125q-0.375 1.234375 -0.375 2.171875q0 0.875 0.3125 1.484375q0.328125 0.609375 1.046875 0.609375q1.03125 0 1.859375 -1.0q0.84375 -1.0 1.234375 -2.203125q0.390625 -1.21875 0.390625 -2.171875z" fill-rule="nonzero"/><path fill="#000000" fill-opacity="0.0" d="m24.349081 57.913387l27.559057 0l0 27.77953l-27.559057 0z" fill-rule="evenodd"/><path fill="#000000" d="m40.645958 81.30213l1.65625 0.171875q-0.625 1.8125 -1.765625 2.703125q-1.140625 0.875 -2.609375 0.875q-1.578125 0 -2.5625 -1.015625q-0.96875 -1.03125 -0.96875 -2.859375q0 -1.578125 0.625 -3.109375q0.640625 -1.53125 1.796875 -2.328125q1.171875 -0.796875 2.6875 -0.796875q1.546875 0 2.453125 0.875q0.921875 0.875 0.921875 2.328125l-1.625 0.109375q-0.015625 -0.921875 -0.546875 -1.4375q-0.515625 -0.515625 -1.359375 -0.515625q-1.0 0 -1.734375 0.625q-0.71875 0.625 -1.140625 1.90625q-0.40625 1.28125 -0.40625 2.46875q0 1.234375 0.546875 1.859375q0.546875 0.609375 1.34375 0.609375q0.796875 0 1.53125 -0.609375q0.734375 -0.609375 1.15625 -1.859375z" fill-rule="nonzero"/><path fill="#000000" fill-opacity="0.0" d="m93.43307 64.20998l27.55906 0l0 27.779526l-27.55906 0z" fill-rule="evenodd"/><path fill="#000000" d="m109.57369 89.92685q-0.859375 0.734375 -1.65625 1.078125q-0.78125 0.34375 -1.6875 0.34375q-1.34375 0 -2.171875 -0.78125q-0.8125 -0.796875 -0.8125 -2.03125q0 -0.796875 0.375 -1.421875q0.375 -0.625 0.984375 -1.0q0.609375 -0.390625 1.484375 -0.546875q0.5625 -0.109375 2.109375 -0.171875q1.5625 -0.0625 2.234375 -0.328125q0.1875 -0.671875 0.1875 -1.125q0 -0.578125 -0.421875 -0.90625q-0.5625 -0.453125 -1.671875 -0.453125q-1.03125 0 -1.703125 0.46875q-0.65625 0.453125 -0.953125 1.296875l-1.671875 -0.140625q0.515625 -1.4375 1.609375 -2.203125q1.109375 -0.765625 2.796875 -0.765625q1.796875 0 2.84375 0.859375q0.796875 0.625 0.796875 1.65625q0 0.765625 -0.21875 1.796875l-0.53125 2.40625q-0.265625 1.140625 -0.265625 1.859375q0 0.453125 0.203125 1.3125l-1.671875 0q-0.125 -0.46875 -0.1875 -1.203125zm0.609375 -3.703125q-0.34375 0.140625 -0.75 0.21875q-0.390625 0.0625 -1.3125 0.15625q-1.4375 0.125 -2.03125 0.328125q-0.59375 0.1875 -0.90625 0.625q-0.296875 0.421875 -0.296875 0.9375q0 0.6875 0.484375 1.140625q0.484375 0.4375 1.359375 0.4375q0.828125 0 1.578125 -0.421875q0.75 -0.4375 1.1875 -1.203125q0.4375 -0.78125 0.6875 -2.21875z" fill-rule="nonzero"/><path fill="#000000" fill-opacity="0.0" d="m51.90814 147.20735l27.559055 0l0 27.779526l-27.559055 0z" fill-rule="evenodd"/><path fill="#000000" d="m61.53314 174.12735l2.7812462 -13.359375l1.65625 0l-1.0 4.78125q0.78125 -0.71875 1.421875 -1.015625q0.640625 -0.296875 1.328125 -0.296875q1.359375 0 2.265625 1.015625q0.90625 1.0 0.90625 2.9375q0 1.28125 -0.375 2.359375q-0.359375 1.0625 -0.890625 1.78125q-0.53125 0.71875 -1.109375 1.15625q-0.578125 0.4375 -1.1875 0.640625q-0.59375 0.21875 -1.140625 0.21875q-0.96875 0 -1.703125 -0.5q-0.7187462 -0.515625 -1.1249962 -1.546875l-0.390625 1.828125l-1.4375 0zm2.4375 -3.96875l-0.015625 0.3125q0 1.234375 0.5937462 1.890625q0.59375 0.640625 1.484375 0.640625q0.859375 0 1.578125 -0.609375q0.734375 -0.609375 1.1875 -1.890625q0.46875 -1.28125 0.46875 -2.375q0 -1.21875 -0.59375 -1.890625q-0.578125 -0.671875 -1.4375 -0.671875q-0.90625 0 -1.65625 0.6875q-0.734375 0.6875 -1.234375 2.125q-0.3749962 1.0625 -0.3749962 1.78125z" fill-rule="nonzero"/><path fill="#000000" fill-opacity="0.0" d="m124.80052 34.002625l93.88977 0l0 85.44882l-93.88977 0z" fill-rule="evenodd"/><path fill="#000000" d="m134.20677 63.740124l1.15625 -0.1875q0.109375 0.7031288 0.546875 1.0781288q0.453125 0.359375 1.25 0.359375q0.8125 0 1.203125 -0.328125q0.390625 -0.328125 0.390625 -0.7656288q0 -0.390625 -0.359375 -0.625q-0.234375 -0.15625 -1.1875 -0.390625q-1.296875 -0.328125 -1.796875 -0.5625q-0.484375 -0.25 -0.75 -0.65625q-0.25 -0.421875 -0.25 -0.9375q0 -0.453125 0.203125 -0.84375q0.21875 -0.40625 0.578125 -0.671875q0.28125 -0.1875 0.75 -0.328125q0.46875 -0.140625 1.015625 -0.140625q0.8125 0 1.421875 0.234375q0.609375 0.234375 0.90625 0.640625q0.296875 0.390625 0.40625 1.0625l-1.140625 0.15625q-0.078125 -0.53125 -0.453125 -0.828125q-0.375 -0.3125 -1.0625 -0.3125q-0.8125 0 -1.15625 0.265625q-0.34375 0.265625 -0.34375 0.625q0 0.234375 0.140625 0.421875q0.15625 0.1875 0.453125 0.3125q0.171875 0.0625 1.03125 0.296875q1.25 0.328125 1.734375 0.546875q0.5 0.203125 0.78125 0.609375q0.28125 0.40625 0.28125 1.0q0 0.5937538 -0.34375 1.1093788q-0.34375 0.515625 -1.0 0.796875q-0.640625 0.28125 -1.453125 0.28125q-1.34375 0 -2.046875 -0.5625q-0.703125 -0.5625 -0.90625 -1.6562538zm7.1484375 -6.125l0 -1.359375l1.171875 0l0 1.359375l-1.171875 0zm0 8.187504l0 -6.906254l1.171875 0l0 6.906254l-1.171875 0zm2.945465 0l0 -6.906254l1.0625 0l0 0.984375q0.75 -1.140625 2.1875 -1.140625q0.625 0 1.15625 0.21875q0.53125 0.21875 0.78125 0.59375q0.265625 0.359375 0.375 0.859375q0.0625 0.328125 0.0625 1.140625l0 4.250004l-1.171875 0l0 -4.203129q0 -0.71875 -0.140625 -1.0625q-0.140625 -0.359375 -0.484375 -0.5625q-0.34375 -0.21875 -0.8125 -0.21875q-0.75 0 -1.296875 0.46875q-0.546875 0.46875 -0.546875 1.796875l0 3.7812538l-1.171875 0z" fill-rule="nonzero"/><path fill="#000000" d="m161.57239 60.052624q-0.671875 1.578125 -1.484375 3.03125q-0.046875 0.078125 -0.15625 0.25q-0.109375 0.15625 -0.1875 0.296875q-0.078125 0.125 -0.109375 0.25q-0.015625 0.0625 -0.015625 0.15625381q0 0.390625 0.140625 0.671875q0.15625 0.265625 0.40625 0.265625q0.3125 0 0.5 -0.15625q0.1875 -0.15625 0.359375 -0.6875l0.296875 0.09375q-0.0625 0.359375 -0.21875 0.71875q-0.140625 0.359375 -0.4375 0.6875q-0.28125 0.3125 -0.640625 0.3125q-0.765625 0 -0.765625 -1.28125q0 -0.140625 0.015625 -0.359375l-0.03125 0q-0.421875 0.703125 -1.171875 1.171875q-0.734375 0.46875 -1.5 0.46875q-0.90625 0 -1.40625 -0.578125q-0.5 -0.59375 -0.5 -1.5156288q0 -1.40625 1.0625 -2.65625q1.078125 -1.265625 2.46875 -1.265625q0.40625 0 0.703125 0.1875q0.296875 0.171875 0.4375 0.46875q0.15625 0.296875 0.21875 0.625q0.078125 0.3125 0.078125 0.671875q0 0.109375 0 0.21875l0.03125 0l0.8125 -2.046875l1.09375 0zm-2.328125 1.75q0 -1.578125 -1.109375 -1.578125q-0.6875 0 -1.265625 0.75q-0.5625 0.734375 -0.828125 1.625q-0.265625 0.890625 -0.265625 1.5468788q0 0.625 0.21875 1.0625q0.234375 0.4375 0.765625 0.4375q0.734375 0 1.328125 -0.71875q0.59375 -0.71875 0.875 -1.5781288q0.28125 -0.859375 0.28125 -1.546875z" fill-rule="nonzero"/><path fill="#000000" d="m172.80803 60.19325l-6.3125 0l0 -1.09375l6.3125 0l0 1.09375zm0 2.890625l-6.3125 0l0 -1.09375l6.3125 0l0 1.09375zm9.830154 1.8593788q-0.65625 0.5625 -1.265625 0.796875q-0.59375 0.21875 -1.28125 0.21875q-1.140625 0 -1.75 -0.546875q-0.609375 -0.5625 -0.609375 -1.4375038q0 -0.5 0.21875 -0.921875q0.234375 -0.421875 0.609375 -0.671875q0.375 -0.25 0.84375 -0.390625q0.34375 -0.078125 1.046875 -0.171875q1.421875 -0.171875 2.09375 -0.40625q0 -0.234375 0 -0.296875q0 -0.71875 -0.328125 -1.015625q-0.453125 -0.390625 -1.34375 -0.390625q-0.8125 0 -1.21875 0.296875q-0.390625 0.28125 -0.578125 1.015625l-1.140625 -0.15625q0.15625 -0.734375 0.515625 -1.1875q0.359375 -0.453125 1.03125 -0.6875q0.671875 -0.25 1.5625 -0.25q0.890625 0 1.4375 0.203125q0.5625 0.203125 0.8125 0.53125q0.265625 0.3125 0.375 0.796875q0.046875 0.296875 0.046875 1.078125l0 1.5625q0 1.6250038 0.078125 2.0625038q0.078125 0.4375 0.296875 0.828125l-1.21875 0q-0.1875 -0.359375 -0.234375 -0.859375zm-0.09375 -2.6093788q-0.640625 0.265625 -1.921875 0.4375q-0.71875 0.109375 -1.015625 0.25q-0.296875 0.125 -0.46875 0.375q-0.15625 0.25 -0.15625 0.546875q0 0.4687538 0.34375 0.7812538q0.359375 0.3125 1.046875 0.3125q0.671875 0 1.203125 -0.296875q0.53125 -0.296875 0.78125 -0.8125038q0.1875 -0.390625 0.1875 -1.171875l0 -0.421875zm5.8185883 3.6250038l2.765625 -9.859379l0.9375 0l-2.765625 9.859379l-0.9375 0zm12.7966 -2.6875038l1.15625 0.15625q-0.1875 1.1875038 -0.96875 1.8593788q-0.78125 0.671875 -1.921875 0.671875q-1.40625 0 -2.28125 -0.921875q-0.859375 -0.9375 -0.859375 -2.6562538q0 -1.125 0.375 -1.96875q0.375 -0.84375 1.125 -1.25q0.765625 -0.421875 1.65625 -0.421875q1.125 0 1.84375 0.578125q0.71875 0.5625 0.921875 1.609375l-1.140625 0.171875q-0.171875 -0.703125 -0.59375 -1.046875q-0.40625 -0.359375 -0.984375 -0.359375q-0.890625 0 -1.453125 0.640625q-0.546875 0.640625 -0.546875 2.0q0 1.40625 0.53125 2.0312538q0.546875 0.625 1.40625 0.625q0.6875 0 1.140625 -0.421875q0.46875 -0.421875 0.59375 -1.2968788z" fill-rule="nonzero"/><path fill="#000000" d="m139.19115 95.27138l1.15625 0.15625q-0.1875 1.1875 -0.96875 1.859375q-0.78125 0.671875 -1.921875 0.671875q-1.40625 0 -2.28125 -0.921875q-0.859375 -0.9375 -0.859375 -2.65625q0 -1.125 0.375 -1.96875q0.375 -0.84375 1.125 -1.25q0.765625 -0.421875 1.65625 -0.421875q1.125 0 1.84375 0.578125q0.71875 0.5625 0.921875 1.609375l-1.140625 0.171875q-0.171875 -0.703125 -0.59375 -1.046875q-0.40625 -0.359375 -0.984375 -0.359375q-0.890625 0 -1.453125 0.640625q-0.546875 0.640625 -0.546875 2.0q0 1.40625 0.53125 2.03125q0.546875 0.625 1.40625 0.625q0.6875 0 1.140625 -0.421875q0.46875 -0.421875 0.59375 -1.296875zm1.7109375 -0.921875q0 -1.921875 1.078125 -2.84375q0.890625 -0.765625 2.171875 -0.765625q1.421875 0 2.328125 0.9375q0.90625 0.921875 0.90625 2.578125q0 1.328125 -0.40625 2.09375q-0.390625 0.765625 -1.15625 1.1875q-0.765625 0.421875 -1.671875 0.421875q-1.453125 0 -2.359375 -0.921875q-0.890625 -0.9375 -0.890625 -2.6875zm1.203125 0q0 1.328125 0.578125 1.984375q0.59375 0.65625 1.46875 0.65625q0.875 0 1.453125 -0.65625q0.578125 -0.671875 0.578125 -2.03125q0 -1.28125 -0.59375 -1.9375q-0.578125 -0.65625 -1.4375 -0.65625q-0.875 0 -1.46875 0.65625q-0.578125 0.65625 -0.578125 1.984375zm6.1781006 1.390625l1.15625 -0.1875q0.109375 0.703125 0.546875 1.078125q0.453125 0.359375 1.25 0.359375q0.8125 0 1.203125 -0.328125q0.390625 -0.328125 0.390625 -0.765625q0 -0.390625 -0.359375 -0.625q-0.234375 -0.15625 -1.1875 -0.390625q-1.296875 -0.328125 -1.796875 -0.5625q-0.484375 -0.25 -0.75 -0.65625q-0.25 -0.421875 -0.25 -0.9375q0 -0.453125 0.203125 -0.84375q0.21875 -0.40625 0.578125 -0.671875q0.28125 -0.1875 0.75 -0.328125q0.46875 -0.140625 1.015625 -0.140625q0.8125 0 1.421875 0.234375q0.609375 0.234375 0.90625 0.640625q0.296875 0.390625 0.40625 1.0625l-1.140625 0.15625q-0.078125 -0.53125 -0.453125 -0.828125q-0.375 -0.3125 -1.0625 -0.3125q-0.8125 0 -1.15625 0.265625q-0.34375 0.265625 -0.34375 0.625q0 0.234375 0.140625 0.421875q0.15625 0.1875 0.453125 0.3125q0.171875 0.0625 1.03125 0.296875q1.25 0.328125 1.734375 0.546875q0.5 0.203125 0.78125 0.609375q0.28125 0.40625 0.28125 1.0q0 0.59375 -0.34375 1.109375q-0.34375 0.515625 -1.0 0.796875q-0.640625 0.28125 -1.453125 0.28125q-1.34375 0 -2.046875 -0.5625q-0.703125 -0.5625 -0.90625 -1.65625z" fill-rule="nonzero"/><path fill="#000000" d="m165.27536 92.05263q-0.671875 1.578125 -1.484375 3.03125q-0.046875 0.078125 -0.15625 0.25q-0.109375 0.15625 -0.1875 0.296875q-0.078125 0.125 -0.109375 0.25q-0.015625 0.0625 -0.015625 0.15625q0 0.390625 0.140625 0.671875q0.15625 0.265625 0.40625 0.265625q0.3125 0 0.5 -0.15625q0.1875 -0.15625 0.359375 -0.6875l0.296875 0.09375q-0.0625 0.359375 -0.21875 0.71875q-0.140625 0.359375 -0.4375 0.6875q-0.28125 0.3125 -0.640625 0.3125q-0.765625 0 -0.765625 -1.28125q0 -0.140625 0.015625 -0.359375l-0.03125 0q-0.421875 0.703125 -1.171875 1.171875q-0.734375 0.46875 -1.5 0.46875q-0.90625 0 -1.40625 -0.578125q-0.5 -0.59375 -0.5 -1.515625q0 -1.40625 1.0625 -2.65625q1.078125 -1.265625 2.46875 -1.265625q0.40625 0 0.703125 0.1875q0.296875 0.171875 0.4375 0.46875q0.15625 0.296875 0.21875 0.625q0.078125 0.3125 0.078125 0.671875q0 0.109375 0 0.21875l0.03125 0l0.8125 -2.046875l1.09375 0zm-2.328125 1.75q0 -1.578125 -1.109375 -1.578125q-0.6875 0 -1.265625 0.75q-0.5625 0.734375 -0.828125 1.625q-0.265625 0.890625 -0.265625 1.546875q0 0.625 0.21875 1.0625q0.234375 0.4375 0.765625 0.4375q0.734375 0 1.328125 -0.71875q0.59375 -0.71875 0.875 -1.578125q0.28125 -0.859375 0.28125 -1.546875z" fill-rule="nonzero"/><path fill="#000000" d="m176.511 92.19325l-6.3125 0l0 -1.09375l6.3125 0l0 1.09375zm0 2.890625l-6.3125 0l0 -1.09375l6.3125 0l0 1.09375zm6.3926544 2.71875l-1.078125 0l0 -9.546875l1.171875 0l0 3.40625q0.734375 -0.921875 1.890625 -0.921875q0.640625 0 1.203125 0.265625q0.578125 0.25 0.9375 0.71875q0.375 0.453125 0.578125 1.109375q0.203125 0.65625 0.203125 1.40625q0 1.78125 -0.875 2.75q-0.875 0.96875 -2.109375 0.96875q-1.21875 0 -1.921875 -1.015625l0 0.859375zm0 -3.5q0 1.234375 0.328125 1.78125q0.5625 0.90625 1.5 0.90625q0.765625 0 1.328125 -0.65625q0.5625 -0.671875 0.5625 -2.0q0 -1.34375 -0.546875 -1.984375q-0.53125 -0.65625 -1.296875 -0.65625q-0.765625 0 -1.328125 0.671875q-0.546875 0.671875 -0.546875 1.9375zm9.162338 3.65625l2.765625 -9.859375l0.9375 0l-2.765625 9.859375l-0.9375 0zm12.7966 -2.6875l1.15625 0.15625q-0.1875 1.1875 -0.96875 1.859375q-0.78125 0.671875 -1.921875 0.671875q-1.40625 0 -2.28125 -0.921875q-0.859375 -0.9375 -0.859375 -2.65625q0 -1.125 0.375 -1.96875q0.375 -0.84375 1.125 -1.25q0.765625 -0.421875 1.65625 -0.421875q1.125 0 1.84375 0.578125q0.71875 0.5625 0.921875 1.609375l-1.140625 0.171875q-0.171875 -0.703125 -0.59375 -1.046875q-0.40625 -0.359375 -0.984375 -0.359375q-0.890625 0 -1.453125 0.640625q-0.546875 0.640625 -0.546875 2.0q0 1.40625 0.53125 2.03125q0.546875 0.625 1.40625 0.625q0.6875 0 1.140625 -0.421875q0.46875 -0.421875 0.59375 -1.296875z" fill-rule="nonzero"/><path fill="#000000" d="m137.23802 128.75575l0.171875 1.03125q-0.5 0.109375 -0.890625 0.109375q-0.640625 0 -1.0 -0.203125q-0.34375 -0.203125 -0.484375 -0.53125q-0.140625 -0.328125 -0.140625 -1.390625l0 -3.96875l-0.859375 0l0 -0.90625l0.859375 0l0 -1.71875l1.171875 -0.703125l0 2.421875l1.171875 0l0 0.90625l-1.171875 0l0 4.046875q0 0.5 0.046875 0.640625q0.0625 0.140625 0.203125 0.234375q0.140625 0.078125 0.40625 0.078125q0.203125 0 0.515625 -0.046875zm5.6561127 0.1875q-0.65625 0.5625 -1.265625 0.796875q-0.59375 0.21875 -1.28125 0.21875q-1.140625 0 -1.75 -0.546875q-0.609375 -0.5625 -0.609375 -1.4375q0 -0.5 0.21875 -0.921875q0.234375 -0.421875 0.609375 -0.671875q0.375 -0.25 0.84375 -0.390625q0.34375 -0.078125 1.046875 -0.171875q1.421875 -0.171875 2.09375 -0.40625q0 -0.234375 0 -0.296875q0 -0.71875 -0.328125 -1.015625q-0.453125 -0.390625 -1.34375 -0.390625q-0.8125 0 -1.21875 0.296875q-0.390625 0.28125 -0.578125 1.015625l-1.140625 -0.15625q0.15625 -0.734375 0.515625 -1.1875q0.359375 -0.453125 1.03125 -0.6875q0.671875 -0.25 1.5625 -0.25q0.890625 0 1.4375 0.203125q0.5625 0.203125 0.8125 0.53125q0.265625 0.3125 0.375 0.796875q0.046875 0.296875 0.046875 1.078125l0 1.5625q0 1.625 0.078125 2.0625q0.078125 0.4375 0.296875 0.828125l-1.21875 0q-0.1875 -0.359375 -0.234375 -0.859375zm-0.09375 -2.609375q-0.640625 0.265625 -1.921875 0.4375q-0.71875 0.109375 -1.015625 0.25q-0.296875 0.125 -0.46875 0.375q-0.15625 0.25 -0.15625 0.546875q0 0.46875 0.34375 0.78125q0.359375 0.3125 1.046875 0.3125q0.671875 0 1.203125 -0.296875q0.53125 -0.296875 0.78125 -0.8125q0.1875 -0.390625 0.1875 -1.171875l0 -0.421875zm2.9906006 3.46875l0 -6.90625l1.0625 0l0 0.984375q0.75 -1.140625 2.1875 -1.140625q0.625 0 1.15625 0.21875q0.53125 0.21875 0.78125 0.59375q0.265625 0.359375 0.375 0.859375q0.0625 0.328125 0.0625 1.140625l0 4.25l-1.171875 0l0 -4.203125q0 -0.71875 -0.140625 -1.0625q-0.140625 -0.359375 -0.484375 -0.5625q-0.34375 -0.21875 -0.8125 -0.21875q-0.75 0 -1.296875 0.46875q-0.546875 0.46875 -0.546875 1.796875l0 3.78125l-1.171875 0z" fill-rule="nonzero"/><path fill="#000000" d="m163.0627 124.05263q-0.671875 1.578125 -1.484375 3.03125q-0.046875 0.078125 -0.15625 0.25q-0.109375 0.15625 -0.1875 0.296875q-0.078125 0.125 -0.109375 0.25q-0.015625 0.0625 -0.015625 0.15625q0 0.390625 0.140625 0.671875q0.15625 0.265625 0.40625 0.265625q0.3125 0 0.5 -0.15625q0.1875 -0.15625 0.359375 -0.6875l0.296875 0.09375q-0.0625 0.359375 -0.21875 0.71875q-0.140625 0.359375 -0.4375 0.6875q-0.28125 0.3125 -0.640625 0.3125q-0.765625 0 -0.765625 -1.28125q0 -0.140625 0.015625 -0.359375l-0.03125 0q-0.421875 0.703125 -1.171875 1.171875q-0.734375 0.46875 -1.5 0.46875q-0.90625 0 -1.40625 -0.578125q-0.5 -0.59375 -0.5 -1.515625q0 -1.40625 1.0625 -2.65625q1.078125 -1.265625 2.46875 -1.265625q0.40625 0 0.703125 0.1875q0.296875 0.171875 0.4375 0.46875q0.15625 0.296875 0.21875 0.625q0.078125 0.3125 0.078125 0.671875q0 0.109375 0 0.21875l0.03125 0l0.8125 -2.046875l1.09375 0zm-2.328125 1.75q0 -1.578125 -1.109375 -1.578125q-0.6875 0 -1.265625 0.75q-0.5625 0.734375 -0.828125 1.625q-0.265625 0.890625 -0.265625 1.546875q0 0.625 0.21875 1.0625q0.234375 0.4375 0.765625 0.4375q0.734375 0 1.328125 -0.71875q0.59375 -0.71875 0.875 -1.578125q0.28125 -0.859375 0.28125 -1.546875z" fill-rule="nonzero"/><path fill="#000000" d="m174.29834 124.19325l-6.3125 0l0 -1.09375l6.3125 0l0 1.09375zm0 2.890625l-6.3125 0l0 -1.09375l6.3125 0l0 1.09375zm9.830154 1.859375q-0.65625 0.5625 -1.265625 0.796875q-0.59375 0.21875 -1.28125 0.21875q-1.140625 0 -1.75 -0.546875q-0.609375 -0.5625 -0.609375 -1.4375q0 -0.5 0.21875 -0.921875q0.234375 -0.421875 0.609375 -0.671875q0.375 -0.25 0.84375 -0.390625q0.34375 -0.078125 1.046875 -0.171875q1.421875 -0.171875 2.09375 -0.40625q0 -0.234375 0 -0.296875q0 -0.71875 -0.328125 -1.015625q-0.453125 -0.390625 -1.34375 -0.390625q-0.8125 0 -1.21875 0.296875q-0.390625 0.28125 -0.578125 1.015625l-1.140625 -0.15625q0.15625 -0.734375 0.515625 -1.1875q0.359375 -0.453125 1.03125 -0.6875q0.671875 -0.25 1.5625 -0.25q0.890625 0 1.4375 0.203125q0.5625 0.203125 0.8125 0.53125q0.265625 0.3125 0.375 0.796875q0.046875 0.296875 0.046875 1.078125l0 1.5625q0 1.625 0.078125 2.0625q0.078125 0.4375 0.296875 0.828125l-1.21875 0q-0.1875 -0.359375 -0.234375 -0.859375zm-0.09375 -2.609375q-0.640625 0.265625 -1.921875 0.4375q-0.71875 0.109375 -1.015625 0.25q-0.296875 0.125 -0.46875 0.375q-0.15625 0.25 -0.15625 0.546875q0 0.46875 0.34375 0.78125q0.359375 0.3125 1.046875 0.3125q0.671875 0 1.203125 -0.296875q0.53125 -0.296875 0.78125 -0.8125q0.1875 -0.390625 0.1875 -1.171875l0 -0.421875zm5.8185883 3.625l2.765625 -9.859375l0.9375 0l-2.765625 9.859375l-0.9375 0zm9.3591 -0.15625l-1.078125 0l0 -9.546875l1.171875 0l0 3.40625q0.734375 -0.921875 1.890625 -0.921875q0.640625 0 1.203125 0.265625q0.578125 0.25 0.9375 0.71875q0.375 0.453125 0.578125 1.109375q0.203125 0.65625 0.203125 1.40625q0 1.78125 -0.875 2.75q-0.875 0.96875 -2.109375 0.96875q-1.21875 0 -1.921875 -1.015625l0 0.859375zm0 -3.5q0 1.234375 0.328125 1.78125q0.5625 0.90625 1.5 0.90625q0.765625 0 1.328125 -0.65625q0.5625 -0.671875 0.5625 -2.0q0 -1.34375 -0.546875 -1.984375q-0.53125 -0.65625 -1.296875 -0.65625q-0.765625 0 -1.328125 0.671875q-0.546875 0.671875 -0.546875 1.9375z" fill-rule="nonzero"/></g></svg>