<svg version="1.1" viewBox="0.0 0.0 296.6640419947507 241.19160104986878" fill="none" stroke="none" stroke-linecap="square" stroke-miterlimit="10" xmlns:xlink="http://www.w3.org/1999/xlink" xmlns="http://www.w3.org/2000/svg"><clipPath id="p.0"><path d="m0 0l296.66403 0l0 241.1916l-296.66403 0l0 -241.1916z" clip-rule="nonzero"/></clipPath><g clip-path="url(#p.0)"><path fill="#000000" fill-opacity="0.0" d="m0 0l296.66403 0l0 241.1916l-296.66403 0z" fill-rule="evenodd"/><path fill="#000000" fill-opacity="0.0" d="m40.33202 120.5958l0 0c0 -59.646755 48.353245 -108.0 108.0 -108.0l0 0c28.643387 0 56.1136 11.378538 76.36754 31.632467c20.253922 20.253933 31.632477 47.724155 31.632477 76.36754l0 0c0 59.64675 -48.353256 107.99999 -108.000015 107.99999l0 0c-59.64675 0 -108.0 -48.35324 -108.0 -107.99999z" fill-rule="evenodd"/><path stroke="#000000" stroke-width="1.0" stroke-linejoin="round" stroke-linecap="butt" stroke-dasharray="4.0,3.0" d="m40.33202 120.5958l0 0c0 -59.646755 48.353245 -108.0 108.0 -108.0l0 0c28.643387 0 56.1136 11.378538 76.36754 31.632467c20.253922 20.253933 31.632477 47.724155 31.632477 76.36754l0 0c0 59.64675 -48.353256 107.99999 -108.000015 107.99999l0 0c-59.64675 0 -108.0 -48.35324 -108.0 -107.99999z" fill-rule="evenodd"/><path fill="#000000" fill-opacity="0.0" d="m40.33202 120.5958l216.00002 0" fill-rule="evenodd"/><path stroke="#000000" stroke-width="1.0" stroke-linejoin="round" stroke-linecap="butt" d="m40.33202 120.5958l216.00002 0" fill-rule="evenodd"/><path fill="#000000" fill-opacity="0.0" d="m148.33202 12.5958l0 216.0" fill-rule="evenodd"/><path stroke="#000000" stroke-width="1.0" stroke-linejoin="round" stroke-linecap="butt" d="m148.33202 12.5958l0 216.0" fill-rule="evenodd"/><path fill="#000000" fill-opacity="0.0" d="m40.332893 120.58204l55.227905 -93.54291l105.54418 0.030780792l55.227905 93.57512l-55.227905 93.5429l-105.54418 -0.030776978z" fill-rule="evenodd"/><path stroke="#e06666" stroke-width="1.0" stroke-linejoin="round" stroke-linecap="butt" d="m40.332893 120.58204l55.227905 -93.54291l105.54418 0.030780792l55.227905 93.57512l-55.227905 93.5429l-105.54418 -0.030776978z" fill-rule="evenodd"/><path fill="#000000" fill-opacity="0.0" d="m79.137794 96.21785l21.574806 0l0 24.377953l-21.574806 0z" fill-rule="evenodd"/><path fill="#000000" d="m90.30967 115.45785l-1.46875 0l0 -5.53125l1.359375 0l0 0.796875q0.34375 -0.5625 0.625 -0.734375q0.28125 -0.1875 0.625 -0.1875q0.5 0 0.96875 0.28125l-0.453125 1.28125q-0.375 -0.25 -0.6875 -0.25q-0.3125 0 -0.53125 0.171875q-0.203125 0.171875 -0.328125 0.625q-0.109375 0.4375 -0.109375 1.84375l0 1.703125z" fill-rule="nonzero"/><path fill="#000000" fill-opacity="0.0" d="m117.93569 111.27034l40.72442 0l0 24.37796l-40.72442 0z" fill-rule="evenodd"/><path fill="#000000" d="m128.23257 129.63785q-0.6250076 -1.34375 -0.6250076 -2.7656326q0 -0.953125 0.25 -1.765625q0.25000763 -0.8125 0.7656326 -1.609375q0.328125 -0.53125 1.0625 -1.375l0.5625 0q-0.46875 0.484375 -0.984375 1.375q-0.5 0.890625 -0.734375 1.75q-0.21875 0.84375 -0.21875 1.71875q0 1.2812576 0.4375 2.6718826l-0.515625 0zm1.9296875 -3.5625076q0 -0.734375 0.21875 -1.484375q0.21875 -0.75 0.484375 -1.1875q0.265625 -0.453125 0.546875 -0.703125q0.296875 -0.265625 0.5625 -0.375q0.28125 -0.125 0.609375 -0.125q0.65625 0 1.09375 0.484375q0.453125 0.484375 0.453125 1.40625q0 0.953125 -0.3125 1.890625q-0.359375 1.09375 -1.0 1.640625q-0.484375 0.42188263 -1.125 0.42188263q-0.640625 0 -1.09375 -0.5000076q-0.4375 -0.515625 -0.4375 -1.46875zm0.6875 0.171875q0 0.53125 0.171875 0.828125q0.25 0.40625 0.71875 0.40625q0.40625 0 0.734375 -0.375q0.484375 -0.515625 0.734375 -1.515625q0.25 -1.015625 0.25 -1.65625q0 -0.625 -0.25 -0.890625q-0.234375 -0.28125 -0.609375 -0.28125q-0.28125 0 -0.53125 0.15625q-0.25 0.140625 -0.46875 0.484375q-0.3125 0.5 -0.546875 1.484375q-0.203125 0.84375 -0.203125 1.359375zm3.6367188 1.703125l0.171875 -0.796875l0.796875 0l-0.140625 0.6875q-0.140625 0.6406326 -0.421875 0.9218826q-0.265625 0.296875 -0.65625 0.34375l0.078125 -0.3125q0.453125 -0.125 0.609375 -0.8437576l-0.4375 0zm4.5703125 -1.875q0 -0.734375 0.21875 -1.484375q0.21875 -0.75 0.484375 -1.1875q0.265625 -0.453125 0.546875 -0.703125q0.296875 -0.265625 0.5625 -0.375q0.28125 -0.125 0.609375 -0.125q0.65625 0 1.09375 0.484375q0.453125 0.484375 0.453125 1.40625q0 0.953125 -0.3125 1.890625q-0.359375 1.09375 -1.0 1.640625q-0.484375 0.42188263 -1.125 0.42188263q-0.640625 0 -1.09375 -0.5000076q-0.4375 -0.515625 -0.4375 -1.46875zm0.6875 0.171875q0 0.53125 0.171875 0.828125q0.25 0.40625 0.71875 0.40625q0.40625 0 0.734375 -0.375q0.484375 -0.515625 0.734375 -1.515625q0.25 -1.015625 0.25 -1.65625q0 -0.625 -0.25 -0.890625q-0.234375 -0.28125 -0.609375 -0.28125q-0.28125 0 -0.53125 0.15625q-0.25 0.140625 -0.46875 0.484375q-0.3125 0.5 -0.546875 1.484375q-0.203125 0.84375 -0.203125 1.359375zm4.7929688 -4.125q0.609375 1.34375 0.609375 2.765625q0 0.9375 -0.25 1.75q-0.25 0.8125 -0.75 1.6250076q-0.34375 0.53125 -1.078125 1.375l-0.546875 0q0.453125 -0.5 0.953125 -1.390625q0.515625 -0.8750076 0.75 -1.7343826q0.234375 -0.859375 0.234375 -1.71875q0 -1.296875 -0.453125 -2.671875l0.53125 0z" fill-rule="nonzero"/></g></svg>